<svg viewBox="0 0 24 24" fill="none" xmlns="http://www.w3.org/2000/svg">
  <path d="M12.0067 9C14.2237 9 16 7.21333 16 5C16 2.78667 14.2237 1 12.0067 1C9.78965 1 8 2.78667 8 5C8 7.21333 9.78965 9 12.0067 9Z" fill="currentColor"/>
  <path fill-rule="evenodd" clip-rule="evenodd" d="M23.0129 21.1542C22.5541 22.6135 21.2099 23.6976 19.5971 23.7457C18.2088 23.7872 16.9816 23.0566 16.32 21.9424H8.09911C7.43755 23.0566 6.21033 23.7872 4.82208 23.7457C3.20926 23.6976 1.86508 22.6135 1.40625 21.1542L4.88866 21.2581L4.95309 18.8507L1.47068 18.7468C2.01485 17.3174 3.40663 16.3229 5.01945 16.3711C6.51191 16.4156 7.77581 17.3488 8.31939 18.6419L11.0135 18.7223C11.0129 18.7253 11.0124 18.7283 11.0118 18.7313H13.4074C13.4068 18.7283 13.4062 18.7253 13.4056 18.7223L16.0997 18.6419C16.6433 17.3488 17.9072 16.4156 19.3997 16.3711C21.0125 16.3229 22.4043 17.3174 22.9485 18.7468L19.466 18.8507L19.5305 21.2581L23.0129 21.1542Z" fill="currentColor"/>
  <path fill-rule="evenodd" clip-rule="evenodd" d="M3.2424 14.6179C4.39379 12.209 9.36268 11 11.9999 11C14.5911 11 19.4331 12.1671 20.6936 14.4927C20.2588 14.4004 19.8055 14.3581 19.34 14.372C17.5249 14.4261 15.9375 15.3287 14.9363 16.6758L13.0752 16.7313H11.344L9.48285 16.6758C8.48162 15.3287 6.89421 14.4261 5.07911 14.372C4.4383 14.3528 3.82067 14.4403 3.2424 14.6179ZM2.99992 18.7924V16.9044C3.06139 16.8668 3.12404 16.8311 3.18779 16.7971C3.73215 16.5074 4.35716 16.3513 5.01945 16.3711C5.67932 16.3908 6.2945 16.5842 6.82251 16.9056C6.88378 16.9429 6.94388 16.9819 7.00273 17.0226C7.58384 17.4242 8.04404 17.9869 8.3194 18.642L11.0135 18.7224L11.0118 18.7313H13.4074L13.4056 18.7224L16.0997 18.642C16.3751 17.9869 16.8353 17.4242 17.4164 17.0226C17.4753 16.9819 17.5354 16.9429 17.5966 16.9056C18.1246 16.5842 18.7398 16.3908 19.3997 16.3711C19.97 16.3541 20.5126 16.4674 20.9999 16.6842V18.8049L19.4661 18.8507L19.47 19H4.9491L4.95309 18.8507L2.99992 18.7924Z" fill="currentColor"/>
</svg>