<svg viewBox="0 0 24 24" fill="currentColor"
	xmlns="http://www.w3.org/2000/svg">
	<path d="M16.25 12H7.75V14.625H16.25V12ZM20.1901 5.80664L15.856 1.78711C15.6568 1.60254 15.3867 1.5 15.1034 1.5H14.8333V6.75H20.5V6.4998C20.5 6.24141 20.3893 5.99121 20.1901 5.80664ZM13.4167 7.07812V1.5H4.5625C3.9737 1.5 3.5 1.93887 3.5 2.48438V21.5156C3.5 22.0611 3.9737 22.5 4.5625 22.5H19.4375C20.0263 22.5 20.5 22.0611 20.5 21.5156V8.0625H14.4792C13.8948 8.0625 13.4167 7.61953 13.4167 7.07812ZM6.33333 4.45312C6.33333 4.27184 6.49182 4.125 6.6875 4.125H10.2292C10.4248 4.125 10.5833 4.27184 10.5833 4.45312V5.10938C10.5833 5.29066 10.4248 5.4375 10.2292 5.4375H6.6875C6.49182 5.4375 6.33333 5.29066 6.33333 5.10938V4.45312ZM6.33333 7.07812C6.33333 6.89684 6.49182 6.75 6.6875 6.75H10.2292C10.4248 6.75 10.5833 6.89684 10.5833 7.07812V7.73438C10.5833 7.91566 10.4248 8.0625 10.2292 8.0625H6.6875C6.49182 8.0625 6.33333 7.91566 6.33333 7.73438V7.07812ZM17.6667 19.5469C17.6667 19.7282 17.5082 19.875 17.3125 19.875H13.7708C13.5752 19.875 13.4167 19.7282 13.4167 19.5469V18.8906C13.4167 18.7093 13.5752 18.5625 13.7708 18.5625H17.3125C17.5082 18.5625 17.6667 18.7093 17.6667 18.8906V19.5469ZM17.6667 11.3438V15.2812C17.6667 15.6438 17.3497 15.9375 16.9583 15.9375H7.04167C6.65031 15.9375 6.33333 15.6438 6.33333 15.2812V11.3438C6.33333 10.9812 6.65031 10.6875 7.04167 10.6875H16.9583C17.3497 10.6875 17.6667 10.9812 17.6667 11.3438Z"/>
</svg>
