<svg width="40" height="40" viewBox="0 0 40 40" fill="none" xmlns="http://www.w3.org/2000/svg">
<path fill-rule="evenodd" clip-rule="evenodd" d="M10.7885 29.777C11.9793 29.777 12.9395 28.8155 12.9395 27.6356C12.9395 26.4556 11.9793 25.4941 10.7885 25.4941C9.59781 25.4941 8.63758 26.4556 8.63758 27.6356C8.63758 28.8155 9.59781 29.777 10.7885 29.777ZM14.875 27.6356C14.875 29.89 13.0426 31.7125 10.7885 31.7125C9.45099 31.7125 8.26196 31.0708 7.51613 30.0779C6.30692 30.4415 5.31278 30.4854 4.49936 30.1336C3.59756 29.7437 3.16938 28.9747 2.90463 28.379C2.82047 28.1897 2.75392 27.9422 2.7004 27.7126C2.64228 27.4634 2.58367 27.1636 2.52739 26.8327C2.41467 26.1699 2.30635 25.3529 2.22873 24.5096C2.15126 23.668 2.10284 22.7839 2.11405 21.9911C2.12483 21.2288 2.19058 20.4439 2.39779 19.8637C2.59613 19.3084 3.02709 18.809 3.45366 18.4022C3.90206 17.9746 4.44913 17.5538 5.00842 17.167C6.12265 16.3962 7.36733 15.704 8.1846 15.2956L8.18777 15.2939L8.23198 15.2704C8.27049 15.25 8.32685 15.2202 8.39946 15.1822C8.54468 15.1062 8.75504 14.997 9.01787 14.8633C9.54323 14.596 10.2798 14.23 11.126 13.8342C12.8038 13.0494 14.966 12.1222 16.7728 11.6337C16.9398 11.5886 17.0973 11.5448 17.2492 11.5026C17.9928 11.2961 18.6033 11.1264 19.5451 11.0096C20.8636 10.846 21.8924 11.0049 22.843 11.1916C22.9835 11.2192 23.121 11.247 23.2568 11.2745C24.042 11.4335 24.7688 11.5806 25.6827 11.6004L25.8035 11.603C26.3846 11.6158 26.7209 11.6231 27.3042 11.6009C27.9501 11.5762 28.4556 11.4129 29.0672 11.2152C29.1972 11.1733 29.3319 11.1297 29.4737 11.0856C30.2677 10.8389 31.1987 10.6178 32.3737 10.9115C32.4645 10.9342 32.5703 10.9539 32.6874 10.9756C33.2655 11.083 34.1191 11.2416 34.8044 12.0712C35.3656 12.7506 36.6227 14.2656 37.1911 14.9266C37.644 15.4535 37.8124 16.0461 37.7175 16.6116C37.6308 17.128 37.3423 17.5154 37.0757 17.7369L37.0664 17.7446L35.6556 18.8874C35.7146 19.1632 35.7457 19.4495 35.7457 19.7431C35.7457 21.9975 33.9133 23.82 31.6592 23.82C30.2029 23.82 28.9226 23.0592 28.1988 21.9128L14.8303 27.0306C14.8597 27.228 14.875 27.43 14.875 27.6356ZM5.26762 28.3572C5.46639 28.4431 5.88747 28.516 6.75331 28.2831C6.7196 28.0722 6.70209 27.856 6.70209 27.6356C6.70209 25.3812 8.53443 23.5586 10.7885 23.5586C12.1468 23.5586 13.3519 24.2204 14.0953 25.2396L27.5861 20.0748C27.5773 19.9654 27.5728 19.8548 27.5728 19.7431C27.5728 17.4886 29.4051 15.6661 31.6592 15.6661C32.9081 15.6661 34.0274 16.2255 34.7775 17.1078L35.7931 16.2851C35.7811 16.2633 35.7599 16.2308 35.7234 16.1884C35.4536 15.8745 35.0366 15.3781 34.6112 14.8684L33.4102 15.467L32.5467 13.7348L33.3411 13.3389C33.3313 13.3269 33.3216 13.3153 33.3121 13.3038C33.1619 13.1219 33.0435 13.0598 32.8904 13.0106C32.7918 12.9789 32.6763 12.9529 32.5044 12.9184L32.4289 12.9033C32.2801 12.8738 32.0968 12.8373 31.9044 12.7892C31.2416 12.6236 30.7202 12.7251 30.048 12.934C29.946 12.9657 29.838 13.001 29.7242 13.0382C29.1057 13.2406 28.3156 13.4992 27.3779 13.5349C26.7355 13.5594 26.3481 13.5509 25.7677 13.5382H25.7676H25.7676L25.6408 13.5354C24.541 13.5116 23.6363 13.3274 22.8498 13.1672L22.8496 13.1672C22.7199 13.1408 22.5935 13.115 22.47 13.0908C21.5941 12.9188 20.8008 12.8041 19.7834 12.9304C18.9922 13.0285 18.5227 13.1586 17.7952 13.3601L17.7949 13.3602C17.6367 13.404 17.4664 13.4511 17.278 13.5021C15.6417 13.9445 13.6056 14.8111 11.946 15.5874C11.1234 15.9721 10.4064 16.3284 9.89544 16.5884C9.64009 16.7183 9.43657 16.8239 9.29745 16.8968C9.22789 16.9332 9.17447 16.9614 9.13874 16.9804L9.09863 17.0017L9.0867 17.0081C9.07831 17.0126 9.06938 17.0172 9.06086 17.0214C8.30457 17.3987 7.13622 18.0485 6.10947 18.7588C5.59546 19.1143 5.13759 19.4708 4.78939 19.8029C4.41936 20.1558 4.26207 20.3984 4.22051 20.5147C4.12785 20.7742 4.05972 21.2849 4.04934 22.0184C4.03939 22.7215 4.08253 23.5333 4.15607 24.3322C4.22945 25.1294 4.33157 25.8973 4.43547 26.5082C4.48749 26.814 4.53872 27.0732 4.58533 27.2731C4.60863 27.3731 4.62947 27.4526 4.64713 27.5123C4.66209 27.5629 4.67123 27.5872 4.67326 27.5926L4.67326 27.5926C4.88831 28.0764 5.05988 28.2673 5.26762 28.3572ZM31.6592 21.8845C32.85 21.8845 33.8102 20.923 33.8102 19.7431C33.8102 18.5631 32.85 17.6016 31.6592 17.6016C30.4685 17.6016 29.5083 18.5631 29.5083 19.7431C29.5083 20.923 30.4685 21.8845 31.6592 21.8845Z" fill="#172B4D"/>
</svg>
