<svg width="40" height="40" viewBox="0 0 40 40" fill="none" xmlns="http://www.w3.org/2000/svg">
<path fill-rule="evenodd" clip-rule="evenodd" d="M13.8708 9.35515L13.8365 9.35514C13.624 9.35506 13.3778 9.35496 13.157 9.38292C12.8982 9.41567 12.5997 9.49369 12.3148 9.70022C12.0416 9.89833 11.8617 10.1567 11.7276 10.4036C11.5955 10.6468 11.4753 10.9409 11.3521 11.2686C11.0646 12.0328 10.4267 13.584 9.77651 15.0919C9.5235 15.6788 9.27398 16.2465 9.04619 16.7518L6.4514 16.7518V18.6873H8.09871C8.05787 18.7576 8.01994 18.8224 7.98448 18.8828L7.95904 18.9261L7.95897 18.9263C7.90846 19.0123 7.86107 19.093 7.81947 19.1656C7.72561 19.3293 7.62908 19.5058 7.55839 19.6996C7.41739 20.0862 7.41819 20.4552 7.41903 20.8448L7.41916 20.9357L7.41914 28.3325L7.41913 28.3749C7.41907 28.6592 7.419 28.9478 7.44526 29.1834C7.47205 29.4238 7.54378 29.8233 7.86493 30.1434C8.18547 30.463 8.58465 30.5341 8.8247 30.5607C9.06048 30.5868 9.34948 30.5867 9.63489 30.5867H9.63492L9.67722 30.5866H11.2901L11.3324 30.5867H11.3325C11.6179 30.5867 11.9069 30.5868 12.1426 30.5607C12.3827 30.5341 12.7819 30.463 13.1024 30.1434C13.4235 29.8233 13.4953 29.4238 13.5221 29.1834C13.5483 28.9478 13.5482 28.6592 13.5482 28.3749L13.5482 28.3325V27.6893C13.5482 27.5665 13.5482 27.4628 13.5492 27.3717C13.6413 27.3707 13.7463 27.3706 13.8708 27.3706H19.9998H26.1288C26.2532 27.3706 26.3583 27.3707 26.4504 27.3717C26.4514 27.4628 26.4514 27.5665 26.4514 27.6893V28.3325L26.4514 28.3749C26.4513 28.6592 26.4513 28.9478 26.4775 29.1834C26.5043 29.4238 26.576 29.8233 26.8972 30.1434C27.2177 30.463 27.6169 30.5341 27.8569 30.5607C28.0927 30.5868 28.3817 30.5867 28.6671 30.5867H28.6671L28.7094 30.5866H30.3223L30.3647 30.5867H30.3647C30.6501 30.5867 30.9391 30.5868 31.1749 30.5607C31.4149 30.5341 31.8141 30.463 32.1346 30.1434C32.4558 29.8233 32.5275 29.4238 32.5543 29.1834C32.5806 28.9478 32.5805 28.6592 32.5804 28.3749L32.5804 28.3325L32.5804 20.9357L32.5805 20.8448C32.5814 20.4552 32.5822 20.0862 32.4412 19.6996C32.3705 19.5058 32.274 19.3293 32.1801 19.1656C32.1385 19.093 32.0911 19.0123 32.0406 18.9263L32.0405 18.9261L32.0151 18.8828C31.9796 18.8224 31.9417 18.7576 31.9009 18.6873H33.5482V16.7518L30.9534 16.7518C30.7256 16.2465 30.4761 15.6788 30.2231 15.0919C29.5729 13.584 28.935 12.0328 28.6475 11.2686C28.5242 10.9409 28.4041 10.6468 28.272 10.4036C28.1378 10.1567 27.958 9.89833 27.6848 9.70022C27.3999 9.49369 27.1013 9.41567 26.8426 9.38292C26.6218 9.35496 26.3756 9.35506 26.1631 9.35514L26.1288 9.35515H19.9998H13.8708ZM13.8708 11.2906H19.9998H26.1288C26.35 11.2906 26.4716 11.2918 26.555 11.2985C26.56 11.3071 26.5654 11.3168 26.5713 11.3276C26.6357 11.4462 26.7172 11.6345 26.8359 11.95C27.1397 12.7577 27.7921 14.3421 28.4457 15.8582C29.0903 17.3532 29.7721 18.8665 30.1279 19.4873C30.211 19.6324 30.2836 19.7563 30.3458 19.8624L30.3722 19.9074C30.4233 19.9943 30.4647 20.065 30.5009 20.128C30.5885 20.2808 30.6129 20.3355 30.6229 20.3628L30.6242 20.3664C30.6334 20.3903 30.6449 20.4201 30.6449 20.9357L30.6449 28.3325C30.6449 28.4553 30.6449 28.559 30.644 28.6501C30.5518 28.6511 30.4468 28.6512 30.3223 28.6512H28.7094C28.585 28.6512 28.48 28.6511 28.3879 28.6501C28.3869 28.559 28.3869 28.4553 28.3869 28.3325V27.6893L28.3869 27.6469V27.6469V27.6469C28.3869 27.3625 28.387 27.074 28.3608 26.8384C28.334 26.598 28.2622 26.1985 27.9411 25.8784C27.6205 25.5588 27.2214 25.4877 26.9813 25.4611C26.7455 25.435 26.4565 25.4351 26.1711 25.4352L26.1288 25.4352H19.9998H13.8708L13.8284 25.4352C13.543 25.4351 13.254 25.435 13.0183 25.4611C12.7782 25.4877 12.379 25.5588 12.0585 25.8784C11.7373 26.1985 11.6656 26.598 11.6388 26.8384C11.6126 27.074 11.6126 27.3626 11.6127 27.6469L11.6127 27.6893V28.3325C11.6127 28.4553 11.6127 28.559 11.6117 28.6501C11.5196 28.6511 11.4146 28.6512 11.2901 28.6512H9.67722C9.55277 28.6512 9.44776 28.6511 9.35562 28.6501C9.35465 28.559 9.35462 28.4553 9.35462 28.3325L9.35464 20.9357C9.35464 20.4201 9.36615 20.3903 9.37534 20.3664L9.3767 20.3628C9.38666 20.3355 9.4111 20.2808 9.49868 20.128C9.53483 20.065 9.5763 19.9943 9.62733 19.9074L9.65374 19.8624C9.71601 19.7563 9.78854 19.6324 9.87167 19.4873C10.2275 18.8665 10.9093 17.3532 11.5538 15.8582C12.2075 14.3421 12.8599 12.7577 13.1637 11.95C13.2823 11.6345 13.3638 11.4462 13.4283 11.3276C13.4342 11.3168 13.4396 11.3071 13.4446 11.2985C13.528 11.2918 13.6496 11.2906 13.8708 11.2906ZM18.6291 18.3628L15.7681 15.5105L17.1347 14.1398L19.9998 16.9963L22.8649 14.1398L24.2314 15.5105L21.3705 18.3628L24.2314 21.215L22.8649 22.5857L19.9998 19.7293L17.1347 22.5857L15.7681 21.215L18.6291 18.3628Z" fill="#172B4D"/>
</svg>
