<svg width="40" height="40" viewBox="0 0 40 40" fill="none" xmlns="http://www.w3.org/2000/svg">
<path fill-rule="evenodd" clip-rule="evenodd" d="M14.5608 8.72098L14.5671 8.71535C14.5877 8.69727 14.6218 8.66856 14.6668 8.63512C14.7608 8.56527 14.8812 8.49047 15.0083 8.44087C15.1349 8.39147 15.233 8.3805 15.3061 8.39035C15.3634 8.39806 15.4645 8.42487 15.6064 8.56634C15.7591 8.71856 15.7783 8.81375 15.7828 8.84489C15.789 8.8879 15.784 8.95194 15.7433 9.04651C15.7014 9.1439 15.6359 9.23934 15.5711 9.31661C15.5405 9.35308 15.5143 9.38038 15.4983 9.39631L15.4896 9.40489L8.99426 14.8539L14.5608 8.72098ZM16.7652 10.8609L16.7674 10.8589L16.7708 10.8559L16.779 10.8486L16.801 10.8285C16.818 10.8127 16.8396 10.7921 16.8648 10.767C16.915 10.717 16.9809 10.6475 17.0536 10.5609C17.1954 10.3919 17.3819 10.1356 17.5215 9.8109C17.6623 9.48337 17.7681 9.05496 17.6987 8.57035C17.6276 8.07387 17.3847 7.60625 16.9729 7.19567C16.5503 6.77434 16.0667 6.53985 15.5645 6.47219C15.0781 6.40666 14.6419 6.50625 14.3049 6.63774C13.9683 6.76905 13.6955 6.94549 13.5123 7.08167C13.4187 7.15124 13.3432 7.21423 13.2888 7.26211C13.2614 7.28616 13.2391 7.30668 13.2221 7.32267L13.2005 7.34324L13.1927 7.35081L13.1896 7.35389L13.1883 7.35524C13.1883 7.35524 13.1927 7.35081 13.187 7.35647C13.1756 7.36783 13.1645 7.37948 13.1537 7.3914L0.250474 21.6076C-0.0965087 21.9899 -0.082299 22.5772 0.282764 22.9423L0.605344 23.2649C0.960127 23.6196 1.52722 23.6444 1.91161 23.322L16.7503 10.8736L16.7652 10.8609ZM13.2595 21.8941H11.6122V19.9587H14.207C14.4348 19.4533 14.6843 18.8856 14.9373 18.2987C15.5875 16.7908 16.2254 15.2397 16.5129 14.4754C16.6362 14.1477 16.7563 13.8536 16.8884 13.6104C17.0226 13.3635 17.2024 13.1052 17.4756 12.9071C17.7605 12.7005 18.0591 12.6225 18.3178 12.5897C18.5386 12.5618 18.7848 12.5619 18.9973 12.562L19.0316 12.562H25.1606H31.2896L31.3239 12.562C31.5364 12.5619 31.7826 12.5618 32.0034 12.5897C32.2622 12.6225 32.5607 12.7005 32.8456 12.9071C33.1188 13.1052 33.2987 13.3635 33.4328 13.6104C33.5649 13.8536 33.6851 14.1477 33.8083 14.4754C34.0958 15.2397 34.7337 16.7908 35.3839 18.2987C35.6369 18.8856 35.8864 19.4533 36.1142 19.9587H38.709V21.8941H37.0617C37.1025 21.9644 37.1405 22.0292 37.1759 22.0896L37.2014 22.1329C37.2519 22.219 37.2993 22.2998 37.3409 22.3724C37.4348 22.5361 37.5313 22.7126 37.602 22.9064C37.743 23.293 37.7422 23.6621 37.7414 24.0516L37.7412 24.1425L37.7413 31.5393L37.7413 31.5817C37.7413 31.8661 37.7414 32.1547 37.7151 32.3902C37.6883 32.6307 37.6166 33.0301 37.2955 33.3503C36.9749 33.6698 36.5757 33.7409 36.3357 33.7675C36.0999 33.7936 35.811 33.7935 35.5256 33.7935H35.5255L35.4832 33.7935H33.8703L33.828 33.7935H33.8279C33.5425 33.7935 33.2535 33.7936 33.0178 33.7675C32.7777 33.7409 32.3785 33.6698 32.058 33.3503C31.7369 33.0301 31.6651 32.6306 31.6383 32.3902C31.6121 32.1547 31.6122 31.8661 31.6122 31.5817L31.6122 31.5393V30.8961C31.6122 30.7733 31.6122 30.6696 31.6112 30.5785C31.5191 30.5775 31.4141 30.5775 31.2896 30.5775H25.1606H19.0316C18.9072 30.5775 18.8021 30.5775 18.71 30.5785C18.709 30.6696 18.709 30.7733 18.709 30.8961V31.5393L18.709 31.5817C18.7091 31.8661 18.7091 32.1547 18.6829 32.3902C18.6561 32.6306 18.5844 33.0301 18.2632 33.3503C17.9427 33.6698 17.5435 33.7409 17.3035 33.7675C17.0677 33.7936 16.7787 33.7935 16.4934 33.7935H16.4933L16.451 33.7935H14.8381L14.7957 33.7935H14.7956C14.5103 33.7935 14.2213 33.7936 13.9855 33.7675C13.7455 33.7409 13.3463 33.6698 13.0258 33.3503C12.7046 33.0301 12.6329 32.6307 12.6061 32.3902C12.5798 32.1547 12.5799 31.8661 12.58 31.5818V31.5817L12.58 31.5393L12.58 24.1425L12.5799 24.0516C12.579 23.6621 12.5782 23.293 12.7192 22.9064C12.7899 22.7126 12.8864 22.5361 12.9803 22.3724C13.0217 22.3002 13.0688 22.22 13.119 22.1345L13.1194 22.1338L13.1198 22.1331L13.1199 22.1329L13.1453 22.0896C13.1808 22.0292 13.2187 21.9644 13.2595 21.8941ZM19.0316 14.4975H25.1606H31.2896C31.5108 14.4975 31.6324 14.4987 31.7158 14.5054C31.7182 14.5095 31.7207 14.5138 31.7233 14.5184C31.7261 14.5234 31.7291 14.5288 31.7321 14.5344C31.7966 14.653 31.8781 14.8413 31.9967 15.1568C32.3005 15.9645 32.9529 17.549 33.6066 19.065C34.2511 20.5601 34.9329 22.0734 35.2887 22.6942C35.3719 22.8392 35.4444 22.9631 35.5067 23.0692L35.5331 23.1142L35.5336 23.1151C35.5844 23.2016 35.6257 23.272 35.6617 23.3349C35.7493 23.4877 35.7737 23.5423 35.7837 23.5696L35.7851 23.5732C35.7942 23.5971 35.8058 23.627 35.8058 24.1425L35.8058 31.5393C35.8058 31.6621 35.8058 31.7659 35.8048 31.857C35.7126 31.858 35.6076 31.858 35.4832 31.858H33.8703C33.7458 31.858 33.6408 31.858 33.5487 31.857C33.5477 31.7659 33.5477 31.6621 33.5477 31.5393V30.8961L33.5477 30.8537C33.5478 30.5694 33.5478 30.2808 33.5216 30.0452C33.4948 29.8048 33.4231 29.4053 33.1019 29.0852C32.7814 28.7656 32.3822 28.6946 32.1421 28.668C31.9064 28.6419 31.6174 28.6419 31.332 28.642L31.2896 28.642H25.1606H19.0316L18.9893 28.642C18.7039 28.6419 18.4149 28.6419 18.1791 28.668C17.939 28.6946 17.5399 28.7656 17.2193 29.0852C16.8982 29.4053 16.8264 29.8048 16.7996 30.0452C16.7734 30.2808 16.7735 30.5693 16.7735 30.8537V30.8537V30.8537V30.8537L16.7735 30.8961V31.5393C16.7735 31.6621 16.7735 31.7659 16.7725 31.857C16.6804 31.858 16.5754 31.858 16.451 31.858H14.8381C14.7136 31.858 14.6086 31.858 14.5164 31.857C14.5155 31.7659 14.5155 31.6621 14.5155 31.5393L14.5155 24.1425C14.5155 23.627 14.527 23.5971 14.5362 23.5732L14.5375 23.5696C14.5475 23.5423 14.5719 23.4877 14.6595 23.3349C14.6957 23.2718 14.7371 23.2012 14.7882 23.1142L14.8146 23.0692C14.8768 22.9631 14.9494 22.8392 15.0325 22.6942C15.3883 22.0734 16.0701 20.5601 16.7147 19.065C17.3683 17.549 18.0207 15.9645 18.3245 15.1568C18.4432 14.8413 18.5247 14.653 18.5891 14.5344C18.595 14.5236 18.6004 14.5139 18.6054 14.5054C18.6888 14.4987 18.8104 14.4975 19.0316 14.4975Z" fill="#172B4D"/>
</svg>
