<svg width="40" height="40" viewBox="0 0 40 40" fill="none" xmlns="http://www.w3.org/2000/svg">
<path fill-rule="evenodd" clip-rule="evenodd" d="M9.60741 15.086C11.504 11.512 15.422 9.032 20.0007 9.032C24.5781 9.032 28.5095 11.5197 30.4033 15.0992C30.0627 15.2099 29.6792 15.3646 29.2918 15.5805C28.0474 16.2738 26.7749 17.6071 26.7749 19.9635C26.7749 22.3198 28.0474 23.6531 29.2918 24.3464C29.8956 24.6829 30.4897 24.8706 30.9269 24.975C31.1474 25.0277 31.3333 25.0604 31.4678 25.0802C31.5352 25.0902 31.5901 25.097 31.6304 25.1015C31.6505 25.1037 31.6671 25.1054 31.6798 25.1066L31.6959 25.1081L31.7018 25.1086L31.7042 25.1088L31.7061 25.109L32.4188 25.1657L32.6824 24.5012C33.2426 23.0895 33.5491 21.5597 33.5491 19.9635C33.5491 18.3673 33.2426 16.8374 32.6824 15.4257C30.742 10.5358 25.7771 7.09651 20.0007 7.09651C12.5696 7.09651 6.45235 12.8072 6.45235 19.9635C6.45235 27.1198 12.5696 32.8304 20.0007 32.8304H20.9685V28.6467H19.033V30.8577C14.8873 30.5372 11.3911 28.1755 9.62421 24.8724C9.99856 24.7599 10.4363 24.5931 10.8792 24.3463C12.1235 23.653 13.396 22.3197 13.396 19.9634C13.396 17.5875 12.0617 16.257 10.7846 15.5727C10.3731 15.3523 9.96606 15.1963 9.60741 15.086ZM8.85671 16.8837C9.16066 16.9653 9.51902 17.0905 9.87046 17.2788C10.6941 17.7201 11.4605 18.4801 11.4605 19.9634C11.4605 21.4663 10.7129 22.2233 9.93712 22.6556C9.56067 22.8654 9.17591 22.9957 8.86653 23.0746C8.55486 22.0866 8.38783 21.0419 8.38783 19.9635C8.38783 18.8964 8.55135 17.8624 8.85671 16.8837ZM30.2338 17.2712C30.5498 17.0952 30.8716 16.9751 31.1498 16.8944C31.4517 17.8676 31.6136 18.8972 31.6136 19.9635C31.6136 21.0297 31.4517 22.0593 31.1498 23.0326C30.8716 22.9519 30.5498 22.8318 30.2338 22.6557C29.458 22.2234 28.7104 21.4663 28.7104 19.9635C28.7104 18.4606 29.458 17.7035 30.2338 17.2712Z" fill="#172B4D"/>
</svg>
