<svg width="40" height="40" viewBox="0 0 40 40" fill="none" xmlns="http://www.w3.org/2000/svg">
<path fill-rule="evenodd" clip-rule="evenodd" d="M14.8768 12.4095L14.8757 12.4119L14.8748 12.4138C14.7252 12.7302 14.4164 12.9412 14.067 12.9654L14.065 12.9656L14 12C14.065 12.9656 14.065 12.9656 14.065 12.9656L14.067 12.9654L14.0602 12.9659C14.0529 12.9665 14.04 12.9676 14.0219 12.9694C13.9857 12.9728 13.9287 12.9788 13.8541 12.9884C13.7045 13.0076 13.4854 13.0408 13.2203 13.0963C12.6857 13.2081 11.9865 13.4053 11.2986 13.7442C9.94352 14.4117 8.70968 15.5696 8.70968 17.7441C8.70968 19.0674 9.03768 19.9677 9.47033 20.5933C9.90688 21.2245 10.4964 21.6427 11.12 21.9207C11.7481 22.2009 12.3902 22.329 12.8855 22.3847C13.1305 22.4123 13.3328 22.4215 13.4701 22.4238C13.5385 22.425 13.5903 22.4245 13.6226 22.4239C13.6387 22.4235 13.6499 22.4232 13.6559 22.4229L13.6602 22.4228L13.6591 22.4228L13.6574 22.4229L13.6819 22.8827C13.6819 22.8827 13.6988 23.1994 13.7097 23.4023C13.7294 23.7849 13.7097 24.357 13.7097 24.357H13.7304L13.7292 24.357C13.7126 24.3577 13.6903 24.3584 13.6627 24.3589C13.6076 24.3601 13.5311 24.3607 13.4364 24.359C13.2474 24.3558 12.9834 24.3435 12.6689 24.3081C12.0453 24.2378 11.1954 24.0736 10.3317 23.6884C9.46328 23.3012 8.56086 22.681 7.87846 21.6942C7.19216 20.7019 6.77419 19.4047 6.77419 17.7441C6.77419 14.596 8.66939 12.8818 10.4433 12.0079C11.3199 11.5761 12.1853 11.3354 12.8241 11.2018C13.0439 11.1558 13.2395 11.122 13.4028 11.0973C13.3452 11.1875 13.6135 11.326 13.5742 11.3945C13.5337 11.4653 13.1859 11.4655 13.1636 11.5088C13.1525 11.5304 13.1435 11.5483 13.1367 11.5622L13.1281 11.58L13.125 11.5865L13.1238 11.5892L13.8541 11.5009M17.2918 24.357H13.7304L13.7499 24.3562L13.757 24.3558L13.7597 24.3557L13.7609 24.3556C13.7609 24.3556 13.7297 23.7746 13.7097 23.4023C13.6899 23.0198 13.6591 22.4228 13.6591 22.4228L13.6602 22.4228C13.6765 22.4219 13.6933 22.4215 13.7097 22.4215H18.7097C19.0295 22.4215 19.3287 22.5795 19.509 22.8437C19.6893 23.1079 19.7274 23.444 19.6109 23.7419L18.6759 26.1312H20C20.3379 26.1312 20.6514 26.3075 20.8269 26.5962C21.0025 26.885 21.0147 27.2444 20.8591 27.5444L18.6011 31.8992L16.8828 31.0083L18.4081 28.0667H17.2581C16.9382 28.0667 16.6391 27.9086 16.4588 27.6445C16.2785 27.3803 16.2403 27.0441 16.3569 26.7463L17.2918 24.357ZM13.4028 11.0973C13.4641 11.0016 13.5359 10.8949 13.619 10.7802C13.9405 10.3361 14.4361 9.76189 15.1401 9.2305C16.5764 8.1463 18.8052 7.3003 21.9823 7.96196C25.1888 8.62974 26.75 10.3678 27.4531 12.0293C27.787 12.8184 27.9156 13.5601 27.9609 14.1099C28.4661 14.1798 29.1374 14.3156 29.8214 14.5841C30.5319 14.8631 31.3032 15.3038 31.9018 16.0083C32.5157 16.7307 32.9032 17.6797 32.9032 18.8731C32.9032 20.2077 32.5046 21.2676 31.8648 22.0819C31.2362 22.8819 30.4184 23.3905 29.6521 23.7156C28.8855 24.0408 28.1323 24.1988 27.5801 24.2769C27.3014 24.3163 27.0675 24.3362 26.9002 24.3464C26.8163 24.3515 26.7487 24.3541 26.7 24.3555C26.6757 24.3562 26.656 24.3566 26.6414 24.3568L26.6233 24.3569L26.6171 24.357L26.6148 24.357C26.6148 24.357 26.6414 24.3568 26.6129 24.357H22.7419V22.4215H26.6122L26.6149 22.4215L26.6453 22.4208C26.6746 22.42 26.7214 22.4182 26.7831 22.4144C26.9068 22.407 27.0887 22.3916 27.3091 22.3605C27.7548 22.2974 28.3322 22.1731 28.8962 21.9338C29.4607 21.6944 29.9734 21.3563 30.3429 20.8861C30.7011 20.4302 30.9677 19.7966 30.9677 18.8731C30.9677 18.131 30.7384 17.6281 30.4268 17.2615C30.1 16.8768 29.6375 16.5912 29.1141 16.3858C28.5934 16.1813 28.059 16.0746 27.6453 16.0203C27.441 15.9935 27.2723 15.9803 27.1575 15.9739C27.1003 15.9706 27.0569 15.9691 27.0297 15.9684L26.9996 15.9677C26.9996 15.9677 26.8378 15.787 26.554 15.4697L26.0387 14.8889L26.0384 14.8915L26.0401 14.871C26.0418 14.8484 26.0443 14.8098 26.0459 14.7572C26.0493 14.6517 26.0492 14.4916 26.0338 14.2925C26.0028 13.8917 25.9106 13.3506 25.6706 12.7836C25.2125 11.701 24.1661 10.3938 21.5877 9.85679C18.9798 9.31368 17.3161 10.013 16.3062 10.7753C15.787 11.1672 15.4211 11.5915 15.1868 11.9151C15.0701 12.0763 14.9877 12.2102 14.9368 12.2991C14.9114 12.3435 14.8939 12.3763 14.8841 12.3954L14.8748 12.4138M26.0382 14.8931C26.0079 15.1656 26.0946 15.4383 26.277 15.6433C26.4604 15.8494 26.7237 15.9674 26.9996 15.9677M26.0387 14.8889L26.0382 14.8931L26.0387 14.8889Z" fill="#172B4D"/>
<path d="M14.5586 24.3594L14.4883 22.4215L13.5664 22.4245V24.3594H14.5586Z" fill="#172B4D"/>
<path d="M13.5195 11.0742L13.2266 11.125C13.0911 11.2057 12.8117 11.3703 12.7773 11.3828C12.7344 11.3984 12.5898 11.6758 12.5391 11.7461C12.4883 11.8164 13.25 12.2734 13.2969 12.2734C13.3344 12.2734 14.3359 12.4167 14.832 12.4883L14.9531 12.2734V11.6484L13.5195 11.0742Z" fill="#172B4D"/>
</svg>
