<svg width="40" height="40" viewBox="0 0 40 40" fill="none" xmlns="http://www.w3.org/2000/svg">
<path fill-rule="evenodd" clip-rule="evenodd" d="M4.19775 8.6624C4.19777 8.66205 4.19778 8.66172 5.16432 8.71004C6.13085 8.75837 6.13087 8.75806 6.13088 8.75776L6.13095 8.75637L6.13039 8.77361C6.12993 8.79027 6.12935 8.8181 6.12922 8.85605C6.12896 8.93205 6.1305 9.0481 6.13828 9.19597C6.15391 9.49284 6.19437 9.91161 6.29332 10.3884C6.49383 11.3545 6.9182 12.4824 7.7841 13.3483C8.24744 13.8117 9.03594 14.3229 9.77345 14.7417C10.1301 14.9443 10.4541 15.1137 10.6887 15.2324C10.8058 15.2916 10.8999 15.3379 10.964 15.369C10.996 15.3845 11.0205 15.3962 11.0365 15.4038L11.0541 15.4121L11.0579 15.4139L11.0568 15.4162C11.0502 15.4305 11.0019 15.5346 10.6482 16.2907C10.2382 17.1673 10.2381 17.1672 10.238 17.1672L10.237 17.1667L10.235 17.1658L10.2283 17.1627L10.2049 17.1515C10.1848 17.142 10.1561 17.1282 10.1197 17.1106C10.0468 17.0752 9.94275 17.0241 9.81495 16.9595C9.55986 16.8304 9.20752 16.6461 8.81763 16.4247C8.06197 15.9955 7.07628 15.3777 6.41551 14.7169C5.18463 13.486 4.64126 11.9527 4.39822 10.7817C4.2754 10.1899 4.22513 9.6712 4.20548 9.2977C4.19562 9.11039 4.19338 8.95805 4.19375 8.84945C4.19393 8.7951 4.19477 8.75157 4.19565 8.71996L4.19692 8.68155L4.19743 8.66926L4.19763 8.66489L4.19775 8.6624ZM27.0862 16.6139C26.4772 12.9951 23.3056 10.9244 19.8294 10.9682C16.4113 11.0112 13.3585 13.0542 12.7583 16.6136C12.6307 17.3701 12.6819 17.9837 12.7258 18.5097C12.7335 18.6021 12.741 18.6919 12.7473 18.7792C12.8987 20.8938 14.0167 22.6228 14.9418 24.0059L15.1067 24.2519C15.5209 24.8692 15.8825 25.4083 16.1588 25.9342C16.4678 26.5224 16.6158 26.9985 16.6158 27.4197V29.5165V29.5176L16.6158 29.5188L16.6158 29.5213L16.6158 29.5268L16.616 29.5402C16.6162 29.5502 16.6165 29.5621 16.6171 29.5758C16.6181 29.6033 16.6201 29.6384 16.6235 29.68C16.6304 29.7629 16.6436 29.8738 16.6689 30.0036C16.7186 30.2596 16.8196 30.6114 17.0299 30.9718C17.4872 31.7559 18.3717 32.4197 19.8416 32.4197C21.3115 32.4197 22.196 31.7559 22.6533 30.9718C22.8635 30.6114 22.9645 30.2596 23.0143 30.0036C23.0396 29.8738 23.0527 29.7629 23.0596 29.68C23.0631 29.6384 23.065 29.6033 23.0661 29.5758C23.0667 29.5621 23.067 29.5502 23.0672 29.5402L23.0673 29.5268L23.0674 29.5213L23.0674 29.5188L23.0674 29.5176L23.0596 29.5758L23.0674 29.5159V27.2584C23.0674 26.9852 23.1903 26.5877 23.5108 26.0013C23.7788 25.511 24.1273 24.9868 24.5267 24.386C24.5967 24.2807 24.6683 24.173 24.7413 24.0628C25.6779 22.6479 26.815 20.863 27.0908 18.8408C27.188 18.1277 27.2337 17.4905 27.0862 16.6139ZM19.8538 12.9035C22.5755 12.8692 24.7579 14.4415 25.1776 16.9351C25.281 17.5494 25.2555 17.9745 25.173 18.5793C25.1217 18.9558 25.0295 19.3271 24.9054 19.6947C24.1813 19.6395 23.4136 19.7153 22.4794 19.9822L23.0111 21.8433C23.3746 21.7394 23.6925 21.6751 23.9814 21.6417C23.7163 22.0938 23.4257 22.5437 23.1274 22.9944C23.062 23.0932 22.9959 23.1925 22.9296 23.2922L22.928 23.2946L22.9249 23.2993L22.924 23.3006L22.924 23.3006C22.5276 23.8963 22.1243 24.5024 21.8125 25.073C21.4526 25.7315 21.1319 26.4833 21.1319 27.2584V29.5043L21.1308 29.5193C21.1289 29.5422 21.1245 29.5826 21.1144 29.6342C21.0936 29.7411 21.0535 29.8731 20.9815 29.9966C20.8743 30.1803 20.6297 30.4842 19.8416 30.4842C19.0534 30.4842 18.8089 30.1803 18.7017 29.9966C18.6297 29.8731 18.5895 29.7411 18.5688 29.6342C18.5587 29.5826 18.5542 29.5422 18.5523 29.5193C18.5518 29.5125 18.5514 29.5067 18.5513 29.5035V27.4197C18.5513 26.5506 18.2482 25.7497 17.8722 25.0341C17.5439 24.409 17.1189 23.7762 16.7133 23.1724L16.7133 23.1724L16.713 23.172C16.6584 23.0907 16.6042 23.01 16.5506 22.9298C16.2572 22.4912 15.9761 22.06 15.7247 21.6278C16.0503 21.6551 16.4113 21.7224 16.8342 21.8433L17.3659 19.9822C16.4 19.7063 15.6121 19.6346 14.8664 19.7008C14.7693 19.3564 14.7039 19.0044 14.6778 18.6409C14.6694 18.5236 14.6607 18.4148 14.6525 18.3122L14.6524 18.3116L14.6524 18.3112L14.6524 18.311C14.6112 17.7964 14.5823 17.4364 14.6668 16.9355C15.0808 14.4807 17.1733 12.9373 19.8538 12.9035ZM34.6804 8.71004C35.6469 8.66172 35.6469 8.66205 35.647 8.6624L35.6471 8.66489L35.6473 8.66926L35.6478 8.68155L35.6491 8.71996C35.6499 8.75157 35.6508 8.7951 35.651 8.84945C35.6513 8.95805 35.6491 9.11039 35.6392 9.2977C35.6196 9.6712 35.5693 10.1899 35.4465 10.7817C35.2035 11.9527 34.6601 13.486 33.4292 14.7169C32.7684 15.3777 31.7827 15.9955 31.0271 16.4247C30.6372 16.6461 30.2849 16.8304 30.0298 16.9595C29.902 17.0241 29.7979 17.0752 29.7251 17.1106C29.6886 17.1282 29.6599 17.142 29.6398 17.1515L29.6164 17.1627L29.6097 17.1658L29.6077 17.1667L29.6067 17.1672C29.6066 17.1672 29.6065 17.1673 29.1965 16.2907C28.8432 15.5352 28.7946 15.4307 28.7879 15.4162C28.7869 15.4139 28.7869 15.4139 28.7869 15.4139L28.7907 15.4121L28.8082 15.4038C28.8174 15.3994 28.8295 15.3937 28.8442 15.3866C28.855 15.3814 28.8672 15.3755 28.8807 15.369C28.9448 15.3379 29.039 15.2916 29.156 15.2324C29.3906 15.1137 29.7146 14.9443 30.0713 14.7417C30.8088 14.3229 31.5973 13.8117 32.0606 13.3483C32.9265 12.4824 33.3509 11.3545 33.5514 10.3884C33.6503 9.91161 33.6908 9.49284 33.7064 9.19597C33.7142 9.0481 33.7157 8.93205 33.7155 8.85605C33.7154 8.8181 33.7148 8.79027 33.7143 8.77361L33.7138 8.75776C33.7138 8.75806 33.7139 8.75837 34.6804 8.71004Z" fill="#172B4D"/>
</svg>
