<svg viewBox="0 0 24 24" fill="none" xmlns="http://www.w3.org/2000/svg">
<path d="M18 12C16.68 12 15.6 10.92 15.6 9.60001V4.80001H16.2C16.536 4.80001 16.8 4.53601 16.8 4.20001C16.8 3.86401 16.536 3.60001 16.2 3.60001H7.8C7.464 3.60001 7.2 3.86401 7.2 4.20001C7.2 4.53601 7.464 4.80001 7.8 4.80001H8.4V9.60001C8.4 10.92 7.32 12 6 12V13.2H11.4V19.8L12 20.4L12.6 19.8V13.2H18V12ZM8.676 12C9.252 11.364 9.6 10.524 9.6 9.60001V4.80001H14.4V9.60001C14.4 10.524 14.748 11.364 15.324 12H8.676Z" fill="#172B4D"/>
</svg>
