<svg viewBox="0 0 24 24" fill="none" xmlns="http://www.w3.org/2000/svg">
<path d="M6.1676 2.82833H7.83427V5.33333H6.58427C6.35427 5.33333 6.1676 5.52 6.1676 5.75V9.495L10.3343 9.47417V5.75C10.3343 5.52 10.1476 5.33333 9.9176 5.33333H8.6676V2.41667C8.6676 2.18667 8.48094 2 8.25094 2H6.1676C5.9376 2 5.75094 2.18667 5.75094 2.41667C5.75094 2.64667 5.9376 2.83333 6.1676 2.82833Z" fill="currentcolor"/>
<path d="M5.33354 14.5006C7.63104 14.5006 9.50021 16.3698 9.50021 18.6673C9.50021 18.9531 9.47104 19.2315 9.41521 19.4956H11.7377C11.3752 18.7415 11.1669 17.8956 11.1669 17.0006C11.1669 13.7848 13.7835 11.1673 17.0002 11.1673C19.1235 11.1673 20.9794 12.3115 22.0002 14.0115V6.58396C22.0002 5.43479 21.0652 4.50063 19.9169 4.50063H15.5285C14.4985 4.50063 13.6119 5.26979 13.466 6.28979L12.8885 10.334H6.58354C4.51604 10.334 2.83354 12.0165 2.83354 14.084V15.3548C3.53188 14.8265 4.39188 14.5006 5.33354 14.5006ZM15.2702 6.51563C15.3035 6.31479 15.4777 6.16729 15.681 6.16229H18.2502C18.4802 6.16729 18.6669 6.35396 18.6669 6.58396V9.07896C18.6669 9.30896 18.4802 9.49563 18.2502 9.49563H15.3335C15.0727 9.49563 14.8802 9.26146 14.9227 9.01063L15.2702 6.51563Z" fill="currentcolor"/>
<path d="M5.33333 15.3333C3.495 15.3333 2 16.8283 2 18.6667C2 20.505 3.495 21.995 5.33333 21.995C7.17167 21.995 8.66667 20.505 8.66667 18.6667C8.66667 16.8283 7.17167 15.3333 5.33333 15.3333ZM5.33333 19.9167C4.64417 19.9167 4.08333 19.3558 4.08333 18.6667C4.08333 17.9775 4.64417 17.4167 5.33333 17.4167C6.0225 17.4167 6.58333 17.9775 6.58333 18.6667C6.58333 19.3558 6.0225 19.9167 5.33333 19.9167Z" fill="currentcolor"/>
<path d="M17 12C14.2425 12 12 14.2425 12 17C12 19.7575 14.2425 21.995 17 21.995C19.7575 21.995 22 19.7567 22 17C22 14.2433 19.7575 12 17 12ZM17 19.0833C15.8517 19.0833 14.9167 18.1492 14.9167 17C14.9167 15.8508 15.8517 14.9167 17 14.9167C18.1483 14.9167 19.0833 15.8508 19.0833 17C19.0833 18.1492 18.1483 19.0833 17 19.0833Z" fill="currentcolor"/>
<circle cx="5" cy="19" r="2" fill="currentcolor"/>
</svg>
