<svg viewBox="0 0 24 24" xmlns="http://www.w3.org/2000/svg">
<path d="M21.0781 7.65565L12.575 4.11485C12.3922 4.03903 12.1963 4 11.9984 4C11.8006 4 11.6046 4.03903 11.4219 4.11485L2.92188 7.65565C2.36563 7.89003 2 8.43381 2 9.04009V19.75C2 19.8875 2.1125 20 2.25 20H4.75C4.8875 20 5 19.8875 5 19.75V11.9996C5 11.4496 5.45625 10.9996 6.01875 10.9996H17.9812C18.5437 10.9996 19 11.4496 19 11.9996V19.75C19 19.8875 19.1125 20 19.25 20H21.75C21.8875 20 22 19.8875 22 19.75V9.04009C22 8.43381 21.6344 7.89003 21.0781 7.65565Z" fill="currentcolor"/>
<rect x="6.16669" y="12.4211" width="3.33333" height="3.36842" rx="0.5" fill="currentcolor"/>
<rect x="10.4167" y="16.6316" width="3.33333" height="3.36842" rx="0.5" fill="currentcolor"/>
<rect x="14.6667" y="16.6316" width="3.33333" height="3.36842" rx="0.5" fill="currentcolor"/>
<rect x="10.4167" y="12.4211" width="3.33333" height="3.36842" rx="0.5" fill="currentcolor"/>
<rect x="6.16669" y="16.6316" width="3.33333" height="3.36842" rx="0.5" fill="currentcolor"/>
</svg>
