<svg width="28" height="20" viewBox="0 0 28 20" fill="none" xmlns="http://www.w3.org/2000/svg">
<rect width="28" height="20" rx="2" fill="#D01129"/>
<mask id="svg_mask_flags_imn" mask-type="alpha" maskUnits="userSpaceOnUse" x="0" y="0" width="28" height="20">
<rect width="28" height="20" rx="2" fill="white"/>
</mask>
<g mask="url(#svg_mask_flags_imn)">
<path fill-rule="evenodd" clip-rule="evenodd" d="M13.8881 10.0409C14.5491 10.0409 15.0849 9.47829 15.0849 8.78447C15.0849 8.09052 14.5491 7.52795 13.8881 7.52795C13.2272 7.52795 12.6915 8.09052 12.6915 8.78447C12.6915 9.47829 13.2272 10.0409 13.8881 10.0409Z" fill="#FFF101"/>
<path fill-rule="evenodd" clip-rule="evenodd" d="M12.7973 8.27931C13.1362 8.16579 13.5759 8.2979 13.8652 8.5894C14.1723 8.53069 14.4802 8.12579 14.5756 7.7653C14.4708 6.56738 13.7244 5.65986 13.4975 5.03711C13.4257 4.84029 13.093 4.53081 12.747 4.67491C12.4625 4.79344 12.3186 4.70121 11.363 5.20164C10.8463 5.47222 10.4114 5.75014 10.1822 5.79858C9.95294 5.84702 9.71108 5.8902 9.5277 5.73937C9.27546 5.53191 8.99259 5.47454 8.82599 5.31821C8.62187 5.12665 8.49092 4.98206 8.35286 4.92347C8.2148 4.86475 7.9811 4.99515 8.07977 5.30549C8.30242 6.00641 8.82727 6.11992 9.05259 6.77509C9.15896 7.08482 9.31018 7.3176 9.64816 7.08286C9.98614 6.84812 10.4638 6.53631 11.2782 6.50353C11.8251 6.48139 12.3902 6.27026 12.6499 5.92384C12.6473 6.22353 12.748 6.46916 12.7214 6.85901C12.695 7.24897 12.6992 7.73399 12.7973 8.27931Z" fill="white"/>
<path fill-rule="evenodd" clip-rule="evenodd" d="M13.438 8.31217C13.3376 7.72244 13.5197 7.63743 13.3023 6.94617C13.1715 6.53051 13.088 6.00954 13.0859 5.76709L12.9985 5.79376C13.0006 6.0362 13.0843 6.5573 13.2149 6.97296C13.4252 7.64134 13.2617 7.74287 13.3416 8.2822C13.3663 8.28746 13.4182 8.30483 13.438 8.31217Z" fill="#FFF101"/>
<path fill-rule="evenodd" clip-rule="evenodd" d="M12.5192 5.50802C12.2806 5.86974 11.7106 6.1194 11.1837 6.17457C10.5669 6.23915 10.1529 6.45469 9.84797 6.6657C9.82176 6.61616 9.77445 6.58949 9.73263 6.55683C9.28653 6.20992 9.46991 5.73983 9.63884 5.80698C9.57511 5.78105 9.53807 5.74607 9.50323 5.71977C9.44428 5.67389 9.27418 5.84967 9.2955 6.12882C9.30459 6.24772 9.40152 6.42313 9.4804 6.5161C9.3364 6.48857 9.26743 6.44992 9.18284 6.34264C9.23038 6.31157 9.29189 6.29396 9.34152 6.28992C9.32463 6.24735 9.3011 6.20013 9.2955 6.12882C9.22502 6.12821 9.13904 6.15402 9.06529 6.20662C8.88832 6.02154 8.70611 5.87389 8.60044 5.65542C8.43139 5.30545 8.60335 5.08454 8.82599 5.31818C8.62187 5.12662 8.49092 4.98203 8.35286 4.92344C8.2148 4.86472 7.9811 4.99512 8.07977 5.30545C8.30242 6.00637 8.82727 6.11989 9.05259 6.77506C9.15896 7.08478 9.31577 7.32613 9.64816 7.08282C9.69197 7.05078 9.70362 7.04319 9.74172 7.01481C9.84715 6.95084 10.0142 7.05824 9.9964 7.29175C10.0818 7.07732 10.0273 7.01163 9.9548 6.88307C9.90121 6.91304 9.90552 6.7375 9.87244 6.71438C10.0621 6.59059 10.2928 6.46643 10.5838 6.37799C10.5945 6.48282 10.622 6.59414 10.7139 6.57799C10.7632 6.56649 10.8132 6.5561 10.8658 6.54692C10.7738 6.56307 10.748 6.44123 10.7374 6.33652C10.8753 6.30325 11.0261 6.27805 11.1913 6.26386C11.3816 6.24747 11.5784 6.20686 11.7632 6.14386C11.7907 6.24441 11.8475 6.41383 11.9423 6.38056C12.0263 6.3523 12.1079 6.32038 12.1846 6.28331C12.0528 6.34925 12.001 6.16099 11.9693 6.06142C12.2101 5.95145 12.4153 5.80148 12.5379 5.62252L12.5192 5.50802Z" fill="#FFF101"/>
<path fill-rule="evenodd" clip-rule="evenodd" d="M13.5732 5.68759C13.6894 5.59291 13.7893 5.54814 13.689 5.34765C13.5249 5.01982 13.6269 5.0187 13.2677 4.81014C12.9018 4.59803 12.9481 4.58139 12.464 4.76059C12.3449 4.80463 12.3715 4.84965 12.3924 5.03093C12.4372 5.42163 12.5225 5.73627 12.6004 6.05773C12.9047 6.01602 13.3729 5.85089 13.5732 5.68759Z" fill="#FFF101"/>
<path fill-rule="evenodd" clip-rule="evenodd" d="M12.4375 5.59881C12.3737 5.407 12.3908 5.43306 12.6222 5.49153C12.6979 5.23869 12.8025 5.02528 12.8611 4.82063C12.9266 4.59152 12.9471 4.5503 13.0435 4.60644C13.1667 4.67813 13.3021 4.75384 13.3903 4.79935C13.5443 4.87861 13.5216 4.90638 13.4481 5.03238C13.3746 5.15837 13.1341 5.41373 12.9858 5.68015C13.1814 5.82474 13.2442 5.83783 13.1052 5.90009C12.9497 5.9697 12.6913 6.05593 12.5825 6.07636C12.5626 5.95049 12.4982 5.78071 12.4375 5.59881Z" fill="#FFF101"/>
<path fill-rule="evenodd" clip-rule="evenodd" d="M10.1409 7.40245L10.1255 7.59975L9.98701 7.46764L9.83206 7.5781L9.84231 7.38116L9.66394 7.32453L9.81633 7.20979L9.74911 7.02679L9.92794 7.08159L10.0224 6.91217L10.0942 7.09309L10.2787 7.06385L10.1883 7.23645L10.3244 7.36979L10.1409 7.40245Z" fill="#FFF101"/>
<path fill-rule="evenodd" clip-rule="evenodd" d="M14.0169 10.029C13.7538 9.7775 13.6428 9.31169 13.7387 8.90288C13.5367 8.65309 13.0488 8.57542 12.7037 8.66887C11.768 9.36331 11.3927 10.4957 10.9925 11.0135C10.8659 11.1771 10.7771 11.6343 11.069 11.8769C11.309 12.0763 11.3049 12.2532 12.1954 12.8719C12.6769 13.2065 13.1236 13.463 13.2782 13.6472C13.4329 13.8314 13.5894 14.0299 13.5566 14.2719C13.5117 14.605 13.6057 14.891 13.5601 15.1205C13.5041 15.4018 13.4504 15.5933 13.471 15.7481C13.4917 15.903 13.716 16.0503 13.9227 15.8054C14.3894 15.2525 14.2207 14.7185 14.6485 14.1861C14.8506 13.9344 14.9672 13.6805 14.6046 13.4905C14.2419 13.3007 13.7459 13.0221 13.3116 12.2982C13.02 11.812 12.5633 11.4036 12.1476 11.3407C12.3961 11.1933 12.5485 10.9788 12.8833 10.808C13.2182 10.6371 13.6162 10.391 14.0169 10.029Z" fill="white"/>
<path fill-rule="evenodd" clip-rule="evenodd" d="M13.7236 9.42999C13.2875 9.81617 13.1262 9.69299 12.6648 10.2364C12.3874 10.5631 11.9994 10.8996 11.8004 11.0227L11.8661 11.0887C12.0651 10.9657 12.4531 10.6291 12.7306 10.3024C13.1768 9.77703 13.3422 9.87489 13.7472 9.5325C13.7392 9.50755 13.7274 9.45164 13.7236 9.42999Z" fill="#FFF101"/>
<path fill-rule="evenodd" clip-rule="evenodd" d="M13.9275 9.93017C13.8654 9.96699 13.803 10.0103 13.753 10.054C13.6442 9.9336 13.6356 9.61971 13.548 9.68198C13.52 9.7013 13.4247 9.75513 13.3739 9.78326C13.4534 9.73935 13.5052 10.1515 13.5706 10.1883C13.3214 10.4214 12.9883 10.5216 12.8376 10.6782C12.7475 10.5845 12.6983 10.3422 12.6291 10.4174C12.5945 10.4573 12.5038 10.5484 12.4475 10.6064C12.5071 10.5469 12.539 10.7439 12.6086 10.7747C12.4709 10.8963 12.2026 11.1144 12.069 11.1943L12.1476 11.3407C12.3961 11.1933 12.5485 10.9789 12.8833 10.808C13.2182 10.6371 13.6162 10.391 14.0169 10.029C13.9905 10.0025 13.9501 9.95684 13.9275 9.93017Z" fill="#FFF101"/>
<path fill-rule="evenodd" clip-rule="evenodd" d="M11.8701 11.6674C12.2878 11.7035 12.7786 12.0969 13.0876 12.5485C13.4492 13.0771 13.8342 13.3457 14.1606 13.5174C14.1329 13.5661 14.1345 13.6224 14.1286 13.6768C14.0654 14.2559 13.586 14.3242 13.5569 14.137C13.5674 14.208 13.557 14.2591 13.5528 14.304C13.5444 14.3806 13.7745 14.4472 13.994 14.2883C14.0876 14.2206 14.1837 14.0448 14.2211 13.9266C14.2702 14.0712 14.2728 14.1533 14.2268 14.2838C14.1773 14.2562 14.1321 14.2089 14.1039 14.166C14.0772 14.2026 14.05 14.2476 13.994 14.2883C14.0287 14.3528 14.093 14.418 14.1733 14.4587C14.1091 14.7122 14.0785 14.9517 13.951 15.157C13.747 15.4856 13.4787 15.4398 13.5601 15.1205C13.5041 15.4018 13.4504 15.5933 13.471 15.7481C13.4917 15.903 13.716 16.0503 13.9227 15.8054C14.3894 15.2525 14.2207 14.7185 14.6485 14.1861C14.8507 13.9344 14.9715 13.6712 14.6046 13.4905C14.5561 13.4668 14.5441 13.4601 14.5017 13.4395C14.3962 13.3757 14.4013 13.17 14.6027 13.0695C14.3832 13.0991 14.3563 13.1815 14.2865 13.3117C14.3379 13.3453 14.191 13.4292 14.1884 13.471C13.9916 13.3604 13.7739 13.2127 13.5554 12.9922C13.6366 12.9302 13.7146 12.8494 13.6552 12.774C13.6211 12.7349 13.5875 12.6946 13.5536 12.6514C13.613 12.727 13.5255 12.8113 13.4443 12.8734C13.348 12.7647 13.2519 12.6401 13.1575 12.497C13.0488 12.332 12.9169 12.1735 12.7726 12.037C12.8418 11.9616 12.953 11.8253 12.8782 11.7557C12.813 11.6935 12.7458 11.6351 12.6769 11.5841C12.7971 11.671 12.6677 11.8122 12.6015 11.8908C12.3903 11.7269 12.1641 11.6152 11.9552 11.5933L11.8701 11.6674Z" fill="#FFF101"/>
<path fill-rule="evenodd" clip-rule="evenodd" d="M11.3218 10.6978C11.1854 10.6394 11.2527 10.5605 11.1375 10.752C10.9491 11.065 10.9127 10.9929 10.9204 11.4239C10.9282 11.8624 11.0093 11.7924 11.3992 12.143C11.699 11.9071 12.0568 11.5504 12.2829 11.3187C12.0964 11.0629 11.5565 10.7984 11.3218 10.6978Z" fill="#FFF101"/>
<path fill-rule="evenodd" clip-rule="evenodd" d="M11.9858 11.6963C11.8595 11.8503 11.8725 11.8218 11.805 11.582C11.5586 11.6395 11.3685 11.7059 11.1706 11.755C10.9488 11.8099 10.9046 11.8119 10.9026 11.6963C10.9002 11.5482 10.8951 11.3874 10.8884 11.2844C10.8769 11.1048 10.911 11.1114 11.0518 11.1153C11.1925 11.1191 11.4849 11.1555 11.7788 11.1571C11.8002 10.9069 11.7796 10.8433 11.9006 10.9386C12.0356 11.0451 12.236 11.2371 12.3073 11.3257C12.2134 11.4067 12.1056 11.5502 11.9858 11.6963Z" fill="#FFF101"/>
<path fill-rule="evenodd" clip-rule="evenodd" d="M14.6219 12.8829L14.7924 12.7982L14.7526 12.9901L14.9213 13.0758L14.7537 13.1649L14.7961 13.3555L14.6252 13.2743L14.5079 13.4269L14.4637 13.2368L14.2767 13.2356L14.3902 13.08L14.2737 12.9269L14.4614 12.9227L14.5033 12.7324L14.6219 12.8829Z" fill="#FFF101"/>
<path fill-rule="evenodd" clip-rule="evenodd" d="M14.8503 8.04514C14.7745 8.41003 14.4457 8.74385 14.0606 8.86116C13.9555 9.16967 14.1354 9.65199 14.3851 9.91927C15.4256 10.4228 16.5474 10.1979 17.1745 10.3029C17.3728 10.336 17.7944 10.1883 17.8485 9.80159C17.893 9.48367 18.0409 9.39902 18.106 8.27988C18.1412 7.67474 18.1294 7.14031 18.2041 6.90765C18.2788 6.67499 18.3642 6.4334 18.5802 6.34214C18.8774 6.21652 19.0662 5.98789 19.2785 5.91462C19.5384 5.82483 19.7232 5.77798 19.8405 5.68184C19.958 5.58569 19.9673 5.30801 19.662 5.24257C18.9726 5.09456 18.6165 5.51499 17.9634 5.39217C17.6548 5.33419 17.3871 5.35511 17.4118 5.77994C17.4365 6.20465 17.4547 6.79486 17.0747 7.55168C16.8194 8.06006 16.711 8.67951 16.8669 9.08893C16.621 8.93664 16.368 8.90532 16.0597 8.68636C15.7513 8.46728 15.3493 8.22863 14.8503 8.04514Z" fill="white"/>
<path fill-rule="evenodd" clip-rule="evenodd" d="M14.5028 8.6113C15.0394 8.81472 15.0185 9.02292 15.6973 9.17093C16.1056 9.25986 16.5771 9.44432 16.7781 9.56371L16.7997 9.47087C16.5987 9.35148 16.1271 9.16714 15.719 9.07809C15.0625 8.93497 15.0605 8.73558 14.5756 8.53851C14.5591 8.55845 14.5188 8.59698 14.5028 8.6113Z" fill="#FFF101"/>
<path fill-rule="evenodd" clip-rule="evenodd" d="M14.8134 8.17581C14.8749 8.21385 14.9418 8.24884 15.0027 8.27257C14.958 8.43159 14.7033 8.59648 14.7985 8.64504C14.8284 8.66082 14.9203 8.72052 14.9689 8.75257C14.8931 8.70229 15.2069 8.44908 15.2047 8.37116C15.5217 8.48125 15.7708 8.7341 15.9754 8.79293C15.9432 8.92162 15.7678 9.08749 15.8645 9.11281C15.9147 9.12431 16.0353 9.16125 16.1112 9.18339C16.0324 9.15893 16.1789 9.03147 16.1695 8.95281C16.3387 9.01715 16.6526 9.15208 16.7853 9.23367L16.8668 9.08896C16.621 8.93666 16.3679 8.90535 16.0596 8.68639C15.7512 8.46731 15.3492 8.22865 14.8502 8.04517C14.8416 8.08235 14.8241 8.14192 14.8134 8.17581Z" fill="#FFF101"/>
<path fill-rule="evenodd" clip-rule="evenodd" d="M17.2751 9.17786C17.096 8.78006 17.1751 8.137 17.3932 7.63022C17.6483 7.03707 17.6775 6.55278 17.6558 6.17015C17.7099 6.17113 17.7554 6.14141 17.8034 6.11963C18.3125 5.88759 18.6086 6.2893 18.4686 6.4093C18.522 6.36428 18.5694 6.34826 18.6085 6.32967C18.6758 6.29884 18.6158 6.05639 18.375 5.93627C18.2723 5.88502 18.0793 5.88551 17.963 5.91058C18.0579 5.79352 18.1241 5.75022 18.2549 5.72685C18.2568 5.78569 18.2405 5.8504 18.2191 5.89749C18.2627 5.90337 18.3133 5.90557 18.375 5.93627C18.4107 5.87242 18.4324 5.78141 18.4259 5.68795C18.6671 5.6197 18.8799 5.52783 19.1129 5.54104C19.4861 5.5622 19.5824 5.82911 19.2785 5.91462C19.5384 5.82483 19.7232 5.77798 19.8405 5.68184C19.9579 5.58569 19.9673 5.30801 19.662 5.24257C18.9725 5.09456 18.6165 5.51499 17.9634 5.39217C17.6547 5.33419 17.3772 5.35597 17.4117 5.77994C17.4163 5.83584 17.4167 5.85015 17.421 5.89896C17.421 6.02691 17.249 6.12502 17.0653 5.99205C17.1994 6.177 17.2809 6.16025 17.4231 6.15866C17.4252 6.09493 17.5678 6.18655 17.6035 6.16808C17.6108 6.40245 17.5978 6.67425 17.5252 6.98312C17.4334 6.94043 17.3279 6.90973 17.2952 7.00147C17.2801 7.05199 17.2636 7.10263 17.245 7.15499C17.2776 7.06324 17.391 7.1008 17.4827 7.14349C17.4412 7.28551 17.3866 7.43523 17.3157 7.59254C17.2339 7.77382 17.1692 7.97297 17.1287 8.1726C17.032 8.14728 16.8639 8.11425 16.8439 8.21713C16.8252 8.30752 16.8107 8.3978 16.803 8.486C16.8145 8.33321 16.9957 8.38019 17.0937 8.4011C17.0641 8.67511 17.085 8.93664 17.1714 9.13774L17.2751 9.17786Z" fill="#FFF101"/>
<path fill-rule="evenodd" clip-rule="evenodd" d="M16.5586 10.0094C16.5786 10.1626 16.5656 10.2757 16.7811 10.2847C17.1335 10.2995 17.1049 10.3451 17.4565 10.1227C17.8143 9.8963 17.8238 9.94101 17.9181 9.41122C17.9412 9.28095 17.8908 9.28254 17.7308 9.21085C17.3863 9.05624 17.0852 9.0668 16.7811 8.97689C16.6633 9.2745 16.5241 9.74572 16.5586 10.0094Z" fill="#FFF101"/>
<path fill-rule="evenodd" clip-rule="evenodd" d="M17.2411 9.05839C17.4313 9.09606 17.4013 9.09863 17.2373 9.27992C17.408 9.47515 17.5387 9.61251 17.6782 9.7681C17.8345 9.94229 17.8581 9.98144 17.7637 10.041C17.6429 10.1172 17.5129 10.2024 17.4312 10.26C17.2888 10.3603 17.2772 10.3258 17.21 10.1959C17.1428 10.0661 17.0454 9.78414 16.8999 9.51625C16.6828 9.62169 16.6406 9.67233 16.6588 9.51478C16.6792 9.33863 16.7373 9.06047 16.7748 8.95135C16.8885 8.99613 17.0607 9.02243 17.2411 9.05839Z" fill="#FFF101"/>
<path fill-rule="evenodd" clip-rule="evenodd" d="M16.9018 6.06814L16.7467 5.95548L16.925 5.89554L16.9112 5.69933L17.0685 5.80722L17.2046 5.6734L17.223 5.86936L17.4075 5.8997L17.2728 6.03499L17.3653 6.20551L17.1802 6.18019L17.1121 6.3627L17.0149 6.19413L16.8369 6.25126L16.9018 6.06814Z" fill="#FFF101"/>
</g>
</svg>
