<svg width="28" height="20" viewBox="0 0 28 20" fill="none" xmlns="http://www.w3.org/2000/svg">
<rect width="28" height="20" rx="2" fill="white"/>
<mask id="svg_mask_flags_png" mask-type="alpha" maskUnits="userSpaceOnUse" x="0" y="0" width="28" height="20">
<rect width="28" height="20" rx="2" fill="white"/>
</mask>
<g mask="url(#svg_mask_flags_png)">
<rect width="28" height="20" fill="#262626"/>
<path fill-rule="evenodd" clip-rule="evenodd" d="M0 0H28V20L0 0Z" fill="#E8283F"/>
<path fill-rule="evenodd" clip-rule="evenodd" d="M6.66671 16.6667L5.7239 16.9428L6.00004 16L5.7239 15.0572L6.66671 15.3333L7.60952 15.0572L7.33337 16L7.60952 16.9428L6.66671 16.6667Z" fill="white"/>
<path fill-rule="evenodd" clip-rule="evenodd" d="M6.66671 8.66666L5.7239 8.9428L6.00004 7.99999L5.7239 7.05718L6.66671 7.33332L7.60952 7.05718L7.33337 7.99999L7.60952 8.9428L6.66671 8.66666Z" fill="white"/>
<path fill-rule="evenodd" clip-rule="evenodd" d="M3.33333 12L2.39052 12.2761L2.66667 11.3333L2.39052 10.3905L3.33333 10.6667L4.27614 10.3905L4 11.3333L4.27614 12.2761L3.33333 12Z" fill="white"/>
<path fill-rule="evenodd" clip-rule="evenodd" d="M9.33333 11.3333L8.39052 11.6095L8.66667 10.6667L8.39052 9.72387L9.33333 10L10.2761 9.72387L10 10.6667L10.2761 11.6095L9.33333 11.3333Z" fill="white"/>
<path fill-rule="evenodd" clip-rule="evenodd" d="M18.8613 9.26556C18.7017 9.16979 18.5723 8.94419 18.5723 8.7637L18.5723 7.53498C18.5723 7.35358 18.4418 7.25004 18.2443 7.31587L17.4861 7.5686C17.3049 7.62898 17.0275 7.63443 16.8301 7.5686L16.0718 7.31587C15.8907 7.25548 15.8706 7.1305 16.0329 7.03312L17.8118 5.96573C17.9715 5.86996 18.0574 5.66181 17.9915 5.46431L17.7388 4.70611C17.6784 4.52496 17.76 4.42161 17.9575 4.48744L18.7157 4.74017C18.8968 4.80056 19.1197 4.72278 19.2171 4.56049L20.2845 2.7815C20.3802 2.62188 20.5014 2.623 20.5672 2.82049L20.82 3.5787C20.8803 3.75985 20.8858 4.03721 20.82 4.2347L20.5672 4.99291C20.5068 5.17406 20.6058 5.32091 20.7863 5.32091H22.0151C22.1965 5.32091 22.4195 5.44764 22.5169 5.60993L23.5843 7.38892C23.6801 7.54854 23.6031 7.70887 23.43 7.74348L21.7284 8.08379C21.5474 8.11999 21.3698 8.30399 21.3351 8.47707L20.9948 10.1786C20.9586 10.3596 20.8026 10.4303 20.6403 10.333L18.8613 9.26556Z" fill="#FFD84E"/>
</g>
</svg>
