<svg width="28" height="20" viewBox="0 0 28 20" fill="none" xmlns="http://www.w3.org/2000/svg">
<rect x="0.25" y="0.25" width="27.5" height="19.5" rx="1.75" fill="white" stroke="#F5F5F5" stroke-width="0.5"/>
<mask id="svg_mask_flags_pyf" mask-type="alpha" maskUnits="userSpaceOnUse" x="0" y="0" width="28" height="20">
<rect x="0.25" y="0.25" width="27.5" height="19.5" rx="1.75" fill="white" stroke="white" stroke-width="0.5"/>
</mask>
<g mask="url(#svg_mask_flags_pyf)">
<path fill-rule="evenodd" clip-rule="evenodd" d="M0 5.33333H28V0H0V5.33333Z" fill="#D82332"/>
<path fill-rule="evenodd" clip-rule="evenodd" d="M0 20H28V14.6667H0V20Z" fill="#D82332"/>
<path fill-rule="evenodd" clip-rule="evenodd" d="M13.0675 10.7527L12.7831 11.018C13.0402 11.0901 13.3969 11.0061 13.539 10.7527H13.0675Z" fill="#064A89"/>
<path fill-rule="evenodd" clip-rule="evenodd" d="M10.7725 10.9334C10.9649 11.1259 11.2838 11.1034 11.4763 10.9816C11.6689 10.8597 11.8103 10.8519 11.9303 10.8647C11.943 10.9733 11.9714 11.1126 12.0201 11.2502H10.8782C10.8498 11.1797 10.7945 11.0152 10.7725 10.9334Z" fill="#064A89"/>
<path fill-rule="evenodd" clip-rule="evenodd" d="M10.9841 11.4478C11.2083 11.3419 11.4374 11.4259 11.5365 11.5022C11.7196 11.6434 12.022 11.6051 12.1704 11.525C12.227 11.6174 12.2958 11.7083 12.3787 11.7776H11.1569C11.1073 11.6975 11 11.5006 10.9841 11.4478Z" fill="#064A89"/>
<path fill-rule="evenodd" clip-rule="evenodd" d="M16.298 12.3249C16.3517 12.2704 16.4243 12.1806 16.4717 12.1165C16.3927 12.1068 16.301 12.0497 16.2034 12.001C16.0234 11.9111 15.8515 11.9111 15.6983 12.017C15.4711 12.1741 15.187 12.2126 14.9661 12.0555C14.7236 11.8831 14.499 11.9208 14.3096 12.03C14.1201 12.1389 14.0002 12.1453 13.8866 12.1453C13.7729 12.1453 13.653 12.1389 13.4636 12.03C13.2742 11.9208 13.0496 11.8831 12.8071 12.0555C12.5862 12.2126 12.302 12.1741 12.0748 12.017C11.9217 11.9111 11.7498 11.9111 11.5698 12.001C11.4721 12.0497 11.3805 12.1068 11.3015 12.1165C11.3489 12.1806 11.4215 12.2704 11.4752 12.3249H16.298Z" fill="#064A89"/>
<path fill-rule="evenodd" clip-rule="evenodd" d="M15.7067 12.8612C15.7571 12.8292 15.8961 12.7234 15.9655 12.6688C15.8897 12.6849 15.717 12.6286 15.6278 12.5822C15.3689 12.4474 15.1985 12.4603 15.006 12.5629C14.8134 12.6656 14.542 12.7201 14.3432 12.6111C14.1443 12.5021 14.0022 12.4731 13.8981 12.4731C13.794 12.4731 13.6519 12.5021 13.453 12.6111C13.2542 12.7201 12.9828 12.6656 12.7902 12.5629C12.5977 12.4603 12.4273 12.4474 12.1684 12.5822C12.0792 12.6286 11.9065 12.6849 11.8307 12.6688C11.9001 12.7234 12.039 12.8292 12.0895 12.8612H15.7067Z" fill="#064A89"/>
<path fill-rule="evenodd" clip-rule="evenodd" d="M14.5683 11.7951C14.5147 11.7663 14.4519 11.6991 14.3947 11.6128C14.3031 11.4749 14.158 11.3979 13.9402 11.3979C13.7224 11.3979 13.5772 11.4749 13.4857 11.6128C13.4284 11.6991 13.3657 11.7663 13.3121 11.7951H14.5683Z" fill="#064A89"/>
<path fill-rule="evenodd" clip-rule="evenodd" d="M14.2104 11.2999C14.1883 11.2614 14.141 11.1395 14.1252 11.0753C14.0746 11.0914 13.9768 11.0978 13.92 11.0978C13.8632 11.0978 13.7654 11.0914 13.7148 11.0753C13.6991 11.1395 13.6518 11.2614 13.6296 11.2999H14.2104Z" fill="#064A89"/>
<path fill-rule="evenodd" clip-rule="evenodd" d="M14.736 10.7527L15.0204 11.018C14.7633 11.0901 14.4065 11.0061 14.2645 10.7527H14.736Z" fill="#064A89"/>
<path fill-rule="evenodd" clip-rule="evenodd" d="M17.0994 10.9334C16.9069 11.1259 16.5881 11.1034 16.3956 10.9816C16.203 10.8597 16.0615 10.8519 15.9415 10.8647C15.9287 10.9733 15.9005 11.1126 15.8518 11.2502H16.9937C17.0221 11.1797 17.0773 11.0152 17.0994 10.9334Z" fill="#064A89"/>
<path fill-rule="evenodd" clip-rule="evenodd" d="M16.9289 11.4478C16.7048 11.3419 16.4757 11.4259 16.3765 11.5022C16.1935 11.6434 15.891 11.6051 15.7427 11.525C15.686 11.6174 15.6173 11.7083 15.5343 11.7776H16.7561C16.8057 11.6975 16.9131 11.5006 16.9289 11.4478Z" fill="#064A89"/>
<path fill-rule="evenodd" clip-rule="evenodd" d="M15.1588 13.0716C14.7761 13.2303 14.3572 13.3179 13.9183 13.3179C13.4789 13.3179 13.0603 13.2304 12.6772 13.0714C12.7593 13.0618 12.8679 13.0216 12.9556 12.972C13.0977 12.8918 13.3564 12.8758 13.4796 12.956C13.6026 13.0362 13.751 13.1163 13.9183 13.1163C14.0856 13.1163 14.234 13.0362 14.357 12.956C14.4801 12.8758 14.7389 12.8918 14.8811 12.972C14.9686 13.0216 15.0767 13.062 15.1588 13.0716Z" fill="#064A89"/>
<path fill-rule="evenodd" clip-rule="evenodd" d="M14.6251 6.72694C13.9339 6.58264 13.3121 6.66597 13.3121 7.32673C13.3121 7.97458 13.3121 8.93673 13.3121 9.13565C13.3121 9.33447 13.316 9.35963 13.5489 9.41468C14.0538 9.53415 14.1011 9.54619 14.6503 9.67436V7.81425C14.2211 7.76608 14.057 7.52135 14.057 7.23694C14.057 6.96114 14.2463 6.78146 14.6251 6.72694Z" fill="#514537"/>
<path fill-rule="evenodd" clip-rule="evenodd" d="M12.8538 11.8285C12.4687 11.8285 12.0647 11.4885 12.0647 10.8407C12.0647 10.1927 12.0647 9.3781 12.0647 9.23057C12.0647 9.08466 12.0809 9.06412 12.0473 9.03014C12.0276 9.01014 12.0694 8.98046 12.0978 8.95154C12.1404 8.9082 12.1697 8.87218 12.1121 8.81358C12.0544 8.75509 12.079 8.73982 12.1153 8.70304C12.1516 8.66605 12.1657 8.62928 12.131 8.5939C12.0963 8.55863 12.0884 8.54745 12.1263 8.50896C12.1642 8.47046 12.1484 8.45444 12.1168 8.42229C12.0852 8.39025 12.0703 8.36702 12.1105 8.32616C12.15 8.28605 12.153 8.2796 12.1989 8.2796C12.2447 8.2796 12.344 8.2796 12.3883 8.2796C12.4325 8.2796 12.4333 8.29326 12.3961 8.331C12.348 8.37982 12.3338 8.39906 12.3883 8.45444C12.4427 8.50971 12.4403 8.5282 12.4056 8.56347C12.3535 8.61638 12.3306 8.65251 12.3835 8.70627C12.4364 8.75992 12.4411 8.78401 12.4009 8.82487C12.3607 8.86573 12.3566 8.90186 12.4009 8.9467C12.4348 8.98122 12.4372 9.00132 12.4372 9.06218C12.4372 9.42949 12.4372 10.4301 12.4372 10.7059C12.4372 10.9818 12.6328 11.1485 13.0053 11.1485C13.3778 11.1485 13.504 10.9945 13.6113 10.892C13.5419 11.3858 13.3399 11.8285 12.8538 11.8285Z" fill="#514537"/>
<path fill-rule="evenodd" clip-rule="evenodd" d="M13.9406 10.255C13.9926 10.2709 14.0431 10.3479 14.0431 10.4313H14.1458C14.1458 10.3608 14.1157 10.2518 14.0613 10.1843C14.0605 10.1667 14.0581 10.1515 14.0542 10.1363C14.0921 10.0881 14.1473 10.0111 14.1458 9.93736C14.1447 9.8908 14.0905 9.89252 14.0842 9.9294C14.079 9.95972 14.059 10.0064 14.0211 10.0224C14.0211 9.96305 13.9879 9.89252 13.9406 9.89252C13.8933 9.89252 13.86 9.96305 13.86 10.0224C13.8222 10.0064 13.8022 9.95972 13.797 9.9294C13.7906 9.89252 13.7363 9.8908 13.7354 9.93736C13.7338 10.0111 13.789 10.0881 13.8269 10.1363C13.823 10.1515 13.8207 10.1667 13.8198 10.1843C13.7654 10.2518 13.7354 10.3608 13.7354 10.4313H13.838C13.838 10.3479 13.8885 10.2709 13.9406 10.255Z" fill="#514537"/>
<path fill-rule="evenodd" clip-rule="evenodd" d="M13.4115 10.255C13.4636 10.2709 13.5142 10.3479 13.5142 10.4313H13.6167C13.6167 10.3608 13.5868 10.2518 13.5323 10.1843C13.5315 10.1667 13.5291 10.1515 13.5252 10.1363C13.5631 10.0881 13.6183 10.0111 13.6167 9.93736C13.6158 9.8908 13.5615 9.89252 13.5551 9.9294C13.5499 9.95972 13.5298 10.0064 13.492 10.0224C13.492 9.96305 13.4589 9.89252 13.4115 9.89252C13.3642 9.89252 13.3311 9.96305 13.3311 10.0224C13.2932 10.0064 13.2731 9.95972 13.2679 9.9294C13.2616 9.89252 13.2074 9.8908 13.2063 9.93736C13.2047 10.0111 13.26 10.0881 13.2979 10.1363C13.294 10.1515 13.2916 10.1667 13.2908 10.1843C13.2364 10.2518 13.2063 10.3608 13.2063 10.4313H13.309C13.309 10.3479 13.3595 10.2709 13.4115 10.255Z" fill="#514537"/>
<path fill-rule="evenodd" clip-rule="evenodd" d="M12.8825 10.255C12.9345 10.2709 12.985 10.3479 12.985 10.4313H13.0876C13.0876 10.3608 13.0576 10.2518 13.0032 10.1843C13.0024 10.1667 13 10.1515 12.9961 10.1363C13.034 10.0881 13.0892 10.0111 13.0876 9.93736C13.0866 9.8908 13.0324 9.89252 13.0261 9.9294C13.0209 9.95972 13.0008 10.0064 12.9629 10.0224C12.9629 9.96305 12.9298 9.89252 12.8825 9.89252C12.8351 9.89252 12.8019 9.96305 12.8019 10.0224C12.7641 10.0064 12.7441 9.95972 12.7389 9.9294C12.7325 9.89252 12.6782 9.8908 12.6773 9.93736C12.6757 10.0111 12.7309 10.0881 12.7688 10.1363C12.7649 10.1515 12.7625 10.1667 12.7617 10.1843C12.7072 10.2518 12.6773 10.3608 12.6773 10.4313H12.7798C12.7798 10.3479 12.8304 10.2709 12.8825 10.255Z" fill="#514537"/>
<path fill-rule="evenodd" clip-rule="evenodd" d="M14.4697 10.255C14.4177 10.2709 14.3672 10.3479 14.3672 10.4313H14.2646C14.2646 10.3608 14.2945 10.2518 14.349 10.1843C14.3497 10.1667 14.3522 10.1515 14.3562 10.1363C14.3182 10.0881 14.263 10.0111 14.2646 9.93736C14.2656 9.8908 14.3198 9.89252 14.3261 9.9294C14.3313 9.95972 14.3514 10.0064 14.3892 10.0224C14.3892 9.96305 14.4224 9.89252 14.4697 9.89252C14.5172 9.89252 14.5503 9.96305 14.5503 10.0224C14.5881 10.0064 14.6082 9.95972 14.6133 9.9294C14.6197 9.89252 14.6739 9.8908 14.6749 9.93736C14.6765 10.0111 14.6213 10.0881 14.5834 10.1363C14.5873 10.1515 14.5897 10.1667 14.5905 10.1843C14.645 10.2518 14.6749 10.3608 14.6749 10.4313H14.5723C14.5723 10.3479 14.5218 10.2709 14.4697 10.255Z" fill="#514537"/>
<path fill-rule="evenodd" clip-rule="evenodd" d="M14.9988 10.255C14.9467 10.2709 14.8963 10.3479 14.8963 10.4313H14.7936C14.7936 10.3608 14.8237 10.2518 14.8781 10.1843C14.8789 10.1667 14.8812 10.1515 14.8851 10.1363C14.8473 10.0881 14.792 10.0111 14.7936 9.93736C14.7946 9.8908 14.8489 9.89252 14.8552 9.9294C14.8604 9.95972 14.8804 10.0064 14.9183 10.0224C14.9183 9.96305 14.9515 9.89252 14.9988 9.89252C15.0462 9.89252 15.0793 9.96305 15.0793 10.0224C15.1172 10.0064 15.1372 9.95972 15.1424 9.9294C15.1487 9.89252 15.2029 9.8908 15.204 9.93736C15.2056 10.0111 15.1503 10.0881 15.1124 10.1363C15.1164 10.1515 15.1187 10.1667 15.1195 10.1843C15.174 10.2518 15.204 10.3608 15.204 10.4313H15.1014C15.1014 10.3479 15.0509 10.2709 14.9988 10.255Z" fill="#514537"/>
<path fill-rule="evenodd" clip-rule="evenodd" d="M12.5714 10.5377H15.349V10.671H12.5714V10.5377Z" fill="#514537"/>
<path fill-rule="evenodd" clip-rule="evenodd" d="M15.0221 11.8285C15.4072 11.8285 15.8112 11.4885 15.8112 10.8407C15.8112 10.1927 15.8112 9.3781 15.8112 9.23057C15.8112 9.08466 15.795 9.06412 15.8285 9.03014C15.8482 9.01014 15.8064 8.98046 15.7781 8.95154C15.7354 8.9082 15.7062 8.87218 15.7638 8.81358C15.8215 8.75509 15.7969 8.73982 15.7607 8.70304C15.7243 8.66605 15.7101 8.62928 15.7448 8.5939C15.7796 8.55863 15.7875 8.54745 15.7496 8.50896C15.7117 8.47046 15.7275 8.45444 15.759 8.42229C15.7907 8.39025 15.8056 8.36702 15.7654 8.32616C15.7259 8.28605 15.7228 8.2796 15.677 8.2796C15.6312 8.2796 15.5318 8.2796 15.4876 8.2796C15.4435 8.2796 15.4426 8.29326 15.4798 8.331C15.5279 8.37982 15.5421 8.39906 15.4876 8.45444C15.4332 8.50971 15.4355 8.5282 15.4702 8.56347C15.5224 8.61638 15.5452 8.65251 15.4924 8.70627C15.4394 8.75992 15.4347 8.78401 15.475 8.82487C15.5152 8.86573 15.5192 8.90186 15.475 8.9467C15.441 8.98122 15.4387 9.00132 15.4387 9.06218C15.4387 9.42949 15.4387 10.4301 15.4387 10.7059C15.4387 10.9818 15.2429 11.1485 14.8706 11.1485C14.4981 11.1485 14.3719 10.9945 14.2645 10.892C14.3339 11.3858 14.536 11.8285 15.0221 11.8285Z" fill="#514537"/>
<path fill-rule="evenodd" clip-rule="evenodd" d="M12.5714 9.67434C12.5714 9.67434 12.5715 9.57971 12.5715 9.4624L13.1268 9.67445L12.5714 9.67434Z" fill="#EEA339"/>
<path fill-rule="evenodd" clip-rule="evenodd" d="M11.9091 9.77279L10.6666 9.60258C10.7027 9.33204 10.771 9.06827 10.8692 8.8172L11.9091 9.23666V9.77279Z" fill="#EEA339"/>
<path fill-rule="evenodd" clip-rule="evenodd" d="M14.4762 7.69595L14.697 6.77423C14.9555 6.83789 15.2067 6.9338 15.4448 7.06025L14.7325 8.44563L14.735 7.75004C14.6528 7.75047 14.5267 7.73767 14.4762 7.69595Z" fill="#EEA339"/>
<path fill-rule="evenodd" clip-rule="evenodd" d="M11.9384 9.86304L10.6728 9.78497C10.6565 10.0547 10.6727 10.3268 10.7213 10.5953C10.7213 10.5953 11.9384 10.603 11.9384 10.5953V9.86304Z" fill="#EEA339"/>
<path fill-rule="evenodd" clip-rule="evenodd" d="M11.9258 8.99562C11.8849 8.9411 11.9102 8.91207 11.9543 8.88314C11.9985 8.85433 11.9922 8.83185 11.9702 8.79024C11.948 8.74852 11.9259 8.70357 11.967 8.65873C12.008 8.61379 11.9922 8.59454 11.9606 8.5625C11.9291 8.53045 11.9259 8.49519 11.9543 8.46949C11.9828 8.44379 11.9764 8.42454 11.9576 8.39895C11.9385 8.37325 11.9014 8.32121 11.9346 8.28755L11.4183 7.84949C11.2477 8.0568 11.1017 8.28562 10.9841 8.53099L11.9258 8.99562Z" fill="#EEA339"/>
<path fill-rule="evenodd" clip-rule="evenodd" d="M13.1627 9.23445L12.5474 8.62811C12.6342 8.53994 12.6428 8.52553 12.5813 8.46295C12.5143 8.39478 12.5118 8.38768 12.6483 8.24886C12.6949 8.20166 12.6689 8.16865 12.6026 8.16865C12.5364 8.16865 12.2317 8.16865 12.197 8.16865C12.1623 8.16865 12.135 8.17047 12.1096 8.19628L11.619 7.7137C11.8062 7.51789 12.0153 7.34703 12.2411 7.20435L13.1627 8.71026V9.23445Z" fill="#EEA339"/>
<path fill-rule="evenodd" clip-rule="evenodd" d="M12.5227 9.32666C12.5227 9.17602 12.5228 9.02688 12.5228 9.00569C12.5228 8.96075 12.5197 8.94311 12.485 8.90784C12.4503 8.87258 12.4676 8.85569 12.4945 8.8172L13.0782 9.31129V9.60139L12.5227 9.32666Z" fill="#EEA339"/>
<path fill-rule="evenodd" clip-rule="evenodd" d="M13.0695 8.44638C13.0695 8.15703 13.0695 7.88939 13.0695 7.7352C13.0695 7.27337 13.095 7.0424 13.1612 6.99595L13.1082 6.77423C12.8491 6.84509 12.5978 6.94101 12.3597 7.06746L13.0695 8.44638Z" fill="#EEA339"/>
<path fill-rule="evenodd" clip-rule="evenodd" d="M15.3489 9.67434C15.3489 9.67434 15.3488 9.57971 15.3488 9.4624L14.7936 9.67445L15.3489 9.67434Z" fill="#EEA339"/>
<path fill-rule="evenodd" clip-rule="evenodd" d="M15.9576 9.77279L17.2001 9.60258C17.164 9.33204 17.0957 9.06827 16.9975 8.8172L15.9576 9.23666V9.77279Z" fill="#EEA339"/>
<path fill-rule="evenodd" clip-rule="evenodd" d="M15.9576 9.86304L17.2231 9.78497C17.2394 10.0547 17.2234 10.3268 17.1746 10.5953C17.1746 10.5953 15.9576 10.603 15.9576 10.5953V9.86304Z" fill="#EEA339"/>
<path fill-rule="evenodd" clip-rule="evenodd" d="M15.9176 8.99562C15.9587 8.9411 15.9333 8.91207 15.8892 8.88314C15.8449 8.85433 15.8513 8.83185 15.8733 8.79024C15.8954 8.74852 15.9175 8.70357 15.8765 8.65873C15.8354 8.61379 15.8513 8.59454 15.8828 8.5625C15.9144 8.53045 15.9175 8.49519 15.8892 8.46949C15.8607 8.44379 15.8671 8.42454 15.8859 8.39895C15.9049 8.37325 15.942 8.32121 15.9089 8.28755L16.4252 7.84949C16.5957 8.0568 16.7417 8.28562 16.8592 8.53099L15.9176 8.99562Z" fill="#EEA339"/>
<path fill-rule="evenodd" clip-rule="evenodd" d="M14.7936 9.23445L15.4089 8.62811C15.322 8.53994 15.3134 8.52553 15.375 8.46295C15.442 8.39478 15.4445 8.38768 15.308 8.24886C15.2613 8.20166 15.2874 8.16865 15.3537 8.16865C15.4199 8.16865 15.7246 8.16865 15.7593 8.16865C15.794 8.16865 15.8213 8.17047 15.8467 8.19628L16.3373 7.7137C16.1501 7.51789 15.941 7.34703 15.7152 7.20435L14.7936 8.71026V9.23445Z" fill="#EEA339"/>
<path fill-rule="evenodd" clip-rule="evenodd" d="M15.349 9.32666C15.349 9.17602 15.3489 9.02688 15.3489 9.00569C15.3489 8.96075 15.3521 8.94311 15.3868 8.90784C15.4215 8.87258 15.4042 8.85569 15.3773 8.8172L14.7936 9.31129V9.60139L15.349 9.32666Z" fill="#EEA339"/>
<path fill-rule="evenodd" clip-rule="evenodd" d="M12.1481 9.03229C12.1702 9.05476 12.1797 9.07713 12.1797 9.13164C12.1797 9.18616 12.1797 10.3793 12.1797 10.8476C12.1797 11.4184 12.5206 11.7359 12.8709 11.7359C13.1928 11.7359 13.4044 11.4377 13.5148 11.0913C13.3728 11.2036 13.1645 11.2388 12.9655 11.2388C12.7352 11.2388 12.3628 11.0817 12.3628 10.7418C12.3628 10.4274 12.3628 9.26315 12.3628 9.07713C12.3628 9.03229 12.3185 9.03229 12.1481 9.03229Z" fill="#D82332"/>
<path fill-rule="evenodd" clip-rule="evenodd" d="M14.161 6.78408C13.7209 6.73881 13.3126 6.83182 13.3126 7.44193C13.3126 8.08343 13.3126 8.8659 13.3126 9.06289C13.3126 9.33354 13.2917 9.30139 13.5174 9.35827C13.9269 9.4615 13.9734 9.47461 14.4701 9.58988V7.94064C14.046 7.89343 13.8622 7.61117 13.8622 7.29859C13.8622 7.04988 13.9703 6.8158 14.161 6.78408Z" fill="#D82332"/>
<path fill-rule="evenodd" clip-rule="evenodd" d="M15.7371 9.03229C15.715 9.05476 15.7055 9.07713 15.7055 9.13164C15.7055 9.18616 15.7055 10.3793 15.7055 10.8476C15.7055 11.4184 15.3646 11.7359 15.0143 11.7359C14.6924 11.7359 14.4808 11.4377 14.3704 11.0913C14.5125 11.2036 14.7207 11.2388 14.9197 11.2388C15.15 11.2388 15.5224 11.0817 15.5224 10.7418C15.5224 10.4274 15.5224 9.26315 15.5224 9.07713C15.5224 9.03229 15.5667 9.03229 15.7371 9.03229Z" fill="#D82332"/>
<mask id="mask1" mask-type="alpha" maskUnits="userSpaceOnUse" x="10" y="6" width="8" height="8">
<path fill-rule="evenodd" clip-rule="evenodd" d="M14 13.3334C15.8409 13.3334 17.3333 11.841 17.3333 10C17.3333 8.15907 15.8409 6.66669 14 6.66669C12.159 6.66669 10.6666 8.15907 10.6666 10C10.6666 11.841 12.159 13.3334 14 13.3334Z" fill="white"/>
</mask>
<g mask="url(#mask1)">
<path fill-rule="evenodd" clip-rule="evenodd" d="M14 18.6667C15.8409 18.6667 17.3333 17.1743 17.3333 15.3333C17.3333 13.4924 15.8409 12 14 12C12.159 12 10.6666 13.4924 10.6666 15.3333C10.6666 17.1743 12.159 18.6667 14 18.6667Z" fill="#064A89"/>
</g>
</g>
</svg>
