<svg width="28" height="20" viewBox="0 0 28 20" fill="none" xmlns="http://www.w3.org/2000/svg">
<rect x="0.25" y="0.25" width="27.5" height="19.5" rx="1.75" fill="white" stroke="#F5F5F5" stroke-width="0.5"/>
<mask id="svg_mask_flags_rsm" mask-type="alpha" maskUnits="userSpaceOnUse" x="0" y="0" width="28" height="20">
<rect x="0.25" y="0.25" width="27.5" height="19.5" rx="1.75" fill="white" stroke="white" stroke-width="0.5"/>
</mask>
<g mask="url(#svg_mask_flags_rsm)">
<path fill-rule="evenodd" clip-rule="evenodd" d="M0 20H28V9.33334H0V20Z" fill="#7CCCF5"/>
<path d="M11.3333 9.33334L11.9109 9.00045L10.6666 6.84154V9.33334H11.3333ZM12.6636 11.6415L12.329 12.2181L14.4871 13.4703L13.2412 11.3086L12.6636 11.6415ZM15.0756 11.0198C14.7655 11.2182 14.6748 11.6305 14.8732 11.9407C15.0716 12.2508 15.4839 12.3415 15.794 12.1431L15.0756 11.0198ZM17.3333 9.33334C17.3333 8.96515 17.0348 8.66668 16.6666 8.66668C16.2985 8.66668 16 8.96515 16 9.33334H17.3333ZM10.6666 9.33334C10.6666 10.5664 11.3365 11.6422 12.329 12.2181L12.9982 11.0649C12.3999 10.7177 12 10.0718 12 9.33334H10.6666ZM13.2412 11.3086L11.9109 9.00045L10.7557 9.66624L12.086 11.9744L13.2412 11.3086ZM15.794 12.1431C16.7182 11.552 17.3333 10.5147 17.3333 9.33334H16C16 10.041 15.6329 10.6634 15.0756 11.0198L15.794 12.1431Z" fill="#445F42"/>
<path fill-rule="evenodd" clip-rule="evenodd" d="M14 10.6667C14.7364 10.6667 15.3334 9.77123 15.3334 8.66666C15.3334 7.56209 14.7364 6.66666 14 6.66666C13.2636 6.66666 12.6667 7.56209 12.6667 8.66666C12.6667 9.77123 13.2636 10.6667 14 10.6667Z" fill="#D89F3D"/>
</g>
</svg>
