<svg width="28" height="20" viewBox="0 0 28 20" fill="none" xmlns="http://www.w3.org/2000/svg">
<rect width="28" height="20" rx="2" fill="#009F60"/>
<mask id="svg_mask_flags_zmb" mask-type="alpha" maskUnits="userSpaceOnUse" x="0" y="0" width="28" height="20">
<rect width="28" height="20" rx="2" fill="white"/>
</mask>
<g mask="url(#svg_mask_flags_zmb)">
<rect x="24" y="10.6667" width="4" height="9.33333" fill="#EA8B42"/>
<path fill-rule="evenodd" clip-rule="evenodd" d="M20 20H24V10.6667H20V20Z" fill="#1A1919"/>
<path fill-rule="evenodd" clip-rule="evenodd" d="M16 20H20V10.6667H16V20Z" fill="#DB3C36"/>
<path fill-rule="evenodd" clip-rule="evenodd" d="M19.6629 4.01066C19.6578 4.10976 19.6602 4.19698 19.6806 4.26408C19.6324 4.44937 19.671 4.56636 19.7289 4.62486C19.787 4.68335 19.811 4.70778 19.8208 4.77608C19.8304 4.84421 19.8594 4.90752 19.9077 4.94658C19.9561 4.98563 19.985 5.04412 19.9898 5.07836C19.9946 5.11243 20.1441 5.25935 20.2072 5.29772C20.2215 5.30624 20.229 5.31997 20.2387 5.33779C20.2455 5.35017 20.2534 5.36452 20.2653 5.38047C20.2391 5.53445 20.2667 5.68843 20.3044 5.84206C19.9629 6.128 19.6259 5.99311 19.7677 5.70064C19.4841 5.92808 18.9947 5.92172 19.1042 5.70064C18.6597 5.85668 18.5245 5.72662 18.5824 5.58365C18.2089 5.73316 18.0155 5.59019 18.0671 5.4861C17.7578 5.57058 17.5581 5.51862 17.5259 5.46666C17.4938 5.4147 17.571 5.29772 17.6419 5.23922C17.5002 5.29118 17.3649 5.29118 17.236 5.27174C17.1192 5.25394 17.1349 5.22015 17.158 5.17036L17.1652 5.15458L17.1723 5.13817C17.1976 5.07961 17.234 4.99542 17.3279 4.91251C17.0815 4.9612 16.7723 4.99544 16.5549 4.92215L16.5412 4.91773C16.5005 4.90483 16.4484 4.88832 16.4872 4.8492C16.5307 4.80533 16.6612 4.69797 16.8206 4.62967C16.4582 4.68335 15.7722 4.7224 15.579 4.50305C15.7674 4.54193 16.0089 4.464 16.1635 4.40068C15.5548 4.33238 14.7239 3.91311 14.7141 3.50365C14.8881 3.78632 15.1878 3.88387 15.4873 3.97161C15.0813 3.73264 14.9123 3.44498 14.8979 3.25488C15.1297 3.47922 15.4823 3.73264 15.8303 3.79131C15.5838 3.65969 15.2649 3.27449 15.178 3.00627C15.3568 3.16713 15.8157 3.42554 16.1298 3.50847C15.9124 3.3378 15.5598 2.93316 15.579 2.70898C15.6611 2.79191 15.8641 2.94778 16.2794 3.19157C16.5963 3.37748 16.8026 3.41121 17.0349 3.44917C17.1072 3.46099 17.182 3.47322 17.2634 3.49058C17.2007 3.4061 17.1443 3.29393 17.1395 3.26468C17.241 3.27931 17.3375 3.31836 17.6274 3.49866C17.7871 3.59808 18.051 3.6595 18.3164 3.72124C18.5328 3.77157 18.75 3.82213 18.9126 3.89367C19.0599 3.95857 19.2419 3.96497 19.393 3.97028C19.5143 3.97454 19.6156 3.9781 19.6629 4.01066ZM21.0142 3.48403C20.9223 3.48662 20.8547 3.45479 20.8306 3.40128C20.9804 3.31337 21.0817 3.33298 21.2074 3.44498C21.2315 3.35741 21.2074 3.25986 21.1542 3.20137C21.1038 3.14582 21.0619 3.14302 20.9959 3.13861L20.9852 3.13788C20.95 3.13554 20.9147 3.12975 20.8822 3.12441C20.8479 3.11876 20.8167 3.11363 20.7918 3.11363C20.721 2.95758 20.5436 3.02365 20.3732 3.08765C20.0962 3.19156 19.8473 3.38029 19.7355 3.56868C19.7084 3.61433 19.694 3.6453 19.6817 3.67161C19.6708 3.69497 19.6616 3.71464 19.6469 3.73763C19.6707 3.73461 19.6711 3.73438 19.6837 3.72665L19.6871 3.72455L19.68 3.80138V3.80139C19.6625 3.98587 19.6467 4.15258 19.6806 4.26408C19.6325 4.44937 19.671 4.56636 19.729 4.62485C19.7871 4.68335 19.8111 4.70778 19.8209 4.77608C19.8305 4.84421 19.8594 4.90752 19.9078 4.94657C19.9561 4.98563 19.9851 5.04412 19.9899 5.07836C19.9947 5.11242 20.1442 5.25935 20.2073 5.29771C20.2215 5.30624 20.229 5.31997 20.2388 5.33778C20.2456 5.35017 20.2534 5.36452 20.2654 5.38047C20.2336 5.56757 20.2819 5.75467 20.3301 5.94113L20.3301 5.94113C20.3773 6.12398 20.4244 6.30621 20.3957 6.48722C20.4392 6.49203 20.4971 6.48722 20.5553 6.47259L20.558 6.49034C20.6044 6.79028 20.6272 6.93751 20.3619 7.02829C20.0914 7.12102 19.9434 7.21221 20.0189 7.31595C20.072 7.38907 20.1821 7.32541 20.2508 7.26227C20.3039 7.21358 20.3667 7.16971 20.415 7.15509C20.4634 7.14046 20.4731 7.15509 20.4488 7.2184C20.4388 7.24456 20.4109 7.2831 20.3811 7.32416L20.3811 7.32416C20.3385 7.38275 20.2923 7.44646 20.2894 7.48662C20.2846 7.55492 20.3425 7.6036 20.4344 7.54993C20.5261 7.49625 20.6069 7.35586 20.6276 7.27208C20.642 7.21358 20.6663 7.17453 20.6614 7.27208C20.6604 7.29173 20.6573 7.31454 20.654 7.33868C20.6409 7.43439 20.6249 7.551 20.7291 7.57436C20.8595 7.6036 20.8983 7.44756 20.8547 7.30614C20.8112 7.1649 20.7968 7.08679 20.816 7.0381C20.8354 6.98924 20.8547 6.96016 20.9029 6.97462C20.9513 6.98924 21.0479 6.9698 21.0431 6.89186C21.0382 6.81393 20.9706 6.75044 20.8933 6.79431C20.816 6.83819 20.7581 6.83165 20.7918 6.73582C20.7999 6.71302 20.8101 6.68858 20.8203 6.66416L20.8204 6.66414C20.8408 6.61542 20.8611 6.56673 20.8643 6.53109C20.9175 6.60902 21.217 6.61883 21.3378 6.54571C21.3429 6.57115 21.3494 6.59614 21.3558 6.6208C21.3862 6.73789 21.4147 6.84732 21.2751 6.96016C21.1059 7.09659 20.9706 7.22821 20.9754 7.32576C20.9804 7.4233 21.019 7.48163 21.1059 7.43294C21.1928 7.38425 21.2459 7.31595 21.2653 7.25264C21.2847 7.18915 21.3234 7.18915 21.3041 7.26726L21.2958 7.29954C21.2766 7.37389 21.2528 7.46633 21.2653 7.52567C21.2799 7.5938 21.3862 7.59879 21.4295 7.5353C21.4729 7.4722 21.4634 7.38962 21.4538 7.30697L21.4537 7.30614C21.4441 7.22322 21.4587 7.13565 21.4779 7.10141C21.4973 7.06735 21.5358 7.01849 21.5746 7.11122C21.5796 7.12335 21.5844 7.13515 21.589 7.14655L21.589 7.14657C21.6193 7.22212 21.6426 7.2801 21.7098 7.30133C21.7871 7.32576 21.8451 7.29152 21.8307 7.19896C21.8161 7.1064 21.7146 7.00386 21.6133 6.92593C21.5317 6.86322 21.5376 6.82568 21.5455 6.77532L21.5455 6.77532C21.5474 6.76309 21.5495 6.7501 21.5504 6.73582C21.5544 6.67457 21.545 6.57228 21.5389 6.5063L21.5389 6.50628L21.5358 6.47259C21.6184 6.53395 21.7087 6.53228 21.7611 6.5313L21.7774 6.53109C21.8016 6.53109 21.8336 6.52733 21.8495 6.51442C22.0122 6.61039 22.1768 6.45229 22.1783 6.37264C22.3508 6.53178 22.5818 6.53109 22.6398 6.33118C22.775 6.41892 23.0288 6.43836 23.1011 6.34081C23.1736 6.24344 23.1978 6.14916 22.7726 5.89075C22.8966 5.92327 22.99 5.85823 22.9996 5.76068C23.1349 5.8486 23.2461 5.85823 23.3862 5.82899C23.5264 5.79974 23.5118 5.68774 23.4104 5.55595C23.6663 5.70236 23.9732 5.71939 23.8814 5.46099C23.9973 5.48524 24.1496 5.49763 24.1929 5.42933C24.2365 5.36103 24.164 5.24404 23.9514 5.08318C23.9949 5.07836 24.0337 5.07165 24.0659 5.05221C24.2848 5.16284 24.7213 5.23268 24.9016 5.21961C25.082 5.20671 25.1336 5.1157 25.0948 4.95311C25.3904 4.89565 25.8736 4.77058 26.1887 4.53763L26.1894 4.53712C26.2658 4.48073 26.3703 4.40361 26.3831 4.34856C26.1254 4.5046 25.5393 4.6541 25.0883 4.76456C25.6069 4.59406 26.6536 3.97006 26.6279 3.69858C26.4219 3.88814 26.0733 4.02027 25.7483 4.14343C25.7279 4.15116 25.7076 4.15886 25.6874 4.16653C26.0224 3.97161 26.3735 3.63681 26.3768 3.36705C26.2549 3.5413 25.9809 3.66404 25.7189 3.78142C25.6485 3.81296 25.5789 3.84412 25.5134 3.87578C25.5192 3.87121 25.5251 3.86657 25.531 3.86186C25.8374 3.61875 26.3735 3.19332 26.2929 2.86658C26.1322 3.1462 25.7045 3.37768 25.3502 3.56945C25.2927 3.60057 25.2372 3.63064 25.185 3.6597C25.3204 3.54253 25.5522 3.32817 25.5587 3.04206C25.0112 3.45152 24.3669 3.69204 23.8322 3.8221C23.9934 3.72456 24.1737 3.52963 24.206 3.39957C23.6776 3.75707 22.9369 3.92602 22.544 3.95217C22.2026 3.97471 21.8546 4.00567 21.4537 4.10804C21.3765 4.03011 21.1541 4.0449 20.9126 4.11317C20.8909 4.09111 20.8653 4.0714 20.8354 4.05453C20.6276 3.93754 20.6324 3.83999 20.7001 3.73763C20.7677 3.63526 20.8546 3.53513 20.9658 3.52791C20.9909 3.52636 21.0486 3.52154 21.0721 3.50434C21.0617 3.49625 21.0447 3.48335 21.0142 3.48403ZM21.8343 6.45161C21.8624 6.48015 21.8641 6.4989 21.8532 6.51097C21.8641 6.49897 21.8625 6.48015 21.8343 6.45161Z" fill="#EA8B42"/>
<path fill-rule="evenodd" clip-rule="evenodd" d="M19.8772 7.49471C19.8842 7.43312 19.8901 7.36155 19.9415 7.31596C19.9931 7.27037 20.0253 7.23149 20.0704 7.2769C20.1155 7.3225 20.0865 7.36482 20.0253 7.38426C19.9641 7.4037 19.9223 7.45893 19.9125 7.49471C19.9029 7.5305 19.8707 7.54994 19.8772 7.49471Z" fill="black"/>
<path fill-rule="evenodd" clip-rule="evenodd" d="M20.2281 7.79372C20.1962 7.69152 20.2122 7.55974 20.2475 7.52069C20.283 7.48163 20.3281 7.45565 20.3699 7.49471C20.4117 7.53376 20.4278 7.58899 20.3505 7.6215C20.2821 7.65023 20.2765 7.72215 20.2734 7.77428C20.2701 7.82623 20.2475 7.85548 20.2281 7.79372Z" fill="black"/>
<path fill-rule="evenodd" clip-rule="evenodd" d="M20.6791 7.53049C20.6542 7.5723 20.6854 7.74176 20.7693 7.78391C20.8286 7.81385 20.8562 7.8068 20.8207 7.7514C20.7854 7.69617 20.7982 7.64422 20.8176 7.61497C20.8368 7.58572 20.8337 7.53376 20.7917 7.50778C20.7499 7.48163 20.6983 7.49798 20.6791 7.53049Z" fill="black"/>
<path fill-rule="evenodd" clip-rule="evenodd" d="M21.0431 7.37771C20.99 7.33746 20.9401 7.3858 20.9207 7.41986C20.882 7.48817 20.9111 7.58571 20.9723 7.64094C21.0335 7.69617 21.0238 7.6215 21.0044 7.58898C20.9852 7.55647 20.9819 7.49143 21.0238 7.4849C21.0656 7.47853 21.0947 7.4166 21.0431 7.37771Z" fill="black"/>
<path fill-rule="evenodd" clip-rule="evenodd" d="M21.3459 7.48817C21.2941 7.47286 21.2428 7.52723 21.2492 7.59226C21.254 7.64078 21.259 7.70271 21.3071 7.73523C21.3395 7.7569 21.362 7.77101 21.3459 7.71252C21.3298 7.65402 21.3556 7.60516 21.3844 7.58899C21.4134 7.57282 21.4006 7.50452 21.3459 7.48817Z" fill="black"/>
<path fill-rule="evenodd" clip-rule="evenodd" d="M21.7742 7.21186C21.7367 7.23836 21.7387 7.29978 21.7742 7.32249C21.8095 7.3452 21.8611 7.37771 21.8515 7.43294C21.8418 7.48816 21.8707 7.50778 21.8966 7.44601C21.9223 7.38425 21.9256 7.29324 21.8966 7.25092C21.8675 7.20859 21.8063 7.18915 21.7742 7.21186Z" fill="black"/>
</g>
</svg>
