<svg viewBox="0 0 24 24" fill="none" xmlns="http://www.w3.org/2000/svg">
<path fill-rule="evenodd" clip-rule="evenodd" d="M18 6.53998C19.1046 6.53998 20 5.64455 20 4.53998C20 3.43541 19.1046 2.53998 18 2.53998C16.8954 2.53998 16 3.43541 16 4.53998C16 5.64455 16.8954 6.53998 18 6.53998ZM15 17H13C13 18.65 11.65 20 10 20C8.35 20 7 18.65 7 17C7 15.35 8.35 14 10 14V12C7.24 12 5 14.24 5 17C5 19.76 7.24 22 10 22C12.76 22 15 19.76 15 17ZM16.14 13.5H18C19.1 13.5 20 14.4 20 15.5V21H18V16H13.02C11.56 16 10.57 14.43 11.17 13.1L13 8.99998H10.79L10.14 10.53L8.22 9.99998L8.89 8.19998C9.22 7.46998 9.95 6.99998 10.76 6.99998H15.96C17.44 6.99998 18.42 8.49998 17.81 9.82998L16.14 13.5Z" fill="#172B4D"/>
</svg>
