<svg viewBox="0 0 24 24" fill="none" xmlns="http://www.w3.org/2000/svg">
<path fill-rule="evenodd" clip-rule="evenodd" d="M6.66333 1.90521L7.94453 3.44101L3.33713 7.28461L2.05603 5.74881L6.66333 1.90521ZM17.3365 1.90581L21.9439 5.74941L20.6627 7.28521L16.0553 3.44161L17.3365 1.90581ZM3.00003 13.0948C3.00003 8.12481 7.03003 4.09481 12 4.09481C16.97 4.09481 21 8.12481 21 13.0948C21 18.0648 16.97 22.0948 12 22.0948C7.03003 22.0948 3.00003 18.0648 3.00003 13.0948ZM12 20.0948C8.14003 20.0948 5.00003 16.9548 5.00003 13.0948C5.00003 9.23481 8.14003 6.09481 12 6.09481C15.86 6.09481 19 9.23481 19 13.0948C19 16.9548 15.86 20.0948 12 20.0948ZM11 12.0948V9.09481H13V12.0948H16V14.0948H13V17.0948H11V14.0948H8.00003V12.0948H11Z" fill="#172B4D"/>
</svg>
