<svg viewBox="0 0 24 24" fill="none" xmlns="http://www.w3.org/2000/svg">
<path fill-rule="evenodd" clip-rule="evenodd" d="M14.54 7.46C13.63 6.56 12.38 6 11 6C8.58 6 6.56 7.72 6.1 10H4.08C4.57 6.61 7.47 4 11 4C12.93 4 14.68 4.78 15.95 6.05L18 4V10H12L14.54 7.46ZM17.92 12C17.76 13.17 17.3 14.24 16.64 15.14L21.49 20L20 21.49L15.14 16.64C13.98 17.49 12.55 18 11 18C9.07 18 7.32 17.22 6.05 15.95L4 18V12H10L7.46 14.54C8.37 15.44 9.62 16 11 16C13.42 16 15.44 14.28 15.9 12H17.92Z" fill="#172B4D"/>
</svg>
