<svg width="16" height="16" viewBox="0 0 16 16" fill="none" xmlns="http://www.w3.org/2000/svg">
  <path d="M13.5333 4.28336L12.9667 3.03336L11.7167 2.46669L12.9667 1.90002L13.5333 0.650024L14.1 1.90002L15.35 2.46669L14.1 3.03336L13.5333 4.28336ZM5.50001 4.28336L4.93334 3.03336L3.68334 2.46669L4.93334 1.90002L5.50001 0.650024L6.06668 1.90002L7.31668 2.46669L6.06668 3.03336L5.50001 4.28336ZM13.5333 12.3167L12.9667 11.0667L11.7167 10.5L12.9667 9.93336L13.5333 8.68336L14.1 9.93336L15.35 10.5L14.1 11.0667L13.5333 12.3167ZM3.11668 14.4667L1.53334 12.8834C1.41112 12.7611 1.34445 12.6195 1.33334 12.4584C1.32223 12.2972 1.3889 12.1445 1.53334 12L9.03334 4.50002C9.16668 4.36669 9.32779 4.30002 9.51668 4.30002C9.70557 4.30002 9.86668 4.36669 10 4.50002L11.5 6.00002C11.6333 6.13336 11.7 6.29447 11.7 6.48336C11.7 6.67225 11.6333 6.83336 11.5 6.96669L4.00001 14.4667C3.86668 14.6 3.71946 14.6667 3.55834 14.6667C3.39723 14.6667 3.25001 14.6 3.11668 14.4667ZM3.50001 13.5167L8.71668 8.30002L7.68334 7.26669L2.46668 12.4834L3.50001 13.5167Z" fill="#172B4D"/>
</svg>
