<svg viewBox="0 0 24 24" fill="none" xmlns="http://www.w3.org/2000/svg">
<path fill-rule="evenodd" clip-rule="evenodd" d="M18.44 3.63L20.07 2C23.98 6.05 23.97 12.11 20.07 16L18.44 14.37C21.21 11.19 21.21 6.65 18.44 3.63ZM13 9C13 11.2091 11.2091 13 9 13C6.79086 13 5 11.2091 5 9C5 6.79086 6.79086 5 9 5C11.2091 5 13 6.79086 13 9ZM1 19C1 16.34 6.33 15 9 15C11.67 15 17 16.34 17 19V21H1V19ZM15.08 7.05C15.92 8.23 15.92 9.76 15.08 10.94L16.76 12.63C18.78 10.61 18.78 7.56 16.76 5.36L15.08 7.05Z" fill="#172B4D"/>
</svg>
