<svg viewBox="0 0 24 24" fill="none" xmlns="http://www.w3.org/2000/svg">
<path fill-rule="evenodd" clip-rule="evenodd" d="M0 2.54L1.41 1.13L22.87 22.59L21.46 24L18.62 21.16C18.26 21.67 17.67 22 17 22C15.9 22 15.01 21.1 15.01 20C15.01 19.33 15.34 18.74 15.84 18.38L14.46 17H7C5.9 17 5 16.1 5 15C5 14.65 5.09 14.32 5.25 14.04L6.6 11.59L4.39 6.93001L0 2.54ZM8.1 13L7 15H12.46L10.46 13H8.1ZM16.05 12.94C16.59 12.8 17.04 12.45 17.3 11.97L20.88 5.48C21.25 4.82 20.76 4 20 4H7.12L16.05 12.94ZM5.01 20C5.01 18.9 5.9 18 7 18C8.1 18 9 18.9 9 20C9 21.1 8.1 22 7 22C5.9 22 5.01 21.1 5.01 20Z" fill="#172B4D"/>
</svg>
