<svg width="24" height="24" viewBox="0 0 24 24" fill="none" xmlns="http://www.w3.org/2000/svg">
<path fill-rule="evenodd" clip-rule="evenodd" d="M13 1V4.07C16.95 4.56 20 7.92 20 12C20 16.08 16.95 19.44 13 19.93V17.91C15.84 17.43 18 14.97 18 12C18 9.03 15.84 6.57 13 6.09V10L8.45001 5.55L13 1ZM5.70001 7.11L7.11001 8.53C6.58001 9.28 6.23001 10.13 6.09001 11H4.07001C4.24001 9.61 4.80001 8.27 5.70001 7.11ZM4.07001 13H6.09001C6.23001 13.88 6.58001 14.72 7.10001 15.47L5.69001 16.89C4.79001 15.73 4.24001 14.39 4.07001 13ZM7.10001 18.32C8.26001 19.22 9.61001 19.76 11 19.93V17.9C10.13 17.75 9.29001 17.41 8.54001 16.87L7.10001 18.32Z" fill="white"/>
</svg>
