<svg viewBox="0 0 24 24" fill="none" xmlns="http://www.w3.org/2000/svg">
<path fill-rule="evenodd" clip-rule="evenodd" d="M15 1C13.9 1 13 1.9 13 3C13 4.1 13.9 5 15 5C16.1 5 17 4.1 17 3C17 1.9 16.1 1 15 1ZM8.5 14.5L4 19L5.5 20.5L9 17H11L8.5 14.5ZM18 24L21 21.01L18 18H16.5L10.21 11.71C11.07 11.34 11.87 10.84 12.5 10.32V12.59L16.08 16.17C16.65 15.62 17 14.85 17 14.01V8.26C17 7.02 15.99 6.01 14.75 6H14.72C14.38 6 14.05 6.09 13.76 6.23C13.5 6.35 13.26 6.52 13.07 6.73L11.67 8.28C10.61 9.45 8.66 10.35 7 10.32V12.48C7.3 12.48 7.6 12.46 7.91 12.41L15.01 19.5V20.99L18 24Z" fill="#172B4D"/>
</svg>
