<svg viewBox="0 0 24 24" fill="none" xmlns="http://www.w3.org/2000/svg">
<path fill-rule="evenodd" clip-rule="evenodd" d="M4.21997 3.22C6.20997 1.23 8.95997 0 12 0C15.04 0 17.79 1.23 19.77 3.23L18.36 4.64C16.74 3.01 14.49 2 12 2C9.50997 2 7.25997 3.01 5.62997 4.63L4.21997 3.22ZM7.04997 6.05L8.45997 7.46C9.36997 6.56 10.62 6 12 6C13.38 6 14.63 6.56 15.54 7.46L16.95 6.05C15.68 4.78 13.93 4 12 4C10.07 4 8.31997 4.78 7.04997 6.05ZM15 9C15.55 9 16 9.45 16 10V22C16 22.55 15.55 23 15 23H8.99997C8.44997 23 7.99997 22.55 7.99997 22V10C7.99997 9.45 8.44997 9 8.99997 9H15ZM9.99997 13C9.99997 14.1 10.9 15 12 15C13.1 15 14 14.1 14 13C14 11.9 13.1 11 12 11C10.9 11 9.99997 11.9 9.99997 13Z" fill="#172B4D"/>
</svg>
