<svg viewBox="0 0 24 24" fill="none" xmlns="http://www.w3.org/2000/svg">
<path fill-rule="evenodd" clip-rule="evenodd" d="M11 5C11.55 5 12 5.45 12 6V7.25C12 7.44 11.96 7.63 11.89 7.8L9.63 13.09C9.4 13.62 8.87 14 8.25 14H1.5C0.67 14 0 13.33 0 12.5V6C0 5.59 0.17 5.21 0.44 4.94L5.38 0L6.17 0.79C6.37 1 6.5 1.28 6.5 1.59L6.48 1.82L5.82 5H11ZM15.75 10H22.5C23.33 10 24 10.67 24 11.5V18C24 18.41 23.83 18.79 23.56 19.06L18.62 24L17.83 23.22C17.63 23.01 17.5 22.73 17.5 22.42L17.52 22.18L18.18 19H13C12.45 19 12 18.55 12 18V16.75C12 16.56 12.04 16.37 12.11 16.2L14.37 10.91C14.6 10.38 15.13 10 15.75 10Z" fill="#172B4D"/>
</svg>
