<svg viewBox="0 0 24 24" fill="none" xmlns="http://www.w3.org/2000/svg">
<path fill-rule="evenodd" clip-rule="evenodd" d="M18.44 3.63L20.07 2C23.93 5.99 23.96 11.94 20.22 15.83L18.58 14.19C21.2 11.02 21.16 6.6 18.44 3.63ZM15.08 7.05L16.76 5.36C18.74 7.51 18.77 10.47 16.87 12.49L15.17 10.79C15.91 9.63 15.88 8.18 15.08 7.05ZM9.43 5.04L12.96 8.57C12.76 6.71 11.29 5.24 9.43 5.04ZM3 4.27L4.41 2.86L21.14 19.59L19.73 21L16.71 17.98C16.89 18.3 17 18.63 17 19V21H1V19C1 16.34 6.33 15 9 15C10.78 15 13.74 15.6 15.51 16.78L11.11 12.38C10.5 12.77 9.78 13 9 13C6.79 13 5 11.21 5 9C5 8.22 5.23 7.5 5.62 6.89L3 4.27Z" fill="#172B4D"/>
</svg>
