<svg viewBox="0 0 24 24" fill="none" xmlns="http://www.w3.org/2000/svg">
<path fill-rule="evenodd" clip-rule="evenodd" d="M3.39999 1.84003L23.15 21.59L21.74 23L19.74 21H3.99999C2.88999 21 1.99999 20.11 1.99999 19L2.00999 8.00003C2.00999 6.89003 2.88999 6.00003 3.99999 6.00003H4.73999L1.98999 3.25003L3.39999 1.84003ZM14 4.00003H9.99999V5.60003L8.03999 3.64003C8.19999 2.70003 9.00999 2.00003 9.99999 2.00003H14C15.11 2.00003 16 2.89003 16 4.00003V6.00003H20C21.11 6.00003 22 6.89003 22 8.00003V17.6L10.4 6.00003H14V4.00003Z" fill="#172B4D"/>
</svg>
