<svg viewBox="0 0 24 24" fill="none" xmlns="http://www.w3.org/2000/svg">
  <mask id="a" style="mask-type:alpha" maskUnits="userSpaceOnUse" x="0" y="0" width="24" height="24">
    <path fill="#D9D9D9" d="M0 0h24v24H0z"/>
  </mask>
  <g mask="url(#a)">
    <path d="M15.11 21.5a10.14 10.14 0 0 1-10.66-2.92 9.6 9.6 0 0 1-1.95-3.44 10.22 10.22 0 0 1 .58-7.64 9.94 9.94 0 0 1 9.75-5.46A10 10 0 0 1 15.1 21.5ZM19.7 9.44a8 8 0 0 0-4.03-4.7 8.22 8.22 0 0 0-2.99-.84 8.02 8.02 0 0 0-7.89 4.42 8.38 8.38 0 0 0-.84 2.98 8 8 0 0 0 4.42 7.89 8.3 8.3 0 0 0 2.99.84 8.02 8.02 0 0 0 7.89-4.42 8.2 8.2 0 0 0 .45-6.17Zm-5.41 9.5A7.31 7.31 0 1 1 9.72 5.05a7.52 7.52 0 0 1 7.79 2.14 7.31 7.31 0 0 1-3.23 11.73ZM12 10.64c-.38 0-.7.13-.96.39a1.3 1.3 0 0 0-.39.96A1.34 1.34 0 0 0 12 13.37c.38 0 .7-.13.97-.4.27-.26.4-.59.4-.97s-.13-.7-.4-.96a1.34 1.34 0 0 0-.97-.39Zm-5.12-2.2 3.13 1.8c.08-.04.15-.1.22-.15.08-.04.15-.1.21-.16l.21-.15c.18-.1.35-.18.51-.22l.27-.07V5.88a4.8 4.8 0 0 0-1.57.34 6.98 6.98 0 0 0-2.54 1.64c-.18.2-.33.4-.44.58Zm-.56 6.16 3.16-1.81a2 2 0 0 1-.1-.77c0-.21.02-.4.06-.56l.06-.27L6.4 9.4a5.75 5.75 0 0 0-.6 2.56 5.62 5.62 0 0 0 .53 2.65Zm5.08 3.55.03-3.64a.96.96 0 0 1-.27-.09 1.53 1.53 0 0 1-.46-.22 2.15 2.15 0 0 1-.44-.33 2.45 2.45 0 0 0-.2-.18l-3.12 1.79A5.8 5.8 0 0 0 8 16.69a6.3 6.3 0 0 0 1.89 1.12c.31.12.58.2.8.26.27.06.5.1.71.1Zm5.7-2.56-3.13-1.81a5.8 5.8 0 0 1-.62.46 1 1 0 0 1-.28.14c-.1.02-.18.05-.25.08l-.24.07v3.62a6.2 6.2 0 0 0 4.52-2.56Zm.56-6.2-3.14 1.8.04.27a2.03 2.03 0 0 1 .05.5 2.21 2.21 0 0 1-.07.58 2.1 2.1 0 0 0-.07.27l3.12 1.79a5.75 5.75 0 0 0 .6-2.57 7.76 7.76 0 0 0-.27-1.98 2.76 2.76 0 0 0-.26-.67ZM12.6 5.83v3.64l.26.09a5 5 0 0 1 .47.22l.23.17c.08.05.15.1.21.16l.2.2 3.11-1.81a7.59 7.59 0 0 0-1.06-1.18 5.57 5.57 0 0 0-1.91-1.13 5.13 5.13 0 0 0-1.51-.37Z" fill="#172B4D"/>
  </g>
</svg>
