<svg width="36" height="40" viewBox="0 0 36 40" fill="none" xmlns="http://www.w3.org/2000/svg">
<path fill-rule="evenodd" clip-rule="evenodd" d="M8.00011 0C5.79097 0 4.00011 1.79086 4.00011 4V36C4.00011 38.2091 5.79097 40 8.00011 40H32.0001C34.2092 40 36.0001 38.2091 36.0001 36V12L24.0001 0H8.00011Z" fill="#EBECF0"/>
<path d="M24 10V0L36 12H26C24.8954 12 24 11.1046 24 10Z" fill="#C1C7D0"/>
<rect y="20" width="32" height="16" rx="2" fill="#E32C1E"/>
<path d="M6.97296 28.8301V32H5.49054V23.4688H8.75421C9.70734 23.4688 10.4632 23.7168 11.0218 24.2129C11.5843 24.709 11.8655 25.3652 11.8655 26.1816C11.8655 27.0176 11.5901 27.668 11.0394 28.1328C10.4925 28.5977 9.72491 28.8301 8.73663 28.8301H6.97296ZM6.97296 27.6406H8.75421C9.28156 27.6406 9.6839 27.5176 9.96124 27.2715C10.2386 27.0215 10.3773 26.6621 10.3773 26.1934C10.3773 25.7324 10.2366 25.3652 9.95538 25.0918C9.67413 24.8145 9.28741 24.6719 8.79523 24.6641H6.97296V27.6406Z" fill="white"/>
<path d="M13.4863 32V23.4688H16.0059C16.7598 23.4688 17.4277 23.6367 18.0098 23.9727C18.5957 24.3086 19.0488 24.7852 19.3691 25.4023C19.6894 26.0195 19.8496 26.7266 19.8496 27.5234V27.9512C19.8496 28.7598 19.6875 29.4707 19.3633 30.084C19.043 30.6973 18.584 31.1699 17.9863 31.502C17.3926 31.834 16.7109 32 15.9414 32H13.4863ZM14.9687 24.6641V30.8164H15.9355C16.7129 30.8164 17.3086 30.5742 17.7226 30.0898C18.1406 29.6016 18.3535 28.9023 18.3613 27.9922V27.5176C18.3613 26.5918 18.1601 25.8848 17.7578 25.3965C17.3555 24.9082 16.7715 24.6641 16.0059 24.6641H14.9687Z" fill="white"/>
<path d="M26.5622 28.3848H23.1286V32H21.6462V23.4688H27.0661V24.6641H23.1286V27.2012H26.5622V28.3848Z" fill="white"/>
</svg>
