<svg width="36" height="40" viewBox="0 0 36 40" fill="none" xmlns="http://www.w3.org/2000/svg">
<path fill-rule="evenodd" clip-rule="evenodd" d="M8.00066 0C5.79152 0 4.00066 1.79086 4.00066 4V36C4.00066 38.2091 5.79152 40 8.00066 40H32.0007C34.2098 40 36.0007 38.2091 36.0007 36V12L24.0007 0H8.00066Z" fill="#EBECF0"/>
<path d="M24.0005 10V0L36.0005 12H26.0005C24.896 12 24.0005 11.1046 24.0005 10Z" fill="#C1C7D0"/>
<rect x="0.000549316" y="20" width="32" height="16" rx="2" fill="#6554C0"/>
<path d="M5.84852 28.8301V32H4.3661V23.4688H7.62977C8.58289 23.4688 9.33875 23.7168 9.89735 24.2129C10.4598 24.709 10.7411 25.3652 10.7411 26.1816C10.7411 27.0176 10.4657 27.668 9.91492 28.1328C9.36805 28.5977 8.60047 28.8301 7.61219 28.8301H5.84852ZM5.84852 27.6406H7.62977C8.15711 27.6406 8.55946 27.5176 8.8368 27.2715C9.11414 27.0215 9.25282 26.6621 9.25282 26.1934C9.25282 25.7324 9.11219 25.3652 8.83094 25.0918C8.54969 24.8145 8.16297 24.6719 7.67078 24.6641H5.84852V27.6406Z" fill="white"/>
<path d="M19.1295 32H17.647L13.8443 25.9473V32H12.3619V23.4688H13.8443L17.6588 29.5449V23.4688H19.1295V32Z" fill="white"/>
<path d="M27.7405 30.8926C27.4319 31.2949 27.0041 31.5996 26.4573 31.8066C25.9104 32.0137 25.2893 32.1172 24.594 32.1172C23.8791 32.1172 23.2463 31.9551 22.6955 31.6309C22.1448 31.3066 21.719 30.8438 21.4182 30.2422C21.1213 29.6367 20.967 28.9316 20.9553 28.127V27.459C20.9553 26.1699 21.2639 25.1641 21.8811 24.4414C22.4983 23.7148 23.3596 23.3516 24.4651 23.3516C25.4143 23.3516 26.1682 23.5859 26.7268 24.0547C27.2854 24.5234 27.6213 25.1992 27.7346 26.082H26.2815C26.1174 25.0547 25.5217 24.541 24.4944 24.541C23.8303 24.541 23.3245 24.7812 22.9768 25.2617C22.633 25.7383 22.4553 26.4395 22.4436 27.3652V28.0215C22.4436 28.9434 22.637 29.6602 23.0237 30.1719C23.4143 30.6797 23.9553 30.9336 24.6467 30.9336C25.4045 30.9336 25.9436 30.7617 26.2639 30.418V28.748H24.5061V27.623H27.7405V30.8926Z" fill="white"/>
</svg>
