<svg width="36" height="40" viewBox="0 0 36 40" fill="none" xmlns="http://www.w3.org/2000/svg">
<path fill-rule="evenodd" clip-rule="evenodd" d="M8.00053 0C5.7914 0 4.00053 1.79086 4.00053 4V36C4.00053 38.2091 5.7914 40 8.00053 40H32.0005C34.2097 40 36.0005 38.2091 36.0005 36V12L24.0005 0H8.00053Z" fill="#EBECF0"/>
<path d="M24.0004 10V0L36.0004 12H26.0004C24.8959 12 24.0004 11.1046 24.0004 10Z" fill="#C1C7D0"/>
<rect x="0.000427246" y="20" width="32" height="16" rx="2" fill="#5E6C84"/>
<path d="M11.6257 24.6641H8.96558V32H7.49487V24.6641H4.85815V23.4688H11.6257V24.6641Z" fill="white"/>
<path d="M16.0063 26.5508L17.7992 23.4688H19.5102L16.9321 27.6992L19.5688 32H17.8403L16.0063 28.8711L14.1664 32H12.4438L15.0864 27.6992L12.5024 23.4688H14.2133L16.0063 26.5508Z" fill="white"/>
<path d="M27.1485 24.6641H24.4884V32H23.0177V24.6641H20.381V23.4688H27.1485V24.6641Z" fill="white"/>
</svg>
