<svg width="36" height="40" viewBox="0 0 36 40" fill="none" xmlns="http://www.w3.org/2000/svg">
<path fill-rule="evenodd" clip-rule="evenodd" d="M8.00032 0C5.79118 0 4.00032 1.79086 4.00032 4V36C4.00032 38.2091 5.79118 40 8.00032 40H32.0003C34.2095 40 36.0003 38.2091 36.0003 36V12L24.0003 0H8.00032Z" fill="#EBECF0"/>
<path d="M24.0002 10V0L36.0002 12H26.0002C24.8956 12 24.0002 11.1046 24.0002 10Z" fill="#C1C7D0"/>
<rect y="20" width="32" height="16" rx="2" fill="#24A148"/>
<path d="M8.96272 26.4992L10.7557 23.4172H12.4666L9.8885 27.6477L12.5252 31.9484H10.7967L8.96272 28.8195L7.12287 31.9484H5.40022L8.04279 27.6477L5.45881 23.4172H7.16975L8.96272 26.4992Z" fill="white"/>
<path d="M15.4233 30.7648H19.2964V31.9484H13.9409V23.4172H15.4233V30.7648Z" fill="white"/>
<path d="M25.2121 29.7512C25.2121 29.3762 25.0793 29.0871 24.8137 28.884C24.5519 28.6809 24.0773 28.4758 23.3898 28.2688C22.7023 28.0617 22.1554 27.8313 21.7492 27.5773C20.9719 27.0891 20.5832 26.4523 20.5832 25.6672C20.5832 24.9797 20.8625 24.4133 21.4211 23.968C21.9836 23.5227 22.7121 23.3 23.6066 23.3C24.2004 23.3 24.7297 23.4094 25.1945 23.6281C25.6594 23.8469 26.0246 24.1594 26.2902 24.5656C26.5558 24.968 26.6887 25.4152 26.6887 25.9074H25.2121C25.2121 25.4621 25.0715 25.1145 24.7902 24.8645C24.5129 24.6105 24.1144 24.4836 23.5949 24.4836C23.1105 24.4836 22.7336 24.5871 22.464 24.7941C22.1984 25.0012 22.0656 25.2902 22.0656 25.6613C22.0656 25.9738 22.2101 26.2355 22.4992 26.4465C22.7883 26.6535 23.2648 26.8566 23.9289 27.0559C24.5929 27.2512 25.1262 27.4758 25.5285 27.7297C25.9308 27.9797 26.2258 28.2688 26.4133 28.5969C26.6008 28.9211 26.6945 29.302 26.6945 29.7395C26.6945 30.4504 26.4211 31.0168 25.8742 31.4387C25.3312 31.8566 24.5929 32.0656 23.6594 32.0656C23.0422 32.0656 22.4738 31.9523 21.9543 31.7258C21.4387 31.4953 21.0363 31.1789 20.7472 30.7766C20.4621 30.3742 20.3195 29.9055 20.3195 29.3703H21.8019C21.8019 29.8547 21.9621 30.2297 22.2824 30.4953C22.6027 30.7609 23.0617 30.8938 23.6594 30.8938C24.175 30.8938 24.5617 30.7902 24.8195 30.5832C25.0812 30.3723 25.2121 30.0949 25.2121 29.7512Z" fill="white"/>
</svg>
