<svg width="36" height="40" viewBox="0 0 36 40" fill="none" xmlns="http://www.w3.org/2000/svg">
<path fill-rule="evenodd" clip-rule="evenodd" d="M8.00078 0C5.79164 0 4.00078 1.79086 4.00078 4V36C4.00078 38.2091 5.79164 40 8.00078 40H32.0008C34.2099 40 36.0008 38.2091 36.0008 36V12L24.0008 0H8.00078Z" fill="#EBECF0"/>
<path d="M24.0007 10V0L36.0007 12H26.0007C24.8961 12 24.0007 11.1046 24.0007 10Z" fill="#C1C7D0"/>
<rect x="0.000671387" y="20" width="32" height="16" rx="2" fill="#00B1D0"/>
<path d="M8.79591 30.8164H13.3545V32H7.00294V31.0391L11.415 24.6641H7.03223V23.4688H13.2139V24.4062L8.79591 30.8164Z" fill="white"/>
<path d="M16.5163 32H15.0397V23.4688H16.5163V32Z" fill="white"/>
<path d="M20.141 28.8301V32H18.6586V23.4688H21.9222C22.8754 23.4688 23.6312 23.7168 24.1898 24.2129C24.7523 24.709 25.0336 25.3652 25.0336 26.1816C25.0336 27.0176 24.7582 27.668 24.2074 28.1328C23.6605 28.5977 22.8929 28.8301 21.9047 28.8301H20.141ZM20.141 27.6406H21.9222C22.4496 27.6406 22.8519 27.5176 23.1293 27.2715C23.4066 27.0215 23.5453 26.6621 23.5453 26.1934C23.5453 25.7324 23.4047 25.3652 23.1234 25.0918C22.8422 24.8145 22.4554 24.6719 21.9632 24.6641H20.141V27.6406Z" fill="white"/>
</svg>
