<svg width="36" height="40" viewBox="0 0 36 40" fill="none" xmlns="http://www.w3.org/2000/svg">
<path fill-rule="evenodd" clip-rule="evenodd" d="M8.00043 0C5.79129 0 4.00043 1.79086 4.00043 4V36C4.00043 38.2091 5.79129 40 8.00043 40H32.0004C34.2096 40 36.0004 38.2091 36.0004 36V12L24.0004 0H8.00043Z" fill="#EBECF0"/>
<path d="M24.0003 10V0L36.0003 12H26.0003C24.8958 12 24.0003 11.1046 24.0003 10Z" fill="#C1C7D0"/>
<rect x="0.000320435" y="20" width="32" height="16" rx="2" fill="#24A148"/>
<path d="M11.6315 29.2227C11.5456 30.1328 11.2096 30.8438 10.6237 31.3555C10.0377 31.8633 9.25845 32.1172 8.28579 32.1172C7.6061 32.1172 7.00649 31.957 6.48696 31.6367C5.97134 31.3125 5.5729 30.8535 5.29165 30.2598C5.0104 29.666 4.86391 28.9766 4.8522 28.1914V27.3945C4.8522 26.5898 4.99477 25.8809 5.27993 25.2676C5.56509 24.6543 5.97329 24.1816 6.50454 23.8496C7.0397 23.5176 7.65688 23.3516 8.3561 23.3516C9.29751 23.3516 10.0553 23.6074 10.6295 24.1191C11.2038 24.6309 11.5377 25.3535 11.6315 26.2871H10.1549C10.0846 25.6738 9.90493 25.2324 9.61587 24.9629C9.33071 24.6895 8.91079 24.5527 8.3561 24.5527C7.71157 24.5527 7.21548 24.7891 6.86782 25.2617C6.52407 25.7305 6.34829 26.4199 6.34048 27.3301V28.0859C6.34048 29.0078 6.50454 29.7109 6.83266 30.1953C7.1647 30.6797 7.64907 30.9219 8.28579 30.9219C8.86782 30.9219 9.30532 30.791 9.59829 30.5293C9.89126 30.2676 10.0768 29.832 10.1549 29.2227H11.6315Z" fill="white"/>
<path d="M17.7406 29.8027C17.7406 29.4277 17.6077 29.1387 17.3421 28.9355C17.0804 28.7324 16.6058 28.5273 15.9183 28.3203C15.2308 28.1133 14.6839 27.8828 14.2777 27.6289C13.5003 27.1406 13.1116 26.5039 13.1116 25.7188C13.1116 25.0312 13.3909 24.4648 13.9495 24.0195C14.512 23.5742 15.2406 23.3516 16.1351 23.3516C16.7288 23.3516 17.2581 23.4609 17.723 23.6797C18.1878 23.8984 18.5531 24.2109 18.8187 24.6172C19.0843 25.0195 19.2171 25.4668 19.2171 25.959H17.7406C17.7406 25.5137 17.5999 25.166 17.3187 24.916C17.0413 24.6621 16.6429 24.5352 16.1234 24.5352C15.639 24.5352 15.262 24.6387 14.9925 24.8457C14.7269 25.0527 14.5941 25.3418 14.5941 25.7129C14.5941 26.0254 14.7386 26.2871 15.0277 26.498C15.3167 26.7051 15.7933 26.9082 16.4574 27.1074C17.1214 27.3027 17.6546 27.5273 18.057 27.7812C18.4593 28.0312 18.7542 28.3203 18.9417 28.6484C19.1292 28.9727 19.223 29.3535 19.223 29.791C19.223 30.502 18.9495 31.0684 18.4027 31.4902C17.8597 31.9082 17.1214 32.1172 16.1878 32.1172C15.5706 32.1172 15.0023 32.0039 14.4827 31.7773C13.9671 31.5469 13.5648 31.2305 13.2757 30.8281C12.9906 30.4258 12.848 29.957 12.848 29.4219H14.3304C14.3304 29.9062 14.4906 30.2812 14.8109 30.5469C15.1312 30.8125 15.5902 30.9453 16.1878 30.9453C16.7034 30.9453 17.0902 30.8418 17.348 30.6348C17.6097 30.4238 17.7406 30.1465 17.7406 29.8027Z" fill="white"/>
<path d="M23.8496 30.1426L26.0176 23.4688H27.6465L24.5762 32H23.1406L20.082 23.4688H21.7051L23.8496 30.1426Z" fill="white"/>
</svg>
