<svg width="36" height="40" viewBox="0 0 36 40" fill="none" xmlns="http://www.w3.org/2000/svg">
<path fill-rule="evenodd" clip-rule="evenodd" d="M8.00054 0C5.7914 0 4.00054 1.79086 4.00054 4V36C4.00054 38.2091 5.7914 40 8.00054 40H32.0005C34.2097 40 36.0005 38.2091 36.0005 36V12L24.0005 0H8.00054Z" fill="#EBECF0"/>
<path d="M24.0004 10V0L36.0004 12H26.0004C24.8959 12 24.0004 11.1046 24.0004 10Z" fill="#C1C7D0"/>
<rect x="0.000427246" y="20" width="32" height="16" rx="2" fill="#FF9800"/>
<path d="M8.78394 23.4688H10.2605V29.4512C10.2605 30.2676 10.0046 30.916 9.49293 31.3965C8.98512 31.877 8.31324 32.1172 7.4773 32.1172C6.58668 32.1172 5.89918 31.8926 5.4148 31.4434C4.93043 30.9941 4.68824 30.3691 4.68824 29.5684H6.1648C6.1648 30.0215 6.27613 30.3633 6.49879 30.5938C6.72535 30.8203 7.05152 30.9336 7.4773 30.9336C7.87574 30.9336 8.19215 30.8027 8.42652 30.541C8.6648 30.2754 8.78394 29.9102 8.78394 29.4453V23.4688Z" fill="white"/>
<path d="M13.7621 28.8301V32H12.2797V23.4688H15.5434C16.4965 23.4688 17.2524 23.7168 17.811 24.2129C18.3735 24.709 18.6547 25.3652 18.6547 26.1816C18.6547 27.0176 18.3793 27.668 17.8286 28.1328C17.2817 28.5977 16.5141 28.8301 15.5258 28.8301H13.7621ZM13.7621 27.6406H15.5434C16.0707 27.6406 16.4731 27.5176 16.7504 27.2715C17.0278 27.0215 17.1664 26.6621 17.1664 26.1934C17.1664 25.7324 17.0258 25.3652 16.7446 25.0918C16.4633 24.8145 16.0766 24.6719 15.5844 24.6641H13.7621V27.6406Z" fill="white"/>
<path d="M26.8146 30.8926C26.506 31.2949 26.0782 31.5996 25.5314 31.8066C24.9845 32.0137 24.3634 32.1172 23.6681 32.1172C22.9532 32.1172 22.3204 31.9551 21.7696 31.6309C21.2189 31.3066 20.7931 30.8438 20.4923 30.2422C20.1954 29.6367 20.0411 28.9316 20.0294 28.127V27.459C20.0294 26.1699 20.338 25.1641 20.9552 24.4414C21.5724 23.7148 22.4337 23.3516 23.5392 23.3516C24.4884 23.3516 25.2423 23.5859 25.8009 24.0547C26.3595 24.5234 26.6954 25.1992 26.8087 26.082H25.3556C25.1915 25.0547 24.5958 24.541 23.5685 24.541C22.9044 24.541 22.3986 24.7812 22.0509 25.2617C21.7071 25.7383 21.5294 26.4395 21.5177 27.3652V28.0215C21.5177 28.9434 21.7111 29.6602 22.0978 30.1719C22.4884 30.6797 23.0294 30.9336 23.7208 30.9336C24.4786 30.9336 25.0177 30.7617 25.338 30.418V28.748H23.5802V27.623H26.8146V30.8926Z" fill="white"/>
</svg>
