<svg width="36" height="40" viewBox="0 0 36 40" fill="none" xmlns="http://www.w3.org/2000/svg">
<path fill-rule="evenodd" clip-rule="evenodd" d="M8.00021 0C5.79107 0 4.00021 1.79086 4.00021 4V36C4.00021 38.2091 5.79107 40 8.00021 40H32.0002C34.2094 40 36.0002 38.2091 36.0002 36V12L24.0002 0H8.00021Z" fill="#EBECF0"/>
<path d="M24.0001 10V0L36.0001 12H26.0001C24.8955 12 24.0001 11.1046 24.0001 10Z" fill="#C1C7D0"/>
<rect x="0.000106812" y="20" width="32" height="16" rx="2" fill="#0065FF"/>
<path d="M4.56488 32V23.4688H7.08441C7.83832 23.4688 8.50629 23.6367 9.08832 23.9727C9.67426 24.3086 10.1274 24.7852 10.4477 25.4023C10.768 26.0195 10.9282 26.7266 10.9282 27.5234V27.9512C10.9282 28.7598 10.7661 29.4707 10.4418 30.084C10.1215 30.6973 9.66254 31.1699 9.06488 31.502C8.47113 31.834 7.78949 32 7.01996 32H4.56488ZM6.0473 24.6641V30.8164H7.0141C7.79144 30.8164 8.38715 30.5742 8.80121 30.0898C9.21918 29.6016 9.43207 28.9023 9.43988 27.9922V27.5176C9.43988 26.5918 9.23871 25.8848 8.83636 25.3965C8.43402 24.9082 7.85004 24.6641 7.08441 24.6641H6.0473Z" fill="white"/>
<path d="M19.5333 27.957C19.5333 28.793 19.3888 29.5273 19.0997 30.1602C18.8107 30.7891 18.3966 31.2734 17.8575 31.6133C17.3224 31.9492 16.7052 32.1172 16.006 32.1172C15.3146 32.1172 14.6974 31.9492 14.1544 31.6133C13.6153 31.2734 13.1974 30.791 12.9005 30.166C12.6075 29.541 12.4591 28.8203 12.4552 28.0039V27.5234C12.4552 26.6914 12.6017 25.957 12.8946 25.3203C13.1915 24.6836 13.6075 24.1973 14.1427 23.8613C14.6818 23.5215 15.2989 23.3516 15.9943 23.3516C16.6896 23.3516 17.3048 23.5195 17.84 23.8555C18.379 24.1875 18.795 24.668 19.088 25.2969C19.381 25.9219 19.5294 26.6504 19.5333 27.4824V27.957ZM18.0509 27.5117C18.0509 26.5664 17.8712 25.8418 17.5118 25.3379C17.1564 24.834 16.6505 24.582 15.9943 24.582C15.3536 24.582 14.8517 24.834 14.4884 25.3379C14.129 25.8379 13.9454 26.5469 13.9376 27.4648V27.957C13.9376 28.8945 14.1193 29.6191 14.4825 30.1309C14.8497 30.6426 15.3575 30.8984 16.006 30.8984C16.6622 30.8984 17.1661 30.6484 17.5177 30.1484C17.8732 29.6484 18.0509 28.918 18.0509 27.957V27.5117Z" fill="white"/>
<path d="M27.8396 29.2227C27.7537 30.1328 27.4178 30.8438 26.8318 31.3555C26.2459 31.8633 25.4666 32.1172 24.4939 32.1172C23.8143 32.1172 23.2146 31.957 22.6951 31.6367C22.1795 31.3125 21.7811 30.8535 21.4998 30.2598C21.2186 29.666 21.0721 28.9766 21.0603 28.1914V27.3945C21.0603 26.5898 21.2029 25.8809 21.4881 25.2676C21.7732 24.6543 22.1814 24.1816 22.7127 23.8496C23.2478 23.5176 23.865 23.3516 24.5643 23.3516C25.5057 23.3516 26.2635 23.6074 26.8377 24.1191C27.4119 24.6309 27.7459 25.3535 27.8396 26.2871H26.3631C26.2928 25.6738 26.1131 25.2324 25.824 24.9629C25.5389 24.6895 25.1189 24.5527 24.5643 24.5527C23.9197 24.5527 23.4236 24.7891 23.076 25.2617C22.7322 25.7305 22.5564 26.4199 22.5486 27.3301V28.0859C22.5486 29.0078 22.7127 29.7109 23.0408 30.1953C23.3728 30.6797 23.8572 30.9219 24.4939 30.9219C25.076 30.9219 25.5135 30.791 25.8064 30.5293C26.0994 30.2676 26.285 29.832 26.3631 29.2227H27.8396Z" fill="white"/>
</svg>
