<svg width="36" height="40" viewBox="0 0 36 40" fill="none" xmlns="http://www.w3.org/2000/svg">
<path fill-rule="evenodd" clip-rule="evenodd" d="M8.0009 0C5.79176 0 4.0009 1.79086 4.0009 4V36C4.0009 38.2091 5.79176 40 8.0009 40H32.0009C34.21 40 36.0009 38.2091 36.0009 36V12L24.0009 0H8.0009Z" fill="#EBECF0"/>
<path d="M24.0008 10V0L36.0008 12H26.0008C24.8962 12 24.0008 11.1046 24.0008 10Z" fill="#C1C7D0"/>
<rect x="0.000793457" y="20" width="32" height="16" rx="2" fill="#EE5396"/>
<path d="M5.43925 24.1797H6.79277V29.6636C6.79277 30.4119 6.55823 31.0063 6.08916 31.4468C5.62366 31.8872 5.00778 32.1074 4.2415 32.1074C3.42509 32.1074 2.79489 31.9015 2.35088 31.4897C1.90687 31.078 1.68486 30.505 1.68486 29.771H3.03838C3.03838 30.1864 3.14043 30.4997 3.34453 30.7109C3.55221 30.9186 3.8512 31.0225 4.2415 31.0225C4.60674 31.0225 4.89677 30.9025 5.11162 30.6626C5.33004 30.4191 5.43925 30.0843 5.43925 29.6582V24.1797Z" fill="white"/>
<path d="M12.7578 29.9858C12.7578 29.6421 12.636 29.3771 12.3926 29.1909C12.1526 29.0047 11.7176 28.8167 11.0874 28.627C10.4572 28.4372 9.95587 28.2259 9.58347 27.9932C8.87091 27.5456 8.51463 26.9619 8.51463 26.2422C8.51463 25.612 8.77065 25.0928 9.28269 24.6846C9.79832 24.2764 10.4661 24.0723 11.2861 24.0723C11.8304 24.0723 12.3156 24.1725 12.7417 24.373C13.1678 24.5736 13.5026 24.86 13.7461 25.2324C13.9896 25.6012 14.1113 26.0112 14.1113 26.4624H12.7578C12.7578 26.0542 12.6289 25.7355 12.3711 25.5063C12.1168 25.2736 11.7516 25.1572 11.2754 25.1572C10.8314 25.1572 10.4858 25.2521 10.2387 25.4419C9.99526 25.6317 9.87351 25.8966 9.87351 26.2368C9.87351 26.5233 10.006 26.7632 10.271 26.9565C10.5359 27.1463 10.9728 27.3325 11.5815 27.5151C12.1902 27.6942 12.679 27.9001 13.0478 28.1328C13.4166 28.362 13.687 28.627 13.8589 28.9277C14.0307 29.2249 14.1167 29.5741 14.1167 29.9751C14.1167 30.6268 13.866 31.146 13.3647 31.5327C12.867 31.9159 12.1902 32.1074 11.3344 32.1074C10.7687 32.1074 10.2477 32.0036 9.77146 31.7959C9.29881 31.5846 8.92999 31.2946 8.66502 30.9258C8.40362 30.557 8.27293 30.1273 8.27293 29.6367H9.63181C9.63181 30.0807 9.77862 30.4245 10.0722 30.668C10.3659 30.9115 10.7866 31.0332 11.3344 31.0332C11.8071 31.0332 12.1616 30.9383 12.3979 30.7485C12.6378 30.5552 12.7578 30.3009 12.7578 29.9858Z" fill="white"/>
<path d="M21.8703 28.2939C21.8703 29.0602 21.7378 29.7334 21.4728 30.3135C21.2078 30.89 20.8283 31.334 20.3341 31.6455C19.8436 31.9535 19.2778 32.1074 18.6369 32.1074C18.0031 32.1074 17.4373 31.9535 16.9396 31.6455C16.4455 31.334 16.0623 30.8918 15.7902 30.3188C15.5216 29.7459 15.3856 29.0853 15.382 28.3369V27.8965C15.382 27.1338 15.5163 26.4606 15.7848 25.877C16.057 25.2933 16.4383 24.8475 16.9289 24.5396C17.423 24.228 17.9888 24.0723 18.6261 24.0723C19.2635 24.0723 19.8275 24.2262 20.318 24.5342C20.8122 24.8385 21.1935 25.279 21.4621 25.8555C21.7306 26.4284 21.8667 27.0962 21.8703 27.8589V28.2939ZM20.5114 27.8857C20.5114 27.0192 20.3467 26.355 20.0172 25.8931C19.6914 25.4312 19.2277 25.2002 18.6261 25.2002C18.0389 25.2002 17.5788 25.4312 17.2458 25.8931C16.9163 26.3514 16.748 27.0013 16.7409 27.8428V28.2939C16.7409 29.1533 16.9074 29.8175 17.2404 30.2866C17.577 30.7557 18.0425 30.9902 18.6369 30.9902C19.2384 30.9902 19.7003 30.7611 20.0226 30.3027C20.3485 29.8444 20.5114 29.1748 20.5114 28.2939V27.8857Z" fill="white"/>
<path d="M29.7474 32H28.3885L24.9027 26.4517V32H23.5438V24.1797H24.9027L28.3993 29.7495V24.1797H29.7474V32Z" fill="white"/>
</svg>
