<svg viewBox="0 0 24 24" fill="none" xmlns="http://www.w3.org/2000/svg">
<path fill-rule="evenodd" clip-rule="evenodd" d="M6.39 8.66001L12.76 2.29001C13.15 1.90001 13.78 1.90001 14.16 2.30001L19.11 7.25001C19.5 7.64001 19.5 8.27001 19.11 8.66001L12.75 15.02C12.36 15.41 11.73 15.41 11.34 15.02L6.39 10.07C6 9.68001 6 9.05001 6.39 8.66001ZM17 7.95001L12.05 12.9L8.51 9.36001L13.46 4.41001L17 7.95001ZM18 13H17.32L15.32 15H17.23L19 17H5L6.78 15H8.83L6.83 13H6L3 16V20C3 21.1 3.89 22 4.99 22H19C20.1 22 21 21.11 21 20V16L18 13Z" fill="#172B4D"/>
</svg>
