<svg viewBox="0 0 24 24" fill="none" xmlns="http://www.w3.org/2000/svg">
<path fill-rule="evenodd" clip-rule="evenodd" d="M1 2.98999L2.41 1.57999L22.42 21.59L21.01 23L17.37 19.36L15.73 21H8.27L3 15.73V8.26999L4.64 6.62999L1 2.98999ZM13 6.99999H11V7.32999L7.47 3.79999L8.27 2.99999H15.73L21 8.26999V15.73L20.2 16.53L13 9.32999V6.99999ZM11 12.99L11.01 13H11V12.99ZM10.7 16C10.7 16.72 11.28 17.3 12 17.3C12.72 17.3 13.3 16.72 13.3 16C13.3 15.28 12.72 14.7 12 14.7C11.28 14.7 10.7 15.28 10.7 16Z" fill="#172B4D"/>
</svg>
