<svg viewBox="0 0 24 24" fill="none" xmlns="http://www.w3.org/2000/svg">
  <path d="M6 3.75H1.5C1.08579 3.75 0.75 4.08579 0.75 4.5V6C0.75 6.41421 1.08579 6.75 1.5 6.75H6C6.41421 6.75 6.75 6.41421 6.75 6V4.5C6.75 4.08579 6.41421 3.75 6 3.75Z" stroke="#172B4D" stroke-linecap="round" stroke-linejoin="round"/>
  <path d="M22.5 3.75H18C17.5858 3.75 17.25 4.08579 17.25 4.5V6C17.25 6.41421 17.5858 6.75 18 6.75H22.5C22.9142 6.75 23.25 6.41421 23.25 6V4.5C23.25 4.08579 22.9142 3.75 22.5 3.75Z" stroke="#172B4D" stroke-linecap="round" stroke-linejoin="round"/>
  <path d="M6 18.75H1.5C1.08579 18.75 0.75 19.0858 0.75 19.5V21C0.75 21.4142 1.08579 21.75 1.5 21.75H6C6.41421 21.75 6.75 21.4142 6.75 21V19.5C6.75 19.0858 6.41421 18.75 6 18.75Z" stroke="#172B4D" stroke-linecap="round" stroke-linejoin="round"/>
  <path d="M22.5 18.75H18C17.5858 18.75 17.25 19.0858 17.25 19.5V21C17.25 21.4142 17.5858 21.75 18 21.75H22.5C22.9142 21.75 23.25 21.4142 23.25 21V19.5C23.25 19.0858 22.9142 18.75 22.5 18.75Z" stroke="#172B4D" stroke-linecap="round" stroke-linejoin="round"/>
  <path d="M20.25 18.75V6.75" stroke="#172B4D" stroke-linecap="round" stroke-linejoin="round"/>
  <path d="M3.75 18.75V6.75" stroke="#172B4D" stroke-linecap="round" stroke-linejoin="round"/>
  <path d="M20.25 12.75H3.75" stroke="#172B4D" stroke-linecap="round" stroke-linejoin="round"/>
  <path fill-rule="evenodd" clip-rule="evenodd" d="M3.75 15C4.99265 15 6 13.9926 6 12.75C6 11.5074 4.99265 10.5 3.75 10.5C2.50735 10.5 1.5 11.5074 1.5 12.75C1.5 13.9926 2.50735 15 3.75 15Z" fill="#172B4D"/>
  <path fill-rule="evenodd" clip-rule="evenodd" d="M20.25 15C21.4926 15 22.5 13.9926 22.5 12.75C22.5 11.5074 21.4926 10.5 20.25 10.5C19.0074 10.5 18 11.5074 18 12.75C18 13.9926 19.0074 15 20.25 15Z" fill="#172B4D"/>
</svg>
