<svg width="20" height="20" viewBox="0 0 20 20" fill="none" xmlns="http://www.w3.org/2000/svg">
  <path d="M9.29233 17.0575H10.6577V15.846C11.4333 15.7408 12.1356 15.4495 12.7644 14.9719C13.3933 14.4944 13.7077 13.7703 13.7077 12.7998C13.7077 12.0998 13.5013 11.4806 13.0885 10.9421C12.6756 10.4037 11.8692 9.91778 10.6692 9.48445C9.61793 9.12547 8.91985 8.81456 8.57498 8.55175C8.23011 8.28893 8.05768 7.92162 8.05768 7.44982C8.05768 6.97802 8.23429 6.59469 8.58751 6.29982C8.94071 6.00494 9.42821 5.8575 10.05 5.8575C10.5705 5.8575 10.9904 5.98026 11.3096 6.22577C11.6289 6.47129 11.8744 6.7793 12.0462 7.1498L13.2808 6.65367C13.0718 6.12162 12.7311 5.66617 12.2586 5.28732C11.7862 4.90849 11.2692 4.69727 10.7077 4.65367V3.44215H9.34233V4.65367C8.48976 4.81777 7.83496 5.16361 7.37791 5.69117C6.92086 6.21874 6.69233 6.80496 6.69233 7.44982C6.69233 8.20111 6.9199 8.80559 7.37503 9.26327C7.83015 9.72097 8.57181 10.1344 9.60003 10.5037C10.6628 10.8934 11.3888 11.2431 11.7779 11.5527C12.167 11.8623 12.3616 12.278 12.3616 12.7998C12.3616 13.4268 12.1353 13.8822 11.6827 14.1662C11.2301 14.4502 10.7192 14.5921 10.15 14.5921C9.58719 14.5921 9.08366 14.4229 8.63943 14.0844C8.1952 13.746 7.85385 13.2511 7.61538 12.5998L6.35003 13.1152C6.609 13.8575 6.98111 14.4473 7.46638 14.8844C7.95163 15.3216 8.56028 15.6255 9.29233 15.796V17.0575ZM10 19.7498C8.68719 19.7498 7.4529 19.5001 6.29713 19.0007C5.14136 18.5014 4.13592 17.8242 3.28081 16.969C2.42567 16.1139 1.74843 15.1085 1.24908 13.9527C0.749714 12.7969 0.500031 11.5626 0.500031 10.2498C0.500031 8.93701 0.749714 7.70271 1.24908 6.54695C1.74843 5.39118 2.42567 4.38574 3.28081 3.53062C4.13592 2.67549 5.14136 1.99825 6.29713 1.4989C7.4529 0.999531 8.68719 0.749847 10 0.749847C11.3128 0.749847 12.5471 0.999531 13.7029 1.4989C14.8586 1.99825 15.8641 2.67549 16.7192 3.53062C17.5743 4.38574 18.2516 5.39118 18.7509 6.54695C19.2503 7.70271 19.5 8.93701 19.5 10.2498C19.5 11.5626 19.2503 12.7969 18.7509 13.9527C18.2516 15.1085 17.5743 16.1139 16.7192 16.969C15.8641 17.8242 14.8586 18.5014 13.7029 19.0007C12.5471 19.5001 11.3128 19.7498 10 19.7498ZM10 18.2498C12.2333 18.2498 14.125 17.4748 15.675 15.9248C17.225 14.3748 18 12.4832 18 10.2498C18 8.01649 17.225 6.12482 15.675 4.57482C14.125 3.02482 12.2333 2.24982 10 2.24982C7.76667 2.24982 5.87501 3.02482 4.32501 4.57482C2.77501 6.12482 2.00001 8.01649 2.00001 10.2498C2.00001 12.4832 2.77501 14.3748 4.32501 15.9248C5.87501 17.4748 7.76667 18.2498 10 18.2498Z" fill="#172B4D"/>
</svg>
