<svg viewBox="0 0 24 24" fill="none" xmlns="http://www.w3.org/2000/svg">
  <path d="M5.25 6.74963V10.4996" stroke="#172B4D" stroke-linecap="round" stroke-linejoin="round"/>
  <path d="M12.75 7.49963V16.4997" stroke="#172B4D" stroke-linecap="round" stroke-linejoin="round"/>
  <path d="M5.25 17.2497V14.9996C5.25 13.757 6.25736 12.7496 7.5 12.7496H18C19.2426 12.7496 20.25 11.7423 20.25 10.4996V6.74963" stroke="#172B4D" stroke-linecap="round" stroke-linejoin="round"/>
  <path d="M6.75 5.24963C6.75 6.07805 6.07842 6.74963 5.25 6.74963C4.42158 6.74963 3.75 6.07805 3.75 5.24963C3.75 4.4212 4.42158 3.74963 5.25 3.74963C6.07842 3.74963 6.75 4.4212 6.75 5.24963Z" stroke="#172B4D" stroke-linecap="round"/>
  <path d="M14.25 5.24963C14.25 6.07805 13.5784 6.74963 12.75 6.74963C11.9216 6.74963 11.25 6.07805 11.25 5.24963C11.25 4.4212 11.9216 3.74963 12.75 3.74963C13.5784 3.74963 14.25 4.4212 14.25 5.24963Z" stroke="#172B4D" stroke-linecap="round"/>
  <path d="M21.75 5.24963C21.75 6.07805 21.0784 6.74963 20.25 6.74963C19.4216 6.74963 18.75 6.07805 18.75 5.24963C18.75 4.4212 19.4216 3.74963 20.25 3.74963C21.0784 3.74963 21.75 4.4212 21.75 5.24963Z" stroke="#172B4D" stroke-linecap="round"/>
  <path d="M6.75 18.7497C6.75 19.578 6.07842 20.2497 5.25 20.2497C4.42158 20.2497 3.75 19.578 3.75 18.7497C3.75 17.9212 4.42158 17.2497 5.25 17.2497C6.07842 17.2497 6.75 17.9212 6.75 18.7497Z" stroke="#172B4D" stroke-linecap="round"/>
  <path d="M14.25 18.7497C14.25 19.578 13.5784 20.2497 12.75 20.2497C11.9216 20.2497 11.25 19.578 11.25 18.7497C11.25 17.9212 11.9216 17.2497 12.75 17.2497C13.5784 17.2497 14.25 17.9212 14.25 18.7497Z" stroke="#172B4D" stroke-linecap="round"/>
</svg>
