<svg viewBox="0 0 24 24" fill="none" xmlns="http://www.w3.org/2000/svg">
<path fill-rule="evenodd" clip-rule="evenodd" d="M0 3.12001L4 7.12001V10H1V12H4V15H6V12H8.88L11.39 14.51C9.19 15.11 7 16.3 7 18V20H16.88L20.88 24L22.29 22.59L1.41 1.71001L0 3.12001ZM14.6036 11.9657L14.6034 11.9657C14.5622 11.9603 14.5211 11.9548 14.48 11.95L11.05 8.52001C11.0452 8.4789 11.0397 8.4378 11.0343 8.39656L11.0343 8.39644L11.0343 8.39643C11.0172 8.26713 11 8.13644 11 8.00001C11 5.79001 12.79 4.00001 15 4.00001C17.21 4.00001 19 5.79001 19 8.00001C19 10.21 17.21 12 15 12C14.8636 12 14.7329 11.9828 14.6036 11.9657L14.6036 11.9657ZM22.53 20L16.69 14.16C19.44 14.5 23 15.86 23 18V20H22.53ZM6 10H6.88L6 9.12001V10Z" fill="#172B4D"/>
</svg>
