<svg width="16" height="16" viewBox="0 0 16 16" fill="none" xmlns="http://www.w3.org/2000/svg">
<path fill-rule="evenodd" clip-rule="evenodd" d="M12.6667 4.66671V6.66004C12.6667 6.66004 11.34 6.66671 11.3333 6.66004V4.66671H9.33333C9.33333 4.66671 9.34 3.34004 9.33333 3.33337H11.3333V1.33337H12.6667V3.33337H14.6667V4.66671H12.6667ZM10.6667 7.33337V5.33337H8.66667V3.33337H3.33333C2.6 3.33337 2 3.93337 2 4.66671V12.6667C2 13.4 2.6 14 3.33333 14H11.3333C12.0667 14 12.6667 13.4 12.6667 12.6667V7.33337H10.6667ZM5.33333 10L3.33333 12.6667H11.3333L8.66667 9.33337L6.66667 12L5.33333 10Z" fill="#172B4D"/>
</svg>
