<svg
	width="70"
	height="44"
	viewBox="0 0 70 44"
	fill="none"
	xmlns="http://www.w3.org/2000/svg"
>
	<path
		d="M41.8701 35.9219V41.8024C41.8701 41.8024 41.8701 43.0005 40.9316 43.0005"
		stroke="currentColor"
		stroke-width="0.8"
		stroke-miterlimit="10"
		stroke-linecap="round"
		stroke-linejoin="round"
	/>
	<path
		d="M16.1095 11.0854H9.11606C9.11606 8.54011 7.85449 2.61769 7.85449 2.61769V1.53991C11.9567 0.951335 16.1095 1.00104 16.1095 1.00104H24.9124L23.1001 11.0854H16.1095Z"
		stroke="currentColor"
		stroke-width="0.8"
		stroke-miterlimit="10"
		stroke-linecap="round"
		stroke-linejoin="round"
	/>
	<path
		d="M16.1087 11.0859H9.11523V16.9116H16.1087H23.1021V11.0859H16.1087Z"
		stroke="currentColor"
		stroke-width="0.8"
		stroke-miterlimit="10"
		stroke-linecap="round"
		stroke-linejoin="round"
	/>
	<path
		d="M16.1087 16.9121H9.11523V21.9059C9.11523 21.9059 9.91882 21.1054 11.3911 21.1054C12.8634 21.1054 19.3539 21.1054 20.8262 21.1054C22.2985 21.1054 23.1021 21.9059 23.1021 21.9059V16.9121H16.1087Z"
		stroke="currentColor"
		stroke-width="0.8"
		stroke-miterlimit="10"
		stroke-linecap="round"
		stroke-linejoin="round"
	/>
	<path
		d="M16.1093 27.8691H9.08496L9.18892 32.4208H16.1093H23.1027V27.8691H16.1093Z"
		stroke="currentColor"
		stroke-width="0.8"
		stroke-miterlimit="10"
		stroke-linecap="round"
		stroke-linejoin="round"
	/>
	<path
		d="M16.1079 32.4219H9.1875L9.36451 35.922H16.1079H23.1013V32.4219H16.1079Z"
		stroke="currentColor"
		stroke-width="0.8"
		stroke-miterlimit="10"
		stroke-linecap="round"
		stroke-linejoin="round"
	/>
	<path
		d="M16.1084 27.8692H23.1018V21.9023"
		stroke="currentColor"
		stroke-width="0.8"
		stroke-miterlimit="10"
		stroke-linecap="round"
		stroke-linejoin="round"
	/>
	<path
		d="M9.08433 27.8686L9.11523 21.9017C9.11523 21.9017 8.85393 21.1666 7.85367 20.7769C6.8534 20.3871 3.19795 18.9902 3.19795 18.9902C3.19795 18.9902 1.64698 18.5246 1.62169 20.2877C1.5964 22.0508 1.01759 38.1544 1.01759 38.1544C1.01759 38.1544 0.674811 41.7277 3.01532 41.7277C5.35582 41.7277 9.3653 41.7277 9.3653 41.7277"
		stroke="currentColor"
		stroke-width="0.8"
		stroke-miterlimit="10"
		stroke-linecap="round"
		stroke-linejoin="round"
	/>
	<path
		d="M23.102 35.9219C23.102 35.9219 22.1635 37.9832 22.1635 43.0005H10.3486C10.3486 43.0005 10.2166 37.8367 9.36523 35.9219H23.102Z"
		stroke="currentColor"
		stroke-width="0.8"
		stroke-miterlimit="10"
		stroke-linecap="round"
		stroke-linejoin="round"
	/>
	<path
		d="M23.1015 35.9219V41.8024C23.1015 41.8024 23.1015 43.0005 22.1631 43.0005"
		stroke="currentColor"
		stroke-width="0.8"
		stroke-miterlimit="10"
		stroke-linecap="round"
		stroke-linejoin="round"
	/>
	<path
		d="M9.36523 35.9219V41.8338C9.36523 41.8338 9.36523 43.0005 10.3486 43.0005"
		stroke="currentColor"
		stroke-width="0.8"
		stroke-miterlimit="10"
		stroke-linecap="round"
		stroke-linejoin="round"
	/>
	<path
		d="M7.85027 1.54102C7.85027 1.54102 2.82367 1.5201 2.35444 8.09127C1.88241 14.7148 2.18586 19.0702 2.18586 19.0702"
		stroke="currentColor"
		stroke-width="0.8"
		stroke-miterlimit="10"
		stroke-linecap="round"
		stroke-linejoin="round"
	/>
	<path
		d="M28.1338 35.9219V41.8024C28.1338 41.8024 28.1338 43.0005 29.0722 43.0005"
		stroke="currentColor"
		stroke-width="0.8"
		stroke-miterlimit="10"
		stroke-linecap="round"
		stroke-linejoin="round"
	/>
	<path
		d="M35.0008 35.9219H28.1338C28.1338 35.9219 29.0722 37.9832 29.0722 43.0005H35.0036H40.9349C40.9349 37.9832 41.8734 35.9219 41.8734 35.9219H35.0008Z"
		stroke="currentColor"
		stroke-width="0.8"
		stroke-miterlimit="10"
		stroke-linecap="round"
		stroke-linejoin="round"
	/>
	<path
		d="M41.4025 18.7617C40.2898 18.7617 35.0019 18.7617 35.0019 18.7617C35.0019 18.7617 29.714 18.7617 28.6014 18.7617C27.4887 18.7617 27.5758 19.4052 27.5758 19.4052C27.5758 19.4052 27.5758 26.0706 27.5758 29.7904C27.5758 33.5102 28.1321 35.9195 28.1321 35.9195H34.9991H41.8661C41.8661 35.9195 42.4224 33.5102 42.4224 29.7904C42.4224 26.0706 42.4224 19.4052 42.4224 19.4052C42.4224 19.4052 42.5151 18.7617 41.4025 18.7617Z"
		stroke="currentColor"
		stroke-width="0.8"
		stroke-miterlimit="10"
		stroke-linecap="round"
		stroke-linejoin="round"
	/>
	<path
		d="M35.0009 1.00195H27.3669V18.4684C27.3669 18.4684 27.3135 19.0622 27.69 19.0622"
		stroke="currentColor"
		stroke-width="0.8"
		stroke-miterlimit="10"
		stroke-linecap="round"
		stroke-linejoin="round"
	/>
	<path
		d="M35.002 1.00195H42.636V18.4684C42.636 18.4684 42.6894 19.0622 42.3129 19.0622"
		stroke="currentColor"
		stroke-width="0.8"
		stroke-miterlimit="10"
		stroke-linecap="round"
		stroke-linejoin="round"
	/>
	<path
		d="M24.9111 1.00195H27.3668"
		stroke="currentColor"
		stroke-width="0.8"
		stroke-miterlimit="10"
		stroke-linecap="round"
		stroke-linejoin="round"
	/>
	<path
		d="M27.3884 18.7617C27.3884 18.7617 27.0147 18.7827 26.6072 19.1123C26.1998 19.4419 23.8874 21.1448 23.8874 21.1448C23.8874 21.1448 23.1035 21.7072 23.1035 22.1232"
		stroke="currentColor"
		stroke-width="0.8"
		stroke-miterlimit="10"
		stroke-linecap="round"
		stroke-linejoin="round"
	/>
	<path
		d="M23.1035 41.6875H28.1357"
		stroke="currentColor"
		stroke-width="0.8"
		stroke-miterlimit="10"
		stroke-linecap="round"
		stroke-linejoin="round"
	/>
	<path
		d="M53.8947 11.0854H60.8881C60.8881 8.54011 62.1497 2.61769 62.1497 2.61769V1.53991C58.0475 0.951335 53.8947 1.00104 53.8947 1.00104H45.0918L46.9041 11.0854H53.8947Z"
		stroke="currentColor"
		stroke-width="0.8"
		stroke-miterlimit="10"
		stroke-linecap="round"
		stroke-linejoin="round"
	/>
	<path
		d="M53.8928 11.0859H60.8862V16.9116H53.8928H46.8994V11.0859H53.8928Z"
		stroke="currentColor"
		stroke-width="0.8"
		stroke-miterlimit="10"
		stroke-linecap="round"
		stroke-linejoin="round"
	/>
	<path
		d="M53.8928 16.9121H60.8862V21.9059C60.8862 21.9059 60.0827 21.1054 58.6104 21.1054C57.1381 21.1054 50.6476 21.1054 49.1753 21.1054C47.703 21.1054 46.8994 21.9059 46.8994 21.9059V16.9121H53.8928Z"
		stroke="currentColor"
		stroke-width="0.8"
		stroke-miterlimit="10"
		stroke-linecap="round"
		stroke-linejoin="round"
	/>
	<path
		d="M53.8928 27.8691H60.9171L60.8132 32.4208H53.8928H46.8994V27.8691H53.8928Z"
		stroke="currentColor"
		stroke-width="0.8"
		stroke-miterlimit="10"
		stroke-linecap="round"
		stroke-linejoin="round"
	/>
	<path
		d="M53.8928 32.4219H60.8132L60.6362 35.922H53.8928H46.8994V32.4219H53.8928Z"
		stroke="currentColor"
		stroke-width="0.8"
		stroke-miterlimit="10"
		stroke-linecap="round"
		stroke-linejoin="round"
	/>
	<path
		d="M53.8928 27.8692H46.8994V21.9023"
		stroke="currentColor"
		stroke-width="0.8"
		stroke-miterlimit="10"
		stroke-linecap="round"
		stroke-linejoin="round"
	/>
	<path
		d="M60.9157 27.8676L60.8848 21.9007C60.8848 21.9007 61.1461 21.1657 62.1464 20.7759C63.1467 20.3861 66.8021 18.9892 66.8021 18.9892C66.8021 18.9892 68.3531 18.5236 68.3784 20.2867C68.4037 22.0498 68.9825 38.1534 68.9825 38.1534C68.9825 38.1534 69.3253 41.7267 66.9848 41.7267C64.6443 41.7267 60.6348 41.7267 60.6348 41.7267"
		stroke="currentColor"
		stroke-width="0.8"
		stroke-miterlimit="10"
		stroke-linecap="round"
		stroke-linejoin="round"
	/>
	<path
		d="M46.8994 35.9219C46.8994 35.9219 47.8379 37.9832 47.8379 43.0005H59.6528C59.6528 43.0005 59.7848 37.8367 60.6362 35.9219H46.8994Z"
		stroke="currentColor"
		stroke-width="0.8"
		stroke-miterlimit="10"
		stroke-linecap="round"
		stroke-linejoin="round"
	/>
	<path
		d="M46.8994 35.9219V41.8024C46.8994 41.8024 46.8994 43.0005 47.8379 43.0005"
		stroke="currentColor"
		stroke-width="0.8"
		stroke-miterlimit="10"
		stroke-linecap="round"
		stroke-linejoin="round"
	/>
	<path
		d="M60.6357 35.9219V41.8338C60.6357 41.8338 60.6357 43.0005 59.6523 43.0005"
		stroke="currentColor"
		stroke-width="0.8"
		stroke-miterlimit="10"
		stroke-linecap="round"
		stroke-linejoin="round"
	/>
	<path
		d="M62.1465 1.54102C62.1465 1.54102 67.1731 1.5201 67.6423 8.09127C68.1143 14.7148 67.8109 19.0702 67.8109 19.0702"
		stroke="currentColor"
		stroke-width="0.8"
		stroke-miterlimit="10"
		stroke-linecap="round"
		stroke-linejoin="round"
	/>
	<path
		d="M45.0924 1.00195H42.6367"
		stroke="currentColor"
		stroke-width="0.8"
		stroke-miterlimit="10"
		stroke-linecap="round"
		stroke-linejoin="round"
	/>
	<path
		d="M42.6162 18.7617C42.6162 18.7617 42.9899 18.7827 43.3973 19.1123C43.8047 19.4419 46.1171 21.1448 46.1171 21.1448C46.1171 21.1448 46.901 21.7072 46.901 22.1232"
		stroke="currentColor"
		stroke-width="0.8"
		stroke-miterlimit="10"
		stroke-linecap="round"
		stroke-linejoin="round"
	/>
	<path
		d="M46.9015 41.6875H41.8721"
		stroke="currentColor"
		stroke-width="0.8"
		stroke-miterlimit="10"
		stroke-linecap="round"
		stroke-linejoin="round"
	/>
</svg>