<svg
	width="32"
	height="94"
	viewBox="0 0 32 94"
	fill="none"
	xmlns="http://www.w3.org/2000/svg"
>
	<path
		d="M7.64883 18.4729C7.64883 18.4729 1.00423 25.6738 1.00423 32.9392H1V52.2921V65.4757C1 76.406 1.79837 89.2027 1.79837 89.2027C5.45649 90.4923 19.806 92.2772 27.9544 93V88.3036C21.276 88.4733 13.8837 87.2856 10.5044 86.6069C8.39228 86.1827 6.79555 84.798 6.59701 83.6578C5.87468 79.528 5.55787 71.0749 5.55787 71.0749C5.55787 71.0749 5.46916 54.1076 5.55787 53.2592C5.64658 52.4109 6.49141 51.9019 7.54745 51.7748C8.60349 51.6477 29.9059 50.0083 29.9059 50.0083C29.9059 50.0083 30.1467 45.9633 30.1467 44.7756C29.247 44.779 28.5415 44.6874 27.8234 44.7756L6.65615 47.3512C5.87046 47.4463 5.16502 46.961 5.16502 46.323C5.16502 46.323 4.89468 39.1764 5.16502 35.1042C5.43537 31.0321 5.8071 28.8739 8.26134 25.287C10.7156 21.7001 11.5604 21.1911 14.7285 17.6279L24.8665 7.44757C25.9226 6.42953 27.8234 6.5992 31 6.42953V1L24.4737 1.82122C23.4894 1.94338 22.6024 2.37435 22.0068 3.01571L7.64883 18.4729Z"
		stroke="currentColor"
		stroke-width="0.8"
		stroke-miterlimit="10"
		stroke-linecap="round"
		stroke-linejoin="round"
	/>
</svg>