<svg
	width="32"
	height="94"
	viewBox="0 0 32 94"
	fill="none"
	xmlns="http://www.w3.org/2000/svg"
>
	<path
		d="M24.3512 18.4729C24.3512 18.4729 30.9958 25.6738 30.9958 32.9392H31V52.2921V65.4757C31 76.406 30.2016 89.2027 30.2016 89.2027C26.5435 90.4923 12.194 92.2772 4.04562 93V88.3036C10.724 88.4733 18.1163 87.2856 21.4956 86.6069C23.6077 86.1827 25.2044 84.798 25.403 83.6578C26.1253 79.528 26.4421 71.0749 26.4421 71.0749C26.4421 71.0749 26.5308 54.1076 26.4421 53.2592C26.3534 52.4109 25.5086 51.9019 24.4525 51.7748C23.3965 51.6477 2.09405 50.0083 2.09405 50.0083C2.09405 50.0083 1.85328 45.9633 1.85328 44.7756C2.75303 44.779 3.45846 44.6874 4.17657 44.7756L25.3438 47.3512C26.1295 47.4463 26.835 46.961 26.835 46.323C26.835 46.323 27.1053 39.1764 26.835 35.1042C26.5646 31.0321 26.1929 28.8739 23.7387 25.287C21.2844 21.7001 20.4396 21.1911 17.2715 17.6279L7.13348 7.44757C6.07744 6.42953 4.17657 6.5992 0.999998 6.42953V1L7.52633 1.82122C8.51056 1.94338 9.39763 2.37435 9.99324 3.01571L24.3512 18.4729Z"
		stroke="currentColor"
		stroke-width="0.8"
		stroke-miterlimit="10"
		stroke-linecap="round"
		stroke-linejoin="round"
	/>
</svg>