<svg
	width="72"
	height="32"
	viewBox="0 0 72 32"
	fill="none"
	xmlns="http://www.w3.org/2000/svg"
>
	<path
		d="M56.6731 9.69135L56.001 7.04034L50.2227 5.29987V5.30584C50.4467 5.53273 50.6236 5.81335 50.7209 6.13577C50.9833 6.99854 51.1572 7.94789 51.2751 8.75991C51.2751 8.75693 51.2751 8.75394 51.2751 8.75394C54.7657 9.43759 57.4337 10.5601 57.4367 10.5601C57.0564 10.4108 56.7734 10.0884 56.6731 9.69135Z"
		stroke="currentColor"
		stroke-miterlimit="10"
		stroke-linecap="round"
		stroke-linejoin="round"
	/>
	<path
		d="M15.3222 9.69135L15.9943 7.04034L21.7726 5.29987V5.30584C21.5486 5.53273 21.3717 5.81335 21.2744 6.13577C21.012 6.99854 20.8381 7.94789 20.7202 8.75991C20.7202 8.75693 20.7202 8.75394 20.7202 8.75394C17.2296 9.43759 14.5615 10.5601 14.5586 10.5601C14.936 10.4108 15.219 10.0884 15.3222 9.69135Z"
		stroke="currentColor"
		stroke-miterlimit="10"
		stroke-linecap="round"
		stroke-linejoin="round"
	/>
	<path
		d="M70.2129 17.3688C69.8768 14.8044 68.612 8.61867 62.3561 5.03622C56.1002 1.45378 45.5607 1 45.5607 1H35.9971H26.4334C26.4334 1 15.8939 1.45378 9.63797 5.03622C3.38207 8.61867 2.11439 14.8044 1.78125 17.3688C1.44516 19.9332 1 31 1 31C1 31 3.12264 27.3996 4.83549 24.7964L6.17689 23.6261L6.36262 22.5693C6.36262 22.5693 7.40625 21.0229 8.52358 20.4198C9.49646 19.8944 13.2907 18.1987 14.2577 17.7658C14.408 17.7002 14.5672 17.6643 14.7294 17.6643H15.3956C15.6934 17.6643 15.9351 17.9091 15.9351 18.2107V18.7749C15.9351 19.0615 15.8968 19.3481 15.8231 19.6287L14.6114 24.1725L16.3449 23.9605C16.3449 23.9605 18.1698 23.9217 18.6533 22.4887C18.9982 21.4707 19.5672 19.4615 19.8679 18.3838C19.9917 17.942 20.3632 17.6196 20.8113 17.5658C22.816 17.318 29.3638 16.6822 36 16.6822C42.6333 16.6822 49.184 17.318 51.1887 17.5658C51.6397 17.6225 52.0083 17.945 52.1321 18.3838C52.4328 19.4615 53.0018 21.4707 53.3467 22.4887C53.8302 23.9217 55.6551 23.9605 55.6551 23.9605L57.3886 24.1725L56.1769 19.6287C56.1032 19.3511 56.0649 19.0645 56.0649 18.7749V18.2107C56.0649 17.9091 56.3066 17.6643 56.6044 17.6643H57.2706C57.4328 17.6643 57.592 17.6972 57.7423 17.7658C58.7093 18.1957 62.5035 19.8944 63.4764 20.4198C64.5938 21.0229 65.6374 22.5693 65.6374 22.5693L65.8231 23.6261L67.1645 24.7964C68.8774 27.3996 71 31 71 31C71 31 70.5489 19.9332 70.2129 17.3688ZM63.8715 11.6697C63.8715 12.0847 63.5413 12.419 63.1315 12.419H62.1675L57.4328 10.5621C57.4328 10.5621 54.7647 9.43965 51.2712 8.756C51.3243 9.13215 51.3685 9.47846 51.398 9.77102C51.4481 10.2397 51.0531 10.6308 50.5902 10.5711C45.0301 9.84267 35.9971 9.63966 35.9971 9.63966C35.9971 9.63966 26.9611 9.84267 21.4039 10.5711C20.941 10.6308 20.546 10.2427 20.5961 9.77102C20.6256 9.47846 20.6698 9.13215 20.7229 8.756C17.2294 9.43965 14.5613 10.5621 14.5613 10.5621L9.8296 12.419H8.86557C8.45578 12.419 8.12559 12.0847 8.12559 11.6697V11.1174C8.12559 9.75013 9.63797 8.59479 10.263 8.17385C10.4222 8.06638 10.5961 7.98278 10.7818 7.92308L15.3514 6.42442C15.7317 6.29903 16.0973 6.64832 15.9971 7.03941L21.7754 5.29893V5.30491C22.0967 4.9795 22.5183 4.76455 22.99 4.71679C25.2129 4.49288 30.9351 4.05403 36 4.05403C41.0678 4.05403 46.7872 4.49288 49.01 4.71679C49.4817 4.76455 49.9063 4.9795 50.2247 5.30491V5.29893L56.003 7.03941C55.9027 6.64832 56.2683 6.29903 56.6486 6.42442L61.2182 7.92308C61.4009 7.98278 61.5749 8.06638 61.737 8.17385C62.362 8.5918 63.8744 9.74714 63.8744 11.1174V11.6697H63.8715Z"
		stroke="currentColor"
		stroke-miterlimit="10"
		stroke-linecap="round"
		stroke-linejoin="round"
	/>
</svg>