<svg
	width="59"
	height="37"
	viewBox="0 0 59 37"
	fill="none"
	xmlns="http://www.w3.org/2000/svg"
>
	<path
		d="M11.2081 3.6217C11.2081 3.6217 9.47141 3.85825 8.44322 7.4122C7.21343 11.6642 2.18481 16.2942 2.18481 16.2942C2.18481 16.2942 1.22862 26.1598 1.01262 30.2042C0.793732 34.2485 3.49524 35.9966 3.49524 35.9966L12.628 2.38129L11.2081 3.6217Z"
		stroke="currentColor"
		stroke-miterlimit="10"
		stroke-linecap="round"
		stroke-linejoin="round"
	/>
	<path
		d="M47.791 3.6217C47.791 3.6217 49.5277 3.85825 50.5559 7.4122C51.7856 11.6642 56.8143 16.2942 56.8143 16.2942C56.8143 16.2942 57.7704 26.1598 57.9864 30.2042C58.2053 34.2485 55.5038 35.9966 55.5038 35.9966L46.3711 2.38129L47.791 3.6217Z"
		stroke="currentColor"
		stroke-miterlimit="10"
		stroke-linecap="round"
		stroke-linejoin="round"
	/>
	<path
		d="M29.4984 1C19.5592 1 12.6269 2.38466 12.6269 2.38466L3.49414 36C10.4783 27.3084 29.4984 27.4728 29.4984 27.4728C29.4984 27.4728 48.5184 27.3084 55.5026 36L46.3698 2.38466C46.3698 2.38466 39.4375 1 29.4984 1Z"
		stroke="currentColor"
		stroke-miterlimit="10"
		stroke-linecap="round"
		stroke-linejoin="round"
	/>
</svg>