<svg
	width="50"
	height="48"
	viewBox="0 0 50 48"
	fill="none"
	xmlns="http://www.w3.org/2000/svg"
>
	<path
		d="M29.1431 38.1216C28.3557 22.9004 28.204 14.9508 28.1725 12.4454C28.1667 11.9591 28.5447 11.567 29.0114 11.5582L28.6649 2.4473L26.8611 2.1555C16.602 -0.733105 5.14888 2.57405 1.90193 3.64696C1.36364 3.82381 1 4.33964 1 4.9203V43.2768C1 43.2768 11.4538 43.3711 16.3901 43.3711C21.3264 43.3711 28.5962 44.9363 28.5962 44.9363L29.4008 45.0188L29.1431 38.1216ZM23.9463 42.9467C23.3851 42.9732 22.9098 42.5252 22.884 41.9475L22.7165 38.1672L22.549 34.387C22.5232 33.8093 22.9584 33.32 23.5196 33.2935C24.0808 33.2669 24.5561 33.7149 24.5819 34.2927L24.7494 38.0729L24.9169 41.8531C24.9398 42.4309 24.5075 42.9202 23.9463 42.9467Z"
		stroke="currentColor"
		stroke-miterlimit="10"
		stroke-linecap="round"
		stroke-linejoin="round"
	/>
	<path
		d="M49.0001 30.193C49.0001 23.8823 44.4961 17.6276 44.4961 17.6276L34.7639 4.19854C34.3602 3.64145 33.7589 3.26711 33.0917 3.16099L28.668 2.44769L29.0144 11.5586C29.0201 11.5586 29.023 11.5556 29.0287 11.5556H34.4718C34.8755 11.5556 35.2564 11.7443 35.5055 12.0715C37.0516 14.0994 42.6808 21.4948 44.081 23.5433C45.7073 25.9249 46.1797 32.0706 46.1797 32.0706V41.8152C46.1797 42.3693 45.7016 42.7908 45.169 42.7083L30.091 40.3208C29.6043 40.2441 29.2349 39.8226 29.2091 39.3157C29.1891 38.9118 29.1662 38.5139 29.1461 38.1219L29.4067 45.0162L49.0001 46.9999V30.193V30.193Z"
		stroke="currentColor"
		stroke-miterlimit="10"
		stroke-linecap="round"
		stroke-linejoin="round"
	/>
</svg>