<svg
	width="44"
	height="42"
	viewBox="0 0 44 42"
	fill="none"
	xmlns="http://www.w3.org/2000/svg"
>
	<path
		d="M4.346 20.1831V20.1834C4.34909 24.7885 7.99497 28.5368 12.5205 28.5368C17.0459 28.5368 20.6951 24.7857 20.6951 20.1831C20.6951 15.5805 17.0459 11.8293 12.5205 11.8293C7.99515 11.8293 4.346 15.5805 4.346 20.1831ZM12.5205 7.87018C19.1494 7.87018 24.5411 13.371 24.5411 20.1831C24.5411 26.9952 19.1494 32.496 12.5205 32.496C5.8917 32.496 0.5 26.9952 0.5 20.1831C0.5 13.3739 5.89177 7.87018 12.5205 7.87018Z"
		stroke="currentColor"
	/>
	<path
		d="M27.8506 3.32841C27.8506 3.32841 35.8042 9.45967 35.8042 26.8777C35.8042 31.3013 35.8042 34.5172 35.8042 36.8614C40.1502 37.2303 42.6124 38.1614 42.6124 38.1614C42.6124 33.3153 42.9991 29.1981 42.9991 29.1981C40.0804 26.1548 39.4729 20.8029 39.4729 20.8029L37.9845 10.0874L37.1298 9.9535C36.1618 9.80178 35.3594 9.11458 35.028 8.17154C33.8972 4.9527 31.5251 2.37347 30.3535 1.23706C30.0018 0.89495 29.4349 0.957423 29.1587 1.36796L27.8506 3.32841Z"
		stroke="currentColor"
		stroke-miterlimit="10"
		stroke-linecap="round"
		stroke-linejoin="round"
	/>
	<path
		d="M27.8529 3.3288L27.1378 7.91013C26.9227 9.29048 26.2861 10.5667 25.318 11.5574C25.318 11.5574 29.946 16.8556 26.6959 26.4943C23.4459 36.1329 10.8701 35.9277 10.8701 35.9277L11.0533 40.9999H14.1376C14.4981 40.3037 15.1086 39.7802 15.8382 39.5362C24.225 36.7249 31.1146 36.4632 35.8065 36.8618C35.8065 34.5205 35.8065 31.3017 35.8065 26.878C35.8065 9.46005 27.8529 3.3288 27.8529 3.3288Z"
		stroke="currentColor"
		stroke-miterlimit="10"
		stroke-linecap="round"
		stroke-linejoin="round"
	/>
	<path
		d="M25.317 11.5575C25.317 11.5575 21.4071 4.39399 10.8662 4.39399V1.02046C10.8662 1.02046 20.6222 0.246994 27.0816 8.21079"
		stroke="currentColor"
		stroke-miterlimit="10"
		stroke-linecap="round"
		stroke-linejoin="round"
	/>
</svg>