<svg
	width="15"
	height="24"
	viewBox="0 0 15 24"
	fill="none"
	xmlns="http://www.w3.org/2000/svg"
>
	<path
		d="M13.2678 10.9297H12.483C12.2897 10.9297 12.1023 10.9657 11.9265 11.0406C10.7874 11.5149 6.31264 13.3869 5.16761 13.9666C3.84979 14.6322 2.61983 16.3378 2.61983 16.3378L2.40019 17.5027L1.02673 22.1675C0.865663 22.7139 1.46308 23.1826 1.99899 22.9302L12.3453 18.11L13.7744 13.0985C13.8623 12.7906 13.9062 12.4745 13.9062 12.1583V11.5343C13.9062 11.2015 13.6192 10.9297 13.2678 10.9297Z"
		stroke="currentColor"
		stroke-miterlimit="10"
		stroke-linecap="round"
		stroke-linejoin="round"
	/>
	<path
		d="M13.2152 1.02873L7.82683 2.67891C7.61013 2.74547 7.40513 2.83699 7.21771 2.95625C6.47973 3.41941 4.69922 4.6924 4.69922 6.20113V6.8085C4.69922 7.26611 5.08871 7.63498 5.5719 7.63498H6.70816L12.2898 5.58821C12.735 5.42457 13.0688 5.06958 13.1889 4.63138L13.9825 1.70822C14.0938 1.27557 13.6604 0.890061 13.2152 1.02873Z"
		stroke="currentColor"
		stroke-miterlimit="10"
		stroke-linecap="round"
		stroke-linejoin="round"
	/>
	<path
		d="M8.53125 18.8842L9.80221 14.4412C9.91056 14.0585 10.1917 13.7395 10.5665 13.5676L13.7732 12.0977"
		stroke="currentColor"
		stroke-miterlimit="10"
		stroke-linecap="round"
		stroke-linejoin="round"
	/>
	<path
		d="M4.01953 20.9869L5.13236 17.3981C5.24657 17.0264 5.52477 16.7186 5.89083 16.5494L9.692 14.816"
		stroke="currentColor"
		stroke-miterlimit="10"
		stroke-linecap="round"
		stroke-linejoin="round"
	/>
</svg>