<svg
	width="50"
	height="46"
	viewBox="0 0 50 46"
	fill="none"
	xmlns="http://www.w3.org/2000/svg"
>
	<path
		d="M29.3945 2.8869L29.5778 8.69314C29.5606 8.04765 30.0647 7.48844 30.6431 7.5172L45.0881 8.26813C45.5463 8.2905 45.9071 8.7123 45.9071 9.22358V24.0507C45.9071 24.0507 45.6924 32.0107 45.2027 35.8996C45.0681 36.9733 44.1889 37.7338 43.2238 37.6188C41.0043 37.36 36.869 36.8072 33.3952 35.9763C31.9433 35.628 30.9753 34.2667 30.6546 32.6466C30.1821 30.2564 30.6546 32.6466 30.1821 30.2564L30.7233 44.6968C36.2476 44.0162 45.9759 42.3354 48.4559 41.1211C48.4559 41.1211 48.9972 29.0708 48.9972 18.7781V5.03429L29.3945 2.8869Z"
		stroke="currentColor"
		stroke-miterlimit="10"
		stroke-linecap="round"
		stroke-linejoin="round"
	/>
	<path
		d="M29.5807 8.69156L29.3974 2.88533L28.6012 2.79907C28.6012 2.79907 28.5755 2.79268 28.5354 2.78309L23.8158 2.22068V1.85959C21.479 1.46654 18.6839 1.10226 16.3929 1.10226C11.4557 1.10226 1 1 1 1V21.0358C1 23.3972 2.25434 25.5158 4.17881 26.5001C6.22356 27.545 9.17613 29.6189 12.8103 33.7347L21.9802 42.6948C21.9802 42.6948 24.1509 45.117 27.5703 44.9956C28.3435 44.9668 30.3482 44.7367 30.729 44.6952L30.1878 30.258L29.5807 8.69156ZM25.2162 41.0268C24.6549 41.0555 24.1795 40.5698 24.1538 39.9435L23.8187 31.747C23.7929 31.1207 24.2282 30.5903 24.7895 30.5615C25.3508 30.5328 25.8262 31.0185 25.852 31.6448L26.1871 39.8412C26.21 40.4676 25.7775 40.998 25.2162 41.0268Z"
		stroke="currentColor"
		stroke-miterlimit="10"
		stroke-linecap="round"
		stroke-linejoin="round"
	/>
</svg>