<svg
	width="41"
	height="44"
	viewBox="0 0 41 44"
	fill="none"
	xmlns="http://www.w3.org/2000/svg"
>
	<path
		d="M24.2653 24.2718C24.2653 30.9648 18.9379 36.3739 12.3827 36.3739C5.82748 36.3739 0.5 30.962 0.5 24.2718C0.5 17.5788 5.8274 12.1698 12.3827 12.1698C18.9379 12.1698 24.2653 17.5788 24.2653 24.2718ZM20.4727 24.2718C20.4727 19.738 16.8588 16.0474 12.3827 16.0474C7.90664 16.0474 4.29264 19.7349 4.29264 24.2718C4.29264 28.8057 7.90651 32.4963 12.3827 32.4963C16.8588 32.4963 20.4727 28.8057 20.4727 24.2718Z"
		stroke="currentColor"
	/>
	<path
		d="M24.5156 33.9175C24.5156 33.9175 19.9731 39.7489 12.9121 39.7489V42.9939C12.9121 42.9939 18.2194 43.3186 23.4404 39.4651L26.9105 39.4885C27.3619 39.0642 28.2474 38.1075 28.2474 38.1075"
		stroke="currentColor"
		stroke-miterlimit="10"
		stroke-linecap="round"
		stroke-linejoin="round"
	/>
	<path
		d="M13.696 1.03046L38.7229 10.1389V23.0803C39.5078 23.5222 39.9994 23.7621 39.9994 23.7621V33.4089C39.9994 34.8046 39.2002 36.0744 37.9553 36.6596L32.3979 39.2666C31.3571 39.7553 30.1353 39.6119 29.2296 38.8921L24.6727 35.2698C24.2587 34.9421 24.1926 34.3394 24.5117 33.9151C27.6081 29.8071 28.8645 23.9961 25.5812 16.5174C22.8931 10.3934 16.8182 9.27284 14.1761 9.08265C13.4602 9.02998 12.9082 8.41846 12.9082 7.68697V1.61272C12.9111 1.19724 13.3078 0.901719 13.696 1.03046Z"
		stroke="currentColor"
		stroke-miterlimit="10"
		stroke-linecap="round"
		stroke-linejoin="round"
	/>
</svg>