<svg
	width="56"
	height="40"
	viewBox="0 0 56 40"
	fill="none"
	xmlns="http://www.w3.org/2000/svg"
>
	<path
		d="M53.7385 19.2093C53.7385 19.2093 50.7758 23.5048 28 23.5048C5.22418 23.5048 2.26147 19.2093 2.26147 19.2093L1 20.3513C5.3862 30.4087 8.94781 37.5306 8.94781 37.5306C14.8674 38.7817 28 38.9997 28 38.9997C28 38.9997 41.1297 38.7817 47.0522 37.5306C47.0522 37.5306 50.6167 30.4087 55 20.3513L53.7385 19.2093ZM31.0177 37.4244H28H24.9823C24.6641 37.4244 24.4066 37.1691 24.4066 36.8534C24.4066 36.5378 24.6641 36.2824 24.9823 36.2824H28H31.0177C31.3359 36.2824 31.5934 36.5378 31.5934 36.8534C31.5934 37.1691 31.3359 37.4244 31.0177 37.4244Z"
		stroke="currentColor"
		stroke-miterlimit="10"
		stroke-linecap="round"
		stroke-linejoin="round"
	/>
	<path
		d="M49.2156 4.14206C49.207 4.05884 49.1838 3.97561 49.1433 3.901L48.5184 2.75035C48.4605 2.64418 48.3824 2.5495 48.2811 2.47777C48.1567 2.38882 48.0005 2.3056 47.8182 2.22526C45.0725 1.04592 36.2885 1 36.2885 1H27.9993H19.7101C19.7101 1 10.9261 1.04592 8.18037 2.22526C7.9981 2.30273 7.84186 2.38882 7.71745 2.47777C7.61908 2.5495 7.54096 2.64418 7.48021 2.75035L6.85526 3.901C6.81186 3.97847 6.78871 4.06171 6.78293 4.14206L2.26074 19.2123C2.26074 19.2123 2.33597 19.3185 2.55007 19.4993C2.6224 19.5595 2.7092 19.6284 2.81336 19.703C2.81336 19.703 6.67298 6.21951 6.98256 5.15494C6.99124 5.12625 7.07515 4.85941 7.49756 4.91966C11.4527 6.6442 20.7979 6.85655 27.3512 6.86803C27.5711 6.86803 27.7852 6.86803 27.9964 6.86803C28.2076 6.86803 28.4246 6.86803 28.6416 6.86803C35.1948 6.85655 44.5401 6.6442 48.4952 4.91966C48.9089 4.86228 48.9986 5.11477 49.0102 5.15207C49.3429 6.29698 53.1794 19.7002 53.1794 19.7002C53.2836 19.6255 53.3704 19.5567 53.4427 19.4964C53.6568 19.3157 53.732 19.2095 53.732 19.2095L49.2156 4.14206Z"
		stroke="currentColor"
		stroke-miterlimit="10"
		stroke-linecap="round"
		stroke-linejoin="round"
	/>
</svg>