<svg
	width="72"
	height="24"
	viewBox="0 0 72 24"
	fill="none"
	xmlns="http://www.w3.org/2000/svg"
>
	<path
		d="M67.8746 13.7489L67.3528 15.2386C67.3528 15.2386 58.1539 19.4715 43.2942 19.4715H36.0029H28.7116C13.8518 19.4715 4.65295 15.2386 4.65295 15.2386L4.13108 13.7489L1.9375 12.7031C2.09671 13.6248 2.27951 14.5465 2.49179 15.4341C2.49179 15.4341 4.2048 17.864 6.58707 19.2357C6.58707 19.2357 16.5319 21.9418 31.2796 21.9418L32.0491 22.6245C32.3233 22.8666 32.6683 23 33.025 23H36.0029H38.9807C39.3375 23 39.6824 22.8666 39.9566 22.6245L40.7261 21.9418C55.4738 21.9418 65.4187 19.2357 65.4187 19.2357C67.8009 17.864 69.5139 15.4341 69.5139 15.4341C69.7262 14.5496 69.912 13.6248 70.0682 12.7031L67.8746 13.7489Z"
		stroke="currentColor"
		stroke-miterlimit="10"
		stroke-linecap="round"
		stroke-linejoin="round"
	/>
	<path
		d="M70.086 3.8788C69.343 4.07432 68.6207 3.48157 68.6207 2.67469V1.53573C68.6207 1.10747 68.1696 0.85301 67.8276 1.09197C64.2512 3.58089 57.4847 4.4219 57.4847 4.4219C56.7771 6.30255 55.3236 7.9101 55.3236 7.9101C51.2637 8.96835 36.0029 8.89078 36.0029 8.89078C36.0029 8.89078 20.7422 8.96835 16.6823 7.9101C16.6823 7.9101 15.2288 6.30255 14.5212 4.4219C14.5212 4.4219 7.7547 3.58089 4.17833 1.09197C3.83927 0.856114 3.38522 1.10747 3.38522 1.53573V2.67469C3.38522 3.48157 2.66287 4.07432 1.91989 3.8788L1 3.63673C1 3.63673 1.15627 8.16146 1.93463 12.7048L4.12822 13.7507L4.65007 15.2403C4.65007 15.2403 13.849 19.4733 28.7087 19.4733H36H43.2913C58.151 19.4733 67.3499 15.2403 67.3499 15.2403L67.8718 13.7507L70.0654 12.7048C70.8437 8.16146 71 3.63673 71 3.63673L70.086 3.8788ZM47.8848 16.2489C47.8848 17.0154 47.3305 17.6547 46.6053 17.723C44.6446 17.9061 40.6289 18.2195 36.0029 18.2195C31.377 18.2195 27.3642 17.9061 25.4006 17.723C24.6753 17.6547 24.1211 17.0154 24.1211 16.2489V13.9617C24.1211 13.3814 24.6134 12.9407 25.1589 13.0307C28.8237 13.6296 36 13.4372 36 13.4372C36 13.4372 43.1763 13.6296 46.8411 13.0307C47.3866 12.9407 47.8789 13.3814 47.8789 13.9617V16.2489H47.8848Z"
		stroke="currentColor"
		stroke-miterlimit="10"
		stroke-linecap="round"
		stroke-linejoin="round"
	/>
</svg>