<svg
	width="50"
	height="48"
	viewBox="0 0 50 48"
	fill="none"
	xmlns="http://www.w3.org/2000/svg"
>
	<path
		d="M20.8553 38.1221C21.6427 22.9007 21.7945 14.951 21.826 12.4456C21.8317 11.9592 21.4538 11.5672 20.9871 11.5583L21.3335 2.44732L23.1374 2.15551C33.3965 -0.733131 44.8496 2.57407 48.0965 3.647C48.6348 3.82385 48.9985 4.33969 48.9985 4.92036V43.2775C48.9985 43.2775 38.5446 43.3718 33.6084 43.3718C28.6721 43.3718 21.4022 44.937 21.4022 44.937L20.5977 45.0195L20.8553 38.1221ZM26.0522 42.9473C26.6134 42.9739 27.0887 42.5258 27.1145 41.9481L27.4495 34.3875C27.4752 33.8098 27.04 33.3205 26.4788 33.2939C25.9176 33.2674 25.4423 33.7154 25.4165 34.2932L25.0815 41.8538C25.0586 42.4315 25.491 42.9208 26.0522 42.9473Z"
		stroke="currentColor"
		stroke-miterlimit="10"
		stroke-linecap="round"
		stroke-linejoin="round"
	/>
	<path
		d="M1 30.1935C1 23.8827 5.50394 17.6279 5.50394 17.6279L15.2363 4.19869C15.64 3.64159 16.2413 3.26724 16.9084 3.16113L21.3322 2.44781L20.9857 11.5588C20.98 11.5588 20.9771 11.5559 20.9714 11.5559H15.5283C15.1246 11.5559 14.7438 11.7445 14.4947 12.0717C12.9485 14.0997 7.31927 21.4952 5.91912 23.5438C4.29277 25.9254 3.82033 32.0711 3.82033 32.0711V41.8159C3.82033 42.37 4.2985 42.7915 4.83108 42.709L19.9091 40.3215C20.3959 40.2448 20.7652 39.8233 20.791 39.3163C20.8111 38.9125 20.834 38.5146 20.854 38.1226L20.5934 45.017L1 47.0007V30.1935V30.1935Z"
		stroke="currentColor"
		stroke-miterlimit="10"
		stroke-linecap="round"
		stroke-linejoin="round"
	/>
</svg>