<svg
	width="44"
	height="42"
	viewBox="0 0 44 42"
	fill="none"
	xmlns="http://www.w3.org/2000/svg"
>
	<path
		d="M19.459 20.1851C19.459 13.373 24.8506 7.87219 31.4793 7.87219C38.108 7.87219 43.4996 13.3759 43.4996 20.1851C43.4996 26.9972 38.108 32.4981 31.4793 32.4981C24.8506 32.4981 19.459 26.9972 19.459 20.1851ZM23.3049 20.1851C23.3049 24.7877 26.954 28.5389 31.4793 28.5389C36.0045 28.5389 39.6537 24.7908 39.6537 20.1851C39.6537 15.5825 36.0047 11.8314 31.4793 11.8314C26.954 11.8314 23.3049 15.5825 23.3049 20.1851Z"
		stroke="currentColor"
	/>
	<path
		d="M16.1482 3.32891C16.1482 3.32891 8.19475 9.46019 8.19475 26.8783C8.19475 31.3019 8.19475 34.5178 8.19475 36.862C3.84883 37.2309 1.38663 38.1621 1.38663 38.1621C1.38663 33.316 1 29.1987 1 29.1987C3.9186 26.1554 4.52616 20.8035 4.52616 20.8035L6.01453 10.0879L6.86918 9.95402C7.8372 9.8023 8.63953 9.1151 8.97093 8.17205C10.1017 4.95321 12.4738 2.37397 13.6453 1.23755C13.9971 0.895438 14.5639 0.957911 14.8401 1.36845L16.1482 3.32891Z"
		stroke="currentColor"
		stroke-miterlimit="10"
		stroke-linecap="round"
		stroke-linejoin="round"
	/>
	<path
		d="M16.1468 3.3288L16.8619 7.91014C17.0771 9.2905 17.7137 10.5667 18.6817 11.5574C18.6817 11.5574 14.0538 16.8557 17.3038 26.4944C20.5538 36.133 33.1294 35.9278 33.1294 35.9278L32.9462 41H29.8619C29.5015 40.3039 28.891 39.7803 28.1613 39.5363C19.7747 36.725 12.8852 36.4633 8.19336 36.8619C8.19336 34.5206 8.19336 31.3018 8.19336 26.8781C8.19336 9.46007 16.1468 3.3288 16.1468 3.3288Z"
		stroke="currentColor"
		stroke-miterlimit="10"
		stroke-linecap="round"
		stroke-linejoin="round"
	/>
	<path
		d="M18.6835 11.5576C18.6835 11.5576 22.5934 4.394 33.1341 4.394V1.02046C33.1341 1.02046 23.3783 0.246992 16.9189 8.21081"
		stroke="currentColor"
		stroke-miterlimit="10"
		stroke-linecap="round"
		stroke-linejoin="round"
	/>
</svg>