<svg
	width="15"
	height="24"
	viewBox="0 0 15 24"
	fill="none"
	xmlns="http://www.w3.org/2000/svg"
>
	<path
		d="M1.73216 10.9293H2.51699C2.71027 10.9293 2.89771 10.9654 3.07341 11.0403C4.2126 11.5145 8.68734 13.3866 9.83238 13.9662C11.1502 14.6318 12.3802 16.3375 12.3802 16.3375L12.5998 17.5023L13.9733 22.1672C14.1343 22.7135 13.5369 23.1822 13.001 22.9298L2.65464 18.1097L1.22554 13.0981C1.13768 12.7903 1.09375 12.4741 1.09375 12.1579V11.5339C1.09375 11.2011 1.38074 10.9293 1.73216 10.9293Z"
		stroke="currentColor"
		stroke-miterlimit="10"
		stroke-linecap="round"
		stroke-linejoin="round"
	/>
	<path
		d="M1.78493 1.02873L7.17335 2.67891C7.39006 2.74547 7.59506 2.83699 7.78248 2.95625C8.52046 3.41941 10.301 4.6924 10.301 6.20113V6.8085C10.301 7.26611 9.91149 7.63497 9.42829 7.63497H8.29204L2.71034 5.5882C2.26521 5.42457 1.93136 5.06958 1.81129 4.63138L1.01767 1.70822C0.906384 1.27557 1.3398 0.890061 1.78493 1.02873Z"
		stroke="currentColor"
		stroke-miterlimit="10"
		stroke-linecap="round"
		stroke-linejoin="round"
	/>
	<path
		d="M7.46861 19.885L6.19763 15.442C6.08927 15.0593 5.80814 14.7404 5.43329 14.5684L2.22656 13.0985"
		stroke="currentColor"
		stroke-miterlimit="10"
		stroke-linecap="round"
		stroke-linejoin="round"
	/>
	<path
		d="M11.9811 21.9869L10.8682 18.3981C10.754 18.0265 10.4758 17.7187 10.1098 17.5495L6.30859 15.8161"
		stroke="currentColor"
		stroke-miterlimit="10"
		stroke-linecap="round"
		stroke-linejoin="round"
	/>
</svg>