<svg
	width="46"
	height="50"
	viewBox="0 0 46 50"
	fill="none"
	xmlns="http://www.w3.org/2000/svg"
>
	<path
		d="M23 1C23 1 7.82201 1.23785 1 5.50665C1.3204 6.37251 1.50471 7.26549 1.5444 8.16265L3.44129 47.9631C3.4583 48.3261 3.84676 48.6203 4.34012 48.637C6.93453 48.7329 14.9417 49 23 49C31.0583 49 39.0655 48.7329 41.6599 48.637C42.1532 48.6182 42.5417 48.3261 42.5587 47.9631L44.4556 8.16265C44.4953 7.26549 44.6796 6.37251 45 5.50665C38.178 1.23576 23 1 23 1ZM36.783 20.2847C36.783 20.8334 36.1762 21.2799 35.4305 21.2799H10.5724C9.82666 21.2799 9.21987 20.8334 9.21987 20.2847V9.74206C9.21987 9.19333 9.82666 8.74684 10.5724 8.74684H35.4305C36.1762 8.74684 36.783 9.19125 36.783 9.74206V20.2847Z"
		stroke="currentColor"
		stroke-miterlimit="10"
		stroke-linecap="round"
		stroke-linejoin="round"
	/>
</svg>