<svg
	width="50"
	height="46"
	viewBox="0 0 50 46"
	fill="none"
	xmlns="http://www.w3.org/2000/svg"
>
	<path
		d="M20.6027 2.8866L20.4194 8.69283C20.4366 8.04734 19.9325 7.48813 19.3541 7.51689L4.90909 8.26783C4.45088 8.2902 4.09003 8.712 4.09003 9.22328V24.0504C4.09003 24.0504 4.30482 32.0104 4.79453 35.8993C4.92913 36.973 5.8083 37.7335 6.7734 37.6185C8.99284 37.3597 13.1282 36.8068 16.6019 35.976C18.0539 35.6277 19.0219 34.2664 19.3426 32.6463C19.8151 30.2561 19.3426 32.6463 19.8151 30.2561L19.2739 44.6965C13.7496 44.0159 4.02131 42.3351 1.54126 41.1208C1.54126 41.1208 1 29.0705 1 18.7778V5.03398L20.6027 2.8866Z"
		stroke="currentColor"
		stroke-miterlimit="10"
		stroke-linecap="round"
		stroke-linejoin="round"
	/>
	<path
		d="M20.4208 8.69156L20.6041 2.88533L21.4003 2.79907C21.4003 2.79907 21.426 2.79268 21.4661 2.78309L26.1857 2.22068V1.85959C28.5225 1.46654 31.3176 1.10226 33.6086 1.10226C38.5458 1.10226 49.0015 1 49.0015 1V21.0358C49.0015 23.3972 47.7472 25.5158 45.8227 26.5001C43.778 27.545 40.8254 29.6189 37.1912 33.7347L28.0214 42.6948C28.0214 42.6948 25.8506 45.117 22.4312 44.9956C21.658 44.9668 19.6533 44.7367 19.2725 44.6952L19.8137 30.258L20.4208 8.69156ZM24.7881 41.0268C25.3494 41.0555 25.8248 40.5698 25.8506 39.9435L26.1857 31.747C26.2114 31.1207 25.7761 30.5903 25.2148 30.5615C24.6535 30.5328 24.1781 31.0185 24.1524 31.6448L23.8173 39.8412C23.7915 40.4676 24.2268 40.998 24.7881 41.0268Z"
		stroke="currentColor"
		stroke-miterlimit="10"
		stroke-linecap="round"
		stroke-linejoin="round"
	/>
</svg>