<svg
	width="41"
	height="44"
	viewBox="0 0 41 44"
	fill="none"
	xmlns="http://www.w3.org/2000/svg"
>
	<path
		d="M28.6171 36.3733C22.0618 36.3733 16.7344 30.9643 16.7344 24.2713C16.7344 17.5783 22.0618 12.1693 28.6171 12.1693C35.1723 12.1693 40.4997 17.5783 40.4997 24.2713C40.4997 30.9614 35.1722 36.3733 28.6171 36.3733ZM28.6171 16.0468C24.1409 16.0468 20.527 19.7374 20.527 24.2713C20.527 28.8051 24.1409 32.4958 28.6171 32.4958C33.0932 32.4958 36.7071 28.8051 36.7071 24.2713C36.7071 19.7344 33.0931 16.0468 28.6171 16.0468Z"
		stroke="currentColor"
	/>
	<path
		d="M16.4837 33.9169C16.4837 33.9169 21.0262 39.7483 28.0872 39.7483V42.9932C28.0872 42.9932 22.78 43.318 17.559 39.4645L14.0888 39.4879C13.6375 39.0636 12.752 38.1069 12.752 38.1069"
		stroke="currentColor"
		stroke-miterlimit="10"
		stroke-linecap="round"
		stroke-linejoin="round"
	/>
	<path
		d="M27.3034 1.03046L2.2765 10.1389V23.0803C1.49163 23.5222 1 23.7621 1 23.7621V33.4089C1 34.8046 1.79925 36.0744 3.04413 36.6596L8.60152 39.2666C9.64227 39.7553 10.8642 39.6119 11.7698 38.8921L16.3267 35.2698C16.7407 34.9421 16.8068 34.3394 16.4877 33.9151C13.3913 29.8071 12.1349 23.9961 15.4182 16.5174C18.1063 10.3934 24.1812 9.27284 26.8233 9.08265C27.5392 9.02998 28.0912 8.41846 28.0912 7.68697V1.61272C28.0912 1.19724 27.6916 0.901719 27.3034 1.03046Z"
		stroke="currentColor"
		stroke-miterlimit="10"
		stroke-linecap="round"
		stroke-linejoin="round"
	/>
</svg>