<svg
	width="18"
	height="8"
	viewBox="0 0 18 8"
	fill="none"
	xmlns="http://www.w3.org/2000/svg"
>
	<path
		d="M5.82757 4.61102H1.69007C1.30994 4.61102 1 4.28715 1 3.89001V3.35844C1 2.05702 2.0117 1 3.25734 1H9.12H15.5733C15.8336 1 16.0763 1.07027 16.2897 1.19247C16.8921 1.54073 17.1377 2.31671 16.9242 3.00103L15.9856 6.00101C15.7985 6.59674 15.2692 7 14.6698 7H9.22819H7.14338V5.98576C7.14338 5.22507 6.55565 4.61102 5.82757 4.61102Z"
		stroke="currentColor"
		stroke-miterlimit="10"
		stroke-linecap="round"
		stroke-linejoin="round"
	/>
	<path
		d="M16.0695 1.08984L14.7712 5.10112C14.6718 5.40051 14.4028 5.59909 14.1016 5.59909H7.08984"
		stroke="currentColor"
		stroke-miterlimit="10"
		stroke-linecap="round"
		stroke-linejoin="round"
	/>
</svg>